STARTFONT 2.1
COMMENT converted Oberon font (using FontToBDF by R.Crelier 10.1.91)
FONT Times24.Scn.Fnt
SIZE 24 75 75
FONTBOUNDINGBOX  25 26 0 -6
STARTPROPERTIES 3
FONT_ASCENT 20
FONT_DESCENT 6
DEFAULT_CHAR 0
ENDPROPERTIES
CHARS 121
STARTCHAR c0
ENCODING -1 0
SWIDTH 0 0
DWIDTH 0 0
BBX 0 0 0 0
BITMAP
ENDCHAR
STARTCHAR c9
ENCODING -1 9
SWIDTH 774 0
DWIDTH 24 0
BBX 0 0 0 0
BITMAP
ENDCHAR
STARTCHAR c32
ENCODING -1 32
SWIDTH 161 0
DWIDTH 5 0
BBX 0 0 0 0
BITMAP
ENDCHAR
STARTCHAR c33
ENCODING -1 33
SWIDTH 258 0
DWIDTH 8 0
BBX 2 17 3 0
BITMAP
C0
C0
C0
C0
C0
C0
C0
80
C0
80
80
80
00
00
C0
C0
C0
ENDCHAR
STARTCHAR c34
ENCODING -1 34
SWIDTH 258 0
DWIDTH 8 0
BBX 5 5 1 12
BITMAP
D8
D8
48
48
90
ENDCHAR
STARTCHAR c35
ENCODING -1 35
SWIDTH 516 0
DWIDTH 16 0
BBX 13 17 1 0
BITMAP
0210
0210
0420
0420
0420
7FF8
7FF8
0840
0840
1080
FFF0
FFF0
1080
2080
2100
2100
2100
ENDCHAR
STARTCHAR c36
ENCODING -1 36
SWIDTH 516 0
DWIDTH 16 0
BBX 11 21 2 -2
BITMAP
0400
0400
1FA0
64E0
4460
C420
C420
C400
6400
7C00
1F00
07C0
04C0
0460
8460
8460
C440
E4C0
BF00
0400
0400
ENDCHAR
STARTCHAR c37
ENCODING -1 37
SWIDTH 580 0
DWIDTH 18 0
BBX 15 17 1 0
BITMAP
3810
4410
C620
C620
C640
C640
C680
4480
3938
0244
02C6
04C6
04C6
08C6
08C6
1044
1038
ENDCHAR
STARTCHAR c38
ENCODING -1 38
SWIDTH 645 0
DWIDTH 20 0
BBX 16 17 2 0
BITMAP
07C0
0860
1820
1820
1840
0C80
0E00
071F
0B86
3184
61C4
C0E8
C070
C038
C058
619C
3E0F
ENDCHAR
STARTCHAR c39
ENCODING -1 39
SWIDTH 161 0
DWIDTH 5 0
BBX 2 5 1 12
BITMAP
C0
C0
40
40
80
ENDCHAR
STARTCHAR c40
ENCODING -1 40
SWIDTH 290 0
DWIDTH 9 0
BBX 6 25 2 -6
BITMAP
04
08
10
30
60
60
60
C0
C0
C0
C0
C0
C0
C0
C0
C0
C0
C0
60
60
60
30
10
08
04
ENDCHAR
STARTCHAR c41
ENCODING -1 41
SWIDTH 290 0
DWIDTH 9 0
BBX 6 25 0 -6
BITMAP
80
40
20
30
18
18
18
0C
0C
0C
0C
0C
0C
0C
0C
0C
0C
0C
18
18
18
30
20
40
80
ENDCHAR
STARTCHAR c42
ENCODING -1 42
SWIDTH 516 0
DWIDTH 16 0
BBX 11 12 2 0
BITMAP
0400
0400
8420
64C0
1500
0E00
0E00
1500
64C0
8420
0400
0400
ENDCHAR
STARTCHAR c43
ENCODING -1 43
SWIDTH 516 0
DWIDTH 16 0
BBX 13 13 1 -1
BITMAP
0200
0200
0200
0200
0200
0200
FFF8
0200
0200
0200
0200
0200
0200
ENDCHAR
STARTCHAR c44
ENCODING -1 44
SWIDTH 193 0
DWIDTH 6 0
BBX 3 6 2 -3
BITMAP
E0
E0
60
40
40
80
ENDCHAR
STARTCHAR c45
ENCODING -1 45
SWIDTH 225 0
DWIDTH 7 0
BBX 6 1 0 5
BITMAP
FC
ENDCHAR
STARTCHAR c46
ENCODING -1 46
SWIDTH 193 0
DWIDTH 6 0
BBX 3 3 2 0
BITMAP
E0
E0
E0
ENDCHAR
STARTCHAR c47
ENCODING -1 47
SWIDTH 419 0
DWIDTH 13 0
BBX 9 17 2 0
BITMAP
0080
0080
0100
0100
0200
0200
0400
0400
0800
1000
1000
2000
2000
4000
4000
8000
8000
ENDCHAR
STARTCHAR c48
ENCODING -1 48
SWIDTH 419 0
DWIDTH 13 0
BBX 10 17 1 0
BITMAP
1E00
2100
6180
4080
C0C0
C0C0
C0C0
C0C0
C0C0
C0C0
C0C0
C0C0
C0C0
4080
6180
2100
1E00
ENDCHAR
STARTCHAR c49
ENCODING -1 49
SWIDTH 419 0
DWIDTH 13 0
BBX 6 17 3 0
BITMAP
30
F0
30
30
30
30
30
30
30
30
30
30
30
30
30
30
FC
ENDCHAR
STARTCHAR c50
ENCODING -1 50
SWIDTH 419 0
DWIDTH 13 0
BBX 11 17 0 0
BITMAP
0F00
3180
60C0
00C0
00C0
00C0
0080
0180
0100
0300
0600
0400
0800
1000
2020
7FC0
FFC0
ENDCHAR
STARTCHAR c51
ENCODING -1 51
SWIDTH 419 0
DWIDTH 13 0
BBX 9 17 1 0
BITMAP
0E00
3F00
4380
0180
0180
0100
0300
0400
1E00
0700
0380
0180
0180
0100
0300
C600
F800
ENDCHAR
STARTCHAR c52
ENCODING -1 52
SWIDTH 419 0
DWIDTH 13 0
BBX 12 17 0 0
BITMAP
0180
0180
0380
0580
0980
0980
1180
2180
2180
4180
8180
FFF0
FFF0
0180
0180
0180
0180
ENDCHAR
STARTCHAR c53
ENCODING -1 53
SWIDTH 419 0
DWIDTH 13 0
BBX 9 17 1 0
BITMAP
3F80
3F80
2000
2000
4000
4000
7800
7E00
0700
0300
0180
0180
0100
0100
0200
CC00
F000
ENDCHAR
STARTCHAR c54
ENCODING -1 54
SWIDTH 419 0
DWIDTH 13 0
BBX 10 17 1 0
BITMAP
01C0
0600
1800
1000
3000
6000
6000
4F00
D380
E1C0
C0C0
C0C0
C0C0
C0C0
6080
7100
1E00
ENDCHAR
STARTCHAR c55
ENCODING -1 55
SWIDTH 419 0
DWIDTH 13 0
BBX 11 17 0 0
BITMAP
7FE0
7FE0
8040
00C0
0080
0080
0180
0100
0100
0300
0200
0600
0400
0400
0C00
0800
1800
ENDCHAR
STARTCHAR c56
ENCODING -1 56
SWIDTH 419 0
DWIDTH 13 0
BBX 10 17 1 0
BITMAP
1F00
6080
C040
C040
C040
E080
7100
3A00
0C00
1700
2380
41C0
80C0
80C0
80C0
4180
3E00
ENDCHAR
STARTCHAR c57
ENCODING -1 57
SWIDTH 419 0
DWIDTH 13 0
BBX 10 17 1 0
BITMAP
1E00
2380
4180
C0C0
C0C0
C0C0
C0C0
E1C0
72C0
3C80
0180
0180
0300
0200
0600
1800
E000
ENDCHAR
STARTCHAR c58
ENCODING -1 58
SWIDTH 225 0
DWIDTH 7 0
BBX 3 12 2 0
BITMAP
E0
E0
E0
00
00
00
00
00
00
E0
E0
E0
ENDCHAR
STARTCHAR c59
ENCODING -1 59
SWIDTH 225 0
DWIDTH 7 0
BBX 3 15 2 -3
BITMAP
E0
E0
E0
00
00
00
00
00
00
E0
E0
60
40
40
80
ENDCHAR
STARTCHAR c60
ENCODING -1 60
SWIDTH 483 0
DWIDTH 15 0
BBX 12 12 1 0
BITMAP
0030
00C0
0300
0C00
3000
C000
C000
3000
0C00
0300
00C0
0030
ENDCHAR
STARTCHAR c61
ENCODING -1 61
SWIDTH 483 0
DWIDTH 15 0
BBX 12 4 1 4
BITMAP
FFF0
0000
0000
FFF0
ENDCHAR
STARTCHAR c62
ENCODING -1 62
SWIDTH 483 0
DWIDTH 15 0
BBX 12 12 2 0
BITMAP
C000
3000
0C00
0300
00C0
0030
0030
00C0
0300
0C00
3000
C000
ENDCHAR
STARTCHAR c63
ENCODING -1 63
SWIDTH 387 0
DWIDTH 12 0
BBX 8 17 2 0
BITMAP
3C
46
83
83
C3
C3
02
06
04
08
08
08
00
00
1C
1C
1C
ENDCHAR
STARTCHAR c64
ENCODING -1 64
SWIDTH 806 0
DWIDTH 25 0
BBX 20 20 2 -3
BITMAP
00FF00
0300C0
0C0060
080060
303F30
204630
618630
410630
C30C30
C20C30
C60C20
C61C60
C62840
C648C0
C39900
601E00
600000
300000
1C3800
03C000
ENDCHAR
STARTCHAR c65
ENCODING -1 65
SWIDTH 548 0
DWIDTH 17 0
BBX 16 17 0 0
BITMAP
0180
0180
01C0
02C0
02C0
0260
0460
0460
0830
0830
0FF8
1018
1018
101C
200C
200C
F81F
ENDCHAR
STARTCHAR c66
ENCODING -1 66
SWIDTH 548 0
DWIDTH 17 0
BBX 13 17 1 0
BITMAP
FFE0
3030
3018
3018
3018
3018
3010
3020
3FC0
3020
3010
3018
3018
3018
3018
3030
FFE0
ENDCHAR
STARTCHAR c67
ENCODING -1 67
SWIDTH 580 0
DWIDTH 18 0
BBX 14 17 2 0
BITMAP
07F4
1C1C
300C
7004
6004
E000
C000
E000
C000
E000
C000
E000
6000
7004
300C
1C38
07E0
ENDCHAR
STARTCHAR c68
ENCODING -1 68
SWIDTH 645 0
DWIDTH 20 0
BBX 16 17 2 0
BITMAP
FFE0
3038
300C
300E
3006
3007
3003
3007
3003
3007
3003
3007
3006
300E
300C
3038
FFE0
ENDCHAR
STARTCHAR c69
ENCODING -1 69
SWIDTH 580 0
DWIDTH 18 0
BBX 14 17 2 0
BITMAP
FFF8
3038
3008
3008
3008
3040
3040
30C0
3FC0
30C0
3040
3040
3004
3004
3008
3038
FFF8
ENDCHAR
STARTCHAR c70
ENCODING -1 70
SWIDTH 516 0
DWIDTH 16 0
BBX 13 17 2 0
BITMAP
FFF8
3038
3008
3008
3008
3040
3040
30C0
3FC0
30C0
3040
3040
3000
3000
3000
3000
FC00
ENDCHAR
STARTCHAR c71
ENCODING -1 71
SWIDTH 677 0
DWIDTH 21 0
BBX 17 17 2 0
BITMAP
07FA00
1C0E00
300600
700200
600200
E00000
C00000
E00000
C00000
E01F80
C00600
E00600
600600
700600
300600
1C1E00
07F000
ENDCHAR
STARTCHAR c72
ENCODING -1 72
SWIDTH 645 0
DWIDTH 20 0
BBX 16 17 2 0
BITMAP
FC3F
300C
300C
300C
300C
300C
300C
300C
3FFC
300C
300C
300C
300C
300C
300C
300C
FC3F
ENDCHAR
STARTCHAR c73
ENCODING -1 73
SWIDTH 322 0
DWIDTH 10 0
BBX 6 17 2 0
BITMAP
FC
30
30
30
30
30
30
30
30
30
30
30
30
30
30
30
FC
ENDCHAR
STARTCHAR c74
ENCODING -1 74
SWIDTH 322 0
DWIDTH 10 0
BBX 8 17 0 0
BITMAP
3F
0C
0C
0C
0C
0C
0C
0C
0C
0C
0C
0C
0C
0C
C8
D8
70
ENDCHAR
STARTCHAR c75
ENCODING -1 75
SWIDTH 580 0
DWIDTH 18 0
BBX 16 17 1 0
BITMAP
FC3E
3018
3010
3020
3040
3080
3100
3200
3600
3700
3380
31C0
30E0
3070
3038
301C
FC7F
ENDCHAR
STARTCHAR c76
ENCODING -1 76
SWIDTH 483 0
DWIDTH 15 0
BBX 13 17 1 0
BITMAP
FC00
3000
3000
3000
3000
3000
3000
3000
3000
3000
3000
3000
3008
3008
3010
3070
FFF0
ENDCHAR
STARTCHAR c77
ENCODING -1 77
SWIDTH 774 0
DWIDTH 24 0
BBX 20 17 2 0
BITMAP
F801F0
3801C0
3C03C0
2C02C0
2C02C0
2604C0
2604C0
2708C0
2308C0
2308C0
2190C0
2190C0
21A0C0
20E0C0
20E0C0
2040C0
F843F0
ENDCHAR
STARTCHAR c78
ENCODING -1 78
SWIDTH 677 0
DWIDTH 21 0
BBX 18 17 1 0
BITMAP
F807C0
380100
1C0100
1E0100
170100
138100
118100
11C100
10E100
107100
103100
103900
101D00
100F00
100700
100300
7C0100
ENDCHAR
STARTCHAR c79
ENCODING -1 79
SWIDTH 677 0
DWIDTH 21 0
BBX 17 17 2 0
BITMAP
07F000
1C1C00
300600
700700
600300
E00380
C00180
E00380
C00180
E00380
C00180
E00380
600300
700700
300600
1C1C00
07F000
ENDCHAR
STARTCHAR c80
ENCODING -1 80
SWIDTH 516 0
DWIDTH 16 0
BBX 13 17 2 0
BITMAP
FFC0
3030
3018
3018
3018
3018
3010
3030
3FC0
3000
3000
3000
3000
3000
3000
3000
FC00
ENDCHAR
STARTCHAR c81
ENCODING -1 81
SWIDTH 677 0
DWIDTH 21 0
BBX 17 22 2 -5
BITMAP
07F000
1C1C00
300600
700700
600300
E00380
C00180
E00380
C00180
E00380
C00180
E00380
600300
700700
300600
1C1C00
07F000
007000
003800
001C00
000E00
000380
ENDCHAR
STARTCHAR c82
ENCODING -1 82
SWIDTH 548 0
DWIDTH 17 0
BBX 15 17 2 0
BITMAP
FFC0
3060
3030
3030
3030
3030
3030
3060
3F80
3380
3180
31C0
30E0
3060
3070
3038
FC3E
ENDCHAR
STARTCHAR c83
ENCODING -1 83
SWIDTH 483 0
DWIDTH 15 0
BBX 11 17 2 0
BITMAP
3FA0
60E0
C060
C020
C020
E020
7800
3E00
0F80
03C0
00E0
8060
8060
8060
C060
E0C0
BF80
ENDCHAR
STARTCHAR c84
ENCODING -1 84
SWIDTH 516 0
DWIDTH 16 0
BBX 14 17 1 0
BITMAP
FFFC
E31C
8304
8304
0300
0300
0300
0300
0300
0300
0300
0300
0300
0300
0300
0300
0FC0
ENDCHAR
STARTCHAR c85
ENCODING -1 85
SWIDTH 645 0
DWIDTH 20 0
BBX 16 17 2 0
BITMAP
FC1F
3004
3004
3004
3004
3004
3004
3004
3004
3004
3004
3004
3004
300C
1808
1C38
07E0
ENDCHAR
STARTCHAR c86
ENCODING -1 86
SWIDTH 548 0
DWIDTH 17 0
BBX 16 17 1 0
BITMAP
F81F
3004
3004
3808
1808
1808
1C10
0C10
0C10
0620
0620
0640
0340
0340
0380
0180
0180
ENDCHAR
STARTCHAR c87
ENCODING -1 87
SWIDTH 806 0
DWIDTH 25 0
BBX 25 17 0 0
BITMAP
FC7C0F80
30180200
30180200
381C0400
180C0400
180C0400
1C0E0800
0C160800
0C161000
06231000
06231000
06232000
0341A000
0341A000
0180C000
0180C000
0180C000
ENDCHAR
STARTCHAR c88
ENCODING -1 88
SWIDTH 580 0
DWIDTH 18 0
BBX 16 17 1 0
BITMAP
FE3F
380C
1808
1C10
0E20
0620
0740
0380
0180
01C0
02E0
0460
0870
0838
1018
301C
F87F
ENDCHAR
STARTCHAR c89
ENCODING -1 89
SWIDTH 516 0
DWIDTH 16 0
BBX 16 17 0 0
BITMAP
FE3F
380C
1808
1C18
0C10
0620
0620
0340
0340
0180
0180
0180
0180
0180
0180
0180
07E0
ENDCHAR
STARTCHAR c90
ENCODING -1 90
SWIDTH 516 0
DWIDTH 16 0
BBX 13 17 1 0
BITMAP
7FF8
7030
4070
4060
00C0
01C0
0180
0300
0700
0600
0C00
1C00
1808
3008
7018
6070
FFF0
ENDCHAR
STARTCHAR c91
ENCODING -1 91
SWIDTH 290 0
DWIDTH 9 0
BBX 5 23 2 -5
BITMAP
F8
C0
C0
C0
C0
C0
C0
C0
C0
C0
C0
C0
C0
C0
C0
C0
C0
C0
C0
C0
C0
C0
F8
ENDCHAR
STARTCHAR c92
ENCODING -1 92
SWIDTH 419 0
DWIDTH 13 0
BBX 9 17 1 0
BITMAP
8000
8000
4000
4000
2000
2000
1000
1000
0800
0400
0400
0200
0200
0100
0100
0080
0080
ENDCHAR
STARTCHAR c93
ENCODING -1 93
SWIDTH 290 0
DWIDTH 9 0
BBX 5 23 1 -5
BITMAP
F8
18
18
18
18
18
18
18
18
18
18
18
18
18
18
18
18
18
18
18
18
18
F8
ENDCHAR
STARTCHAR c94
ENCODING -1 94
SWIDTH 451 0
DWIDTH 14 0
BBX 11 13 1 0
BITMAP
0400
0E00
1500
2480
4440
8420
0400
0400
0400
0400
0400
0400
0400
ENDCHAR
STARTCHAR c95
ENCODING -1 95
SWIDTH 483 0
DWIDTH 15 0
BBX 12 1 1 -1
BITMAP
FFF0
ENDCHAR
STARTCHAR c96
ENCODING -1 96
SWIDTH 419 0
DWIDTH 13 0
BBX 4 5 4 14
BITMAP
C0
C0
60
20
10
ENDCHAR
STARTCHAR c97
ENCODING -1 97
SWIDTH 419 0
DWIDTH 13 0
BBX 10 12 2 0
BITMAP
1E00
6300
C300
C300
0300
0F00
3300
4300
C300
C300
E5C0
7980
ENDCHAR
STARTCHAR c98
ENCODING -1 98
SWIDTH 483 0
DWIDTH 15 0
BBX 13 18 0 0
BITMAP
3000
F000
3000
3000
3000
3000
33C0
3470
3830
3018
3018
3018
3018
3018
3010
3030
3860
2F80
ENDCHAR
STARTCHAR c99
ENCODING -1 99
SWIDTH 419 0
DWIDTH 13 0
BBX 10 12 1 0
BITMAP
0F40
31C0
6040
4040
C000
C000
C000
C000
C000
6040
7080
1F00
ENDCHAR
STARTCHAR c100
ENCODING -1 100
SWIDTH 483 0
DWIDTH 15 0
BBX 13 18 1 0
BITMAP
0060
01E0
0060
0060
0060
0060
0FE0
30E0
6060
4060
C060
C060
C060
C060
C060
60E0
7178
1E60
ENDCHAR
STARTCHAR c101
ENCODING -1 101
SWIDTH 419 0
DWIDTH 13 0
BBX 10 12 1 0
BITMAP
1F00
2180
40C0
40C0
FFC0
C000
C000
C000
C000
6040
7080
3F00
ENDCHAR
STARTCHAR c102
ENCODING -1 102
SWIDTH 258 0
DWIDTH 8 0
BBX 8 18 0 0
BITMAP
0E
13
33
30
30
30
FF
30
30
30
30
30
30
30
30
30
30
FC
ENDCHAR
STARTCHAR c103
ENCODING -1 103
SWIDTH 387 0
DWIDTH 12 0
BBX 11 18 0 -6
BITMAP
0FE0
3180
20C0
60C0
60C0
6080
7180
3E00
2000
4000
FF80
FFC0
20E0
4060
C060
C040
C0C0
7F00
ENDCHAR
STARTCHAR c104
ENCODING -1 104
SWIDTH 483 0
DWIDTH 15 0
BBX 14 18 0 0
BITMAP
3000
F000
3000
3000
3000
3000
33E0
3430
3830
3030
3030
3030
3030
3030
3030
3030
3030
FCFC
ENDCHAR
STARTCHAR c105
ENCODING -1 105
SWIDTH 225 0
DWIDTH 7 0
BBX 6 17 0 0
BITMAP
30
30
00
00
00
30
F0
30
30
30
30
30
30
30
30
30
FC
ENDCHAR
STARTCHAR c106
ENCODING -1 106
SWIDTH 225 0
DWIDTH 7 0
BBX 4 23 0 -6
BITMAP
30
30
00
00
00
30
F0
30
30
30
30
30
30
30
30
30
30
30
30
30
B0
A0
C0
ENDCHAR
STARTCHAR c107
ENCODING -1 107
SWIDTH 419 0
DWIDTH 13 0
BBX 12 18 0 0
BITMAP
3000
F000
3000
3000
3000
3000
31F0
3040
3080
3100
3200
3400
3E00
3300
3380
31C0
30C0
FCF0
ENDCHAR
STARTCHAR c108
ENCODING -1 108
SWIDTH 225 0
DWIDTH 7 0
BBX 6 18 0 0
BITMAP
30
F0
30
30
30
30
30
30
30
30
30
30
30
30
30
30
30
FC
ENDCHAR
STARTCHAR c109
ENCODING -1 109
SWIDTH 741 0
DWIDTH 23 0
BBX 22 12 0 0
BITMAP
33E3E0
F43430
383830
303030
303030
303030
303030
303030
303030
303030
303030
FCFCFC
ENDCHAR
STARTCHAR c110
ENCODING -1 110
SWIDTH 483 0
DWIDTH 15 0
BBX 14 12 0 0
BITMAP
33E0
F430
3830
3030
3030
3030
3030
3030
3030
3030
3030
FCFC
ENDCHAR
STARTCHAR c111
ENCODING -1 111
SWIDTH 483 0
DWIDTH 15 0
BBX 12 12 1 0
BITMAP
0F80
30E0
6060
4030
C030
C030
C030
C030
C020
6060
70C0
1F00
ENDCHAR
STARTCHAR c112
ENCODING -1 112
SWIDTH 483 0
DWIDTH 15 0
BBX 13 18 0 -6
BITMAP
33C0
F470
3830
3018
3018
3018
3018
3018
3010
3030
3860
3F80
3000
3000
3000
3000
3000
FC00
ENDCHAR
STARTCHAR c113
ENCODING -1 113
SWIDTH 483 0
DWIDTH 15 0
BBX 13 18 1 -6
BITMAP
0FA0
30E0
6060
4060
C060
C060
C060
C060
C060
60E0
7160
1E60
0060
0060
0060
0060
0060
01F8
ENDCHAR
STARTCHAR c114
ENCODING -1 114
SWIDTH 290 0
DWIDTH 9 0
BBX 9 12 0 0
BITMAP
3180
F380
3580
3800
3000
3000
3000
3000
3000
3000
3000
FC00
ENDCHAR
STARTCHAR c115
ENCODING -1 115
SWIDTH 354 0
DWIDTH 11 0
BBX 8 12 1 0
BITMAP
3D
43
C1
C1
E0
78
1E
07
83
83
C2
BC
ENDCHAR
STARTCHAR c116
ENCODING -1 116
SWIDTH 290 0
DWIDTH 9 0
BBX 9 15 0 0
BITMAP
1000
1000
3000
FF00
3000
3000
3000
3000
3000
3000
3000
3000
3080
3100
1E00
ENDCHAR
STARTCHAR c117
ENCODING -1 117
SWIDTH 483 0
DWIDTH 15 0
BBX 14 12 0 0
BITMAP
F0F0
3030
3030
3030
3030
3030
3030
3030
3030
3070
30BC
1F30
ENDCHAR
STARTCHAR c118
ENCODING -1 118
SWIDTH 419 0
DWIDTH 13 0
BBX 13 12 0 0
BITMAP
F8F8
6020
6020
3040
3040
3040
1880
1880
0D00
0D00
0600
0600
ENDCHAR
STARTCHAR c119
ENCODING -1 119
SWIDTH 645 0
DWIDTH 20 0
BBX 20 12 0 0
BITMAP
F1F9F0
606040
606040
307080
30B080
30B080
191900
191900
1A1A00
0A0A00
0C0C00
0C0C00
ENDCHAR
STARTCHAR c120
ENCODING -1 120
SWIDTH 419 0
DWIDTH 13 0
BBX 12 12 0 0
BITMAP
FDF0
3040
1880
1900
0D00
0600
0600
0B00
0980
1180
20C0
FBF0
ENDCHAR
STARTCHAR c121
ENCODING -1 121
SWIDTH 419 0
DWIDTH 13 0
BBX 13 18 0 -6
BITMAP
F8F8
6020
6020
3040
3040
3040
1880
1880
0D00
0D00
0600
0600
0200
0400
0400
0800
7800
7000
ENDCHAR
STARTCHAR c122
ENCODING -1 122
SWIDTH 387 0
DWIDTH 12 0
BBX 10 12 0 0
BITMAP
7FC0
7180
4180
4300
0600
0E00
1C00
1840
3040
60C0
6380
FF80
ENDCHAR
STARTCHAR c123
ENCODING -1 123
SWIDTH 290 0
DWIDTH 9 0
BBX 8 25 0 -6
BITMAP
07
08
18
18
18
18
18
18
18
18
10
10
E0
10
10
18
18
18
18
18
18
18
18
08
07
ENDCHAR
STARTCHAR c124
ENCODING -1 124
SWIDTH 290 0
DWIDTH 9 0
BBX 2 23 3 -5
BITMAP
C0
C0
C0
C0
C0
C0
C0
C0
C0
C0
C0
C0
C0
C0
C0
C0
C0
C0
C0
C0
C0
C0
C0
ENDCHAR
STARTCHAR c125
ENCODING -1 125
SWIDTH 290 0
DWIDTH 9 0
BBX 8 25 0 -6
BITMAP
E0
10
18
18
18
18
18
18
18
18
08
08
07
08
08
18
18
18
18
18
18
18
18
10
E0
ENDCHAR
STARTCHAR c126
ENCODING -1 126
SWIDTH 483 0
DWIDTH 15 0
BBX 13 4 1 4
BITMAP
3C08
4608
8310
81E0
ENDCHAR
STARTCHAR c128
ENCODING -1 128
SWIDTH 548 0
DWIDTH 17 0
BBX 16 20 0 0
BITMAP
0C30
0C30
0000
0180
0180
01C0
02C0
02C0
0260
0460
0460
0830
0830
0FF8
1018
1018
101C
200C
200C
F81F
ENDCHAR
STARTCHAR c129
ENCODING -1 129
SWIDTH 677 0
DWIDTH 21 0
BBX 17 20 2 0
BITMAP
063000
063000
000000
07F000
1C1C00
300600
700700
600300
E00380
C00180
E00380
C00180
E00380
C00180
E00380
600300
700700
300600
1C1C00
07F000
ENDCHAR
STARTCHAR c130
ENCODING -1 130
SWIDTH 645 0
DWIDTH 20 0
BBX 16 20 2 0
BITMAP
0630
0630
0000
FC1F
3004
3004
3004
3004
3004
3004
3004
3004
3004
3004
3004
3004
300C
1808
1C38
07E0
ENDCHAR
STARTCHAR c131
ENCODING -1 131
SWIDTH 419 0
DWIDTH 13 0
BBX 10 16 2 0
BITMAP
6300
6300
0000
0000
1E00
6300
C300
C300
0300
0F00
3300
4300
C300
C300
E5C0
7980
ENDCHAR
STARTCHAR c132
ENCODING -1 132
SWIDTH 483 0
DWIDTH 15 0
BBX 12 16 1 0
BITMAP
30C0
30C0
0000
0000
0F80
30E0
6060
4030
C030
C030
C030
C030
C020
6060
70C0
1F00
ENDCHAR
STARTCHAR c133
ENCODING -1 133
SWIDTH 483 0
DWIDTH 15 0
BBX 14 16 0 0
BITMAP
1860
1860
0000
0000
F0F0
3030
3030
3030
3030
3030
3030
3030
3030
3070
30BC
1F30
ENDCHAR
STARTCHAR c134
ENCODING -1 134
SWIDTH 419 0
DWIDTH 13 0
BBX 10 19 2 0
BITMAP
1C00
1C00
3600
2200
4100
0000
0000
1E00
6300
C300
C300
0300
0F00
3300
4300
C300
C300
E5C0
7980
ENDCHAR
STARTCHAR c135
ENCODING -1 135
SWIDTH 419 0
DWIDTH 13 0
BBX 10 19 1 0
BITMAP
0E00
0E00
1B00
1100
2080
0000
0000
1F00
2180
40C0
40C0
FFC0
C000
C000
C000
C000
6040
7080
3F00
ENDCHAR
STARTCHAR c136
ENCODING -1 136
SWIDTH 225 0
DWIDTH 7 0
BBX 6 19 0 0
BITMAP
30
30
78
48
84
00
00
30
F0
30
30
30
30
30
30
30
30
30
FC
ENDCHAR
STARTCHAR c137
ENCODING -1 137
SWIDTH 483 0
DWIDTH 15 0
BBX 12 19 1 0
BITMAP
0700
0700
0D80
0880
1040
0000
0000
0F80
30E0
6060
4030
C030
C030
C030
C030
C020
6060
70C0
1F00
ENDCHAR
STARTCHAR c138
ENCODING -1 138
SWIDTH 483 0
DWIDTH 15 0
BBX 14 19 0 0
BITMAP
0700
0700
0D80
0880
1040
0000
0000
F0F0
3030
3030
3030
3030
3030
3030
3030
3030
3070
30BC
1F30
ENDCHAR
STARTCHAR c139
ENCODING -1 139
SWIDTH 419 0
DWIDTH 13 0
BBX 10 19 2 0
BITMAP
3000
3000
1800
0800
0400
0000
0000
1E00
6300
C300
C300
0300
0F00
3300
4300
C300
C300
E5C0
7980
ENDCHAR
STARTCHAR c140
ENCODING -1 140
SWIDTH 419 0
DWIDTH 13 0
BBX 10 19 1 0
BITMAP
1800
1800
0C00
0400
0200
0000
0000
1F00
2180
40C0
40C0
FFC0
C000
C000
C000
C000
6040
7080
3F00
ENDCHAR
STARTCHAR c141
ENCODING -1 141
SWIDTH 225 0
DWIDTH 7 0
BBX 6 19 0 0
BITMAP
60
60
30
10
08
00
00
30
F0
30
30
30
30
30
30
30
30
30
FC
ENDCHAR
STARTCHAR c142
ENCODING -1 142
SWIDTH 483 0
DWIDTH 15 0
BBX 12 19 1 0
BITMAP
1800
1800
0C00
0400
0200
0000
0000
0F80
30E0
6060
4030
C030
C030
C030
C030
C020
6060
70C0
1F00
ENDCHAR
STARTCHAR c143
ENCODING -1 143
SWIDTH 483 0
DWIDTH 15 0
BBX 14 19 0 0
BITMAP
0C00
0C00
0600
0200
0100
0000
0000
F0F0
3030
3030
3030
3030
3030
3030
3030
3030
3070
30BC
1F30
ENDCHAR
STARTCHAR c144
ENCODING -1 144
SWIDTH 419 0
DWIDTH 13 0
BBX 10 19 1 0
BITMAP
0300
0300
0600
0400
0800
0000
0000
1F00
2180
40C0
40C0
FFC0
C000
C000
C000
C000
6040
7080
3F00
ENDCHAR
STARTCHAR c145
ENCODING -1 145
SWIDTH 419 0
DWIDTH 13 0
BBX 10 16 1 0
BITMAP
3180
3180
0000
0000
1F00
2180
40C0
40C0
FFC0
C000
C000
C000
C000
6040
7080
3F00
ENDCHAR
STARTCHAR c146
ENCODING -1 146
SWIDTH 225 0
DWIDTH 7 0
BBX 6 16 0 0
BITMAP
CC
CC
00
00
30
F0
30
30
30
30
30
30
30
30
30
FC
ENDCHAR
STARTCHAR c147
ENCODING -1 147
SWIDTH 419 0
DWIDTH 13 0
BBX 10 17 1 -5
BITMAP
0F40
31C0
6040
4040
C000
C000
C000
C000
C000
6040
7080
1F00
0000
0C00
0400
0400
0800
ENDCHAR
STARTCHAR c148
ENCODING -1 148
SWIDTH 419 0
DWIDTH 13 0
BBX 10 19 2 0
BITMAP
0600
0600
0C00
0800
1000
0000
0000
1E00
6300
C300
C300
0300
0F00
3300
4300
C300
C300
E5C0
7980
ENDCHAR
STARTCHAR c149
ENCODING -1 149
SWIDTH 483 0
DWIDTH 15 0
BBX 14 17 0 0
BITMAP
0E20
1320
11C0
0000
0000
33E0
F430
3830
3030
3030
3030
3030
3030
3030
3030
3030
FCFC
ENDCHAR
STARTCHAR c155
ENCODING -1 155
SWIDTH 483 0
DWIDTH 15 0
BBX 15 1 0 5
BITMAP
FFFE
ENDCHAR
STARTCHAR c159
ENCODING -1 159
SWIDTH 419 0
DWIDTH 13 0
BBX 0 0 0 0
BITMAP
ENDCHAR
ENDFONT
