STARTFONT 2.1
COMMENT converted Oberon font (using FontToBDF by R.Crelier 10.1.91)
FONT Math14.Scn.Fnt
SIZE 14 75 75
FONTBOUNDINGBOX  14 16 0 -4
STARTPROPERTIES 3
FONT_ASCENT 12
FONT_DESCENT 4
DEFAULT_CHAR 0
ENDPROPERTIES
CHARS 97
STARTCHAR c0
ENCODING -1 0
SWIDTH 0 0
DWIDTH 0 0
BBX 0 0 0 0
BITMAP
ENDCHAR
STARTCHAR c9
ENCODING -1 9
SWIDTH 516 0
DWIDTH 16 0
BBX 0 0 0 0
BITMAP
ENDCHAR
STARTCHAR c32
ENCODING -1 32
SWIDTH 290 0
DWIDTH 9 0
BBX 7 10 1 0
BITMAP
1E
30
50
90
90
90
90
90
52
3C
ENDCHAR
STARTCHAR c33
ENCODING -1 33
SWIDTH 354 0
DWIDTH 11 0
BBX 9 10 2 0
BITMAP
FE00
9100
9100
9100
9200
9C00
9200
9300
9100
9080
ENDCHAR
STARTCHAR c34
ENCODING -1 34
SWIDTH 96 0
DWIDTH 3 0
BBX 1 3 1 7
BITMAP
80
80
80
ENDCHAR
STARTCHAR c35
ENCODING -1 35
SWIDTH 290 0
DWIDTH 9 0
BBX 7 9 1 0
BITMAP
06
18
60
80
60
18
06
00
FE
ENDCHAR
STARTCHAR c36
ENCODING -1 36
SWIDTH 258 0
DWIDTH 8 0
BBX 8 13 0 -1
BITMAP
01
01
02
02
04
08
08
10
20
20
40
80
80
ENDCHAR
STARTCHAR c37
ENCODING -1 37
SWIDTH 419 0
DWIDTH 13 0
BBX 11 5 1 2
BITMAP
71C0
8A20
8420
8A20
71C0
ENDCHAR
STARTCHAR c38
ENCODING -1 38
SWIDTH 129 0
DWIDTH 4 0
BBX 2 2 1 8
BITMAP
C0
C0
ENDCHAR
STARTCHAR c39
ENCODING -1 39
SWIDTH 290 0
DWIDTH 9 0
BBX 8 8 0 0
BITMAP
1F
03
05
09
11
20
40
80
ENDCHAR
STARTCHAR c40
ENCODING -1 40
SWIDTH 290 0
DWIDTH 9 0
BBX 8 8 1 0
BITMAP
F8
C0
A0
90
88
04
02
01
ENDCHAR
STARTCHAR c41
ENCODING -1 41
SWIDTH 290 0
DWIDTH 9 0
BBX 8 8 1 0
BITMAP
01
02
04
88
90
A0
C0
F8
ENDCHAR
STARTCHAR c42
ENCODING -1 42
SWIDTH 290 0
DWIDTH 9 0
BBX 8 8 0 0
BITMAP
80
40
20
11
09
05
03
1F
ENDCHAR
STARTCHAR c43
ENCODING -1 43
SWIDTH 419 0
DWIDTH 13 0
BBX 11 5 1 2
BITMAP
2080
4040
FFE0
4040
2080
ENDCHAR
STARTCHAR c44
ENCODING -1 44
SWIDTH 354 0
DWIDTH 11 0
BBX 9 5 1 2
BITMAP
2000
4000
FF80
4000
2000
ENDCHAR
STARTCHAR c45
ENCODING -1 45
SWIDTH 225 0
DWIDTH 7 0
BBX 5 9 1 0
BITMAP
20
70
A8
20
20
20
20
20
20
ENDCHAR
STARTCHAR c46
ENCODING -1 46
SWIDTH 354 0
DWIDTH 11 0
BBX 9 5 1 2
BITMAP
0200
0100
FF80
0100
0200
ENDCHAR
STARTCHAR c47
ENCODING -1 47
SWIDTH 225 0
DWIDTH 7 0
BBX 5 9 1 0
BITMAP
20
20
20
20
20
20
A8
70
20
ENDCHAR
STARTCHAR c48
ENCODING -1 48
SWIDTH 193 0
DWIDTH 6 0
BBX 4 4 1 6
BITMAP
60
90
90
60
ENDCHAR
STARTCHAR c49
ENCODING -1 49
SWIDTH 290 0
DWIDTH 9 0
BBX 7 9 1 0
BITMAP
10
10
10
FE
10
10
10
00
FE
ENDCHAR
STARTCHAR c50
ENCODING -1 50
SWIDTH 161 0
DWIDTH 5 0
BBX 3 3 1 7
BITMAP
A0
A0
A0
ENDCHAR
STARTCHAR c51
ENCODING -1 51
SWIDTH 290 0
DWIDTH 9 0
BBX 7 9 1 0
BITMAP
C0
30
0C
02
0C
30
C0
00
FE
ENDCHAR
STARTCHAR c52
ENCODING -1 52
SWIDTH 322 0
DWIDTH 10 0
BBX 8 8 1 0
BITMAP
81
42
24
18
18
24
42
81
ENDCHAR
STARTCHAR c53
ENCODING -1 53
SWIDTH 354 0
DWIDTH 11 0
BBX 9 5 1 2
BITMAP
7180
8A00
8400
8A00
7180
ENDCHAR
STARTCHAR c54
ENCODING -1 54
SWIDTH 258 0
DWIDTH 8 0
BBX 6 10 1 0
BITMAP
E0
10
08
04
74
84
84
84
88
70
ENDCHAR
STARTCHAR c55
ENCODING -1 55
SWIDTH 225 0
DWIDTH 7 0
BBX 3 3 2 3
BITMAP
E0
E0
E0
ENDCHAR
STARTCHAR c56
ENCODING -1 56
SWIDTH 290 0
DWIDTH 9 0
BBX 7 7 1 0
BITMAP
10
10
00
FE
00
10
10
ENDCHAR
STARTCHAR c57
ENCODING -1 57
SWIDTH 290 0
DWIDTH 9 0
BBX 7 9 1 0
BITMAP
08
08
08
FE
10
FE
20
20
20
ENDCHAR
STARTCHAR c58
ENCODING -1 58
SWIDTH 290 0
DWIDTH 9 0
BBX 7 5 1 2
BITMAP
FE
00
FE
00
FE
ENDCHAR
STARTCHAR c59
ENCODING -1 59
SWIDTH 290 0
DWIDTH 9 0
BBX 7 6 1 2
BITMAP
62
92
8C
62
92
8C
ENDCHAR
STARTCHAR c60
ENCODING -1 60
SWIDTH 290 0
DWIDTH 9 0
BBX 7 2 1 0
BITMAP
92
92
ENDCHAR
STARTCHAR c61
ENCODING -1 61
SWIDTH 161 0
DWIDTH 5 0
BBX 1 16 2 -4
BITMAP
80
80
80
80
80
80
80
80
80
80
80
80
80
80
80
80
ENDCHAR
STARTCHAR c62
ENCODING -1 62
SWIDTH 225 0
DWIDTH 7 0
BBX 7 1 0 4
BITMAP
FE
ENDCHAR
STARTCHAR c63
ENCODING -1 63
SWIDTH 322 0
DWIDTH 10 0
BBX 8 7 1 -4
BITMAP
01
01
21
41
FF
40
20
ENDCHAR
STARTCHAR c64
ENCODING -1 64
SWIDTH 354 0
DWIDTH 11 0
BBX 9 10 1 0
BITMAP
4380
6100
2100
3200
4A00
4A00
4600
4200
2300
C100
ENDCHAR
STARTCHAR c65
ENCODING -1 65
SWIDTH 290 0
DWIDTH 9 0
BBX 7 10 1 0
BITMAP
38
46
84
88
44
04
02
42
A2
1C
ENDCHAR
STARTCHAR c66
ENCODING -1 66
SWIDTH 387 0
DWIDTH 12 0
BBX 10 10 1 0
BITMAP
6300
9480
8880
8900
4E00
8900
0900
1080
5080
A0C0
ENDCHAR
STARTCHAR c67
ENCODING -1 67
SWIDTH 322 0
DWIDTH 10 0
BBX 8 12 1 -4
BITMAP
8E
91
A1
A1
41
41
42
4C
A0
A0
A0
40
ENDCHAR
STARTCHAR c68
ENCODING -1 68
SWIDTH 354 0
DWIDTH 11 0
BBX 9 9 1 0
BITMAP
3E00
4100
A280
9480
8880
9480
A280
4100
3E00
ENDCHAR
STARTCHAR c69
ENCODING -1 69
SWIDTH 354 0
DWIDTH 11 0
BBX 9 9 1 0
BITMAP
3E00
4100
8880
8880
BE80
8880
8880
4100
3E00
ENDCHAR
STARTCHAR c70
ENCODING -1 70
SWIDTH 322 0
DWIDTH 10 0
BBX 8 12 1 -2
BITMAP
04
04
3C
4A
89
89
91
91
52
3C
20
20
ENDCHAR
STARTCHAR c71
ENCODING -1 71
SWIDTH 290 0
DWIDTH 9 0
BBX 7 6 1 1
BITMAP
38
44
82
82
82
82
ENDCHAR
STARTCHAR c72
ENCODING -1 72
SWIDTH 290 0
DWIDTH 9 0
BBX 7 6 1 1
BITMAP
82
82
82
82
44
38
ENDCHAR
STARTCHAR c73
ENCODING -1 73
SWIDTH 225 0
DWIDTH 7 0
BBX 5 8 1 0
BITMAP
E0
10
08
08
08
08
10
E0
ENDCHAR
STARTCHAR c74
ENCODING -1 74
SWIDTH 193 0
DWIDTH 6 0
BBX 4 8 1 0
BITMAP
E0
10
10
10
10
E0
00
F0
ENDCHAR
STARTCHAR c75
ENCODING -1 75
SWIDTH 258 0
DWIDTH 8 0
BBX 6 12 1 -2
BITMAP
08
08
3C
48
88
88
90
90
50
3C
10
10
ENDCHAR
STARTCHAR c76
ENCODING -1 76
SWIDTH 225 0
DWIDTH 7 0
BBX 5 8 1 0
BITMAP
38
40
80
80
80
80
40
38
ENDCHAR
STARTCHAR c77
ENCODING -1 77
SWIDTH 193 0
DWIDTH 6 0
BBX 4 8 1 0
BITMAP
70
80
80
80
80
70
00
F0
ENDCHAR
STARTCHAR c78
ENCODING -1 78
SWIDTH 225 0
DWIDTH 7 0
BBX 5 8 1 0
BITMAP
38
40
80
F8
80
80
40
38
ENDCHAR
STARTCHAR c79
ENCODING -1 79
SWIDTH 225 0
DWIDTH 7 0
BBX 5 12 1 -2
BITMAP
10
10
38
50
90
F8
A0
A0
60
38
20
20
ENDCHAR
STARTCHAR c80
ENCODING -1 80
SWIDTH 322 0
DWIDTH 10 0
BBX 8 9 1 -2
BITMAP
22
14
08
18
24
44
FF
04
04
ENDCHAR
STARTCHAR c81
ENCODING -1 81
SWIDTH 290 0
DWIDTH 9 0
BBX 9 10 0 0
BITMAP
FF80
8080
4100
4100
2200
2200
1400
1400
0800
0800
ENDCHAR
STARTCHAR c82
ENCODING -1 82
SWIDTH 290 0
DWIDTH 9 0
BBX 9 10 0 0
BITMAP
8080
8080
4100
7F00
2200
2200
1400
1400
0800
0800
ENDCHAR
STARTCHAR c83
ENCODING -1 83
SWIDTH 258 0
DWIDTH 8 0
BBX 5 10 1 0
BITMAP
F8
08
08
08
F8
08
08
08
08
F8
ENDCHAR
STARTCHAR c84
ENCODING -1 84
SWIDTH 225 0
DWIDTH 7 0
BBX 5 8 1 0
BITMAP
E0
10
08
F8
08
08
10
E0
ENDCHAR
STARTCHAR c85
ENCODING -1 85
SWIDTH 322 0
DWIDTH 10 0
BBX 6 10 2 0
BITMAP
FC
84
84
84
84
84
84
84
84
84
ENDCHAR
STARTCHAR c86
ENCODING -1 86
SWIDTH 258 0
DWIDTH 8 0
BBX 7 12 1 0
BITMAP
02
02
02
04
04
E4
28
28
28
10
10
10
ENDCHAR
STARTCHAR c87
ENCODING -1 87
SWIDTH 129 0
DWIDTH 4 0
BBX 2 2 1 3
BITMAP
C0
C0
ENDCHAR
STARTCHAR c88
ENCODING -1 88
SWIDTH 290 0
DWIDTH 9 0
BBX 7 4 1 1
BITMAP
FE
02
02
02
ENDCHAR
STARTCHAR c89
ENCODING -1 89
SWIDTH 258 0
DWIDTH 8 0
BBX 7 8 1 0
BITMAP
10
10
28
28
44
44
82
82
ENDCHAR
STARTCHAR c90
ENCODING -1 90
SWIDTH 258 0
DWIDTH 8 0
BBX 7 8 1 0
BITMAP
82
82
44
44
28
28
10
10
ENDCHAR
STARTCHAR c91
ENCODING -1 91
SWIDTH 483 0
DWIDTH 15 0
BBX 13 8 1 0
BITMAP
1040
2020
7FF0
8008
8008
7FF0
2020
1040
ENDCHAR
STARTCHAR c92
ENCODING -1 92
SWIDTH 387 0
DWIDTH 12 0
BBX 10 8 1 0
BITMAP
1000
2000
7FC0
8000
8000
7FC0
2000
1000
ENDCHAR
STARTCHAR c93
ENCODING -1 93
SWIDTH 290 0
DWIDTH 9 0
BBX 8 10 1 0
BITMAP
18
24
66
A5
24
24
24
24
24
24
ENDCHAR
STARTCHAR c94
ENCODING -1 94
SWIDTH 387 0
DWIDTH 12 0
BBX 10 8 1 0
BITMAP
0200
0100
FF80
0040
0040
FF80
0100
0200
ENDCHAR
STARTCHAR c95
ENCODING -1 95
SWIDTH 290 0
DWIDTH 9 0
BBX 8 10 1 0
BITMAP
24
24
24
24
24
24
A5
66
24
18
ENDCHAR
STARTCHAR c96
ENCODING -1 96
SWIDTH 258 0
DWIDTH 8 0
BBX 4 8 2 0
BITMAP
F0
F0
F0
F0
F0
F0
F0
F0
ENDCHAR
STARTCHAR c97
ENCODING -1 97
SWIDTH 161 0
DWIDTH 5 0
BBX 3 13 1 -2
BITMAP
20
20
40
40
40
80
80
80
40
40
40
20
20
ENDCHAR
STARTCHAR c98
ENCODING -1 98
SWIDTH 290 0
DWIDTH 9 0
BBX 7 7 1 1
BITMAP
80
80
80
FE
80
80
80
ENDCHAR
STARTCHAR c99
ENCODING -1 99
SWIDTH 290 0
DWIDTH 9 0
BBX 7 8 1 0
BITMAP
80
80
FE
80
80
FE
80
80
ENDCHAR
STARTCHAR c100
ENCODING -1 100
SWIDTH 290 0
DWIDTH 9 0
BBX 7 7 1 1
BITMAP
02
02
02
FE
02
02
02
ENDCHAR
STARTCHAR c101
ENCODING -1 101
SWIDTH 290 0
DWIDTH 9 0
BBX 7 10 1 0
BITMAP
FE
40
20
10
08
08
10
20
40
FE
ENDCHAR
STARTCHAR c102
ENCODING -1 102
SWIDTH 290 0
DWIDTH 9 0
BBX 8 7 0 0
BITMAP
03
0C
31
C6
31
0C
03
ENDCHAR
STARTCHAR c103
ENCODING -1 103
SWIDTH 290 0
DWIDTH 9 0
BBX 8 7 1 0
BITMAP
C0
30
8C
63
8C
30
C0
ENDCHAR
STARTCHAR c104
ENCODING -1 104
SWIDTH 193 0
DWIDTH 6 0
BBX 4 8 1 0
BITMAP
F0
80
80
80
80
80
80
80
ENDCHAR
STARTCHAR c105
ENCODING -1 105
SWIDTH 193 0
DWIDTH 6 0
BBX 4 8 1 0
BITMAP
F0
10
10
10
10
10
10
10
ENDCHAR
STARTCHAR c106
ENCODING -1 106
SWIDTH 193 0
DWIDTH 6 0
BBX 4 8 1 0
BITMAP
80
80
80
80
80
80
80
F0
ENDCHAR
STARTCHAR c107
ENCODING -1 107
SWIDTH 193 0
DWIDTH 6 0
BBX 4 8 1 0
BITMAP
10
10
10
10
10
10
10
F0
ENDCHAR
STARTCHAR c108
ENCODING -1 108
SWIDTH 225 0
DWIDTH 7 0
BBX 3 8 2 0
BITMAP
A0
A0
A0
A0
A0
A0
A0
A0
ENDCHAR
STARTCHAR c109
ENCODING -1 109
SWIDTH 290 0
DWIDTH 9 0
BBX 7 9 1 -1
BITMAP
FE
00
10
10
10
FE
10
10
10
ENDCHAR
STARTCHAR c110
ENCODING -1 110
SWIDTH 193 0
DWIDTH 6 0
BBX 5 9 0 0
BITMAP
08
08
10
20
C0
20
10
08
08
ENDCHAR
STARTCHAR c111
ENCODING -1 111
SWIDTH 193 0
DWIDTH 6 0
BBX 5 9 1 0
BITMAP
80
80
40
20
18
20
40
80
80
ENDCHAR
STARTCHAR c112
ENCODING -1 112
SWIDTH 290 0
DWIDTH 9 0
BBX 7 5 1 2
BITMAP
62
92
8C
00
FE
ENDCHAR
STARTCHAR c113
ENCODING -1 113
SWIDTH 161 0
DWIDTH 5 0
BBX 3 13 1 -2
BITMAP
80
80
40
40
40
20
20
20
40
40
40
80
80
ENDCHAR
STARTCHAR c114
ENCODING -1 114
SWIDTH 258 0
DWIDTH 8 0
BBX 6 12 1 -2
BITMAP
20
20
F0
28
24
24
44
44
48
F0
40
40
ENDCHAR
STARTCHAR c115
ENCODING -1 115
SWIDTH 258 0
DWIDTH 8 0
BBX 7 11 0 -4
BITMAP
18
04
02
02
02
02
22
44
F8
40
20
ENDCHAR
STARTCHAR c116
ENCODING -1 116
SWIDTH 354 0
DWIDTH 11 0
BBX 9 9 1 0
BITMAP
2000
4000
FF80
4000
2200
0100
FF80
0100
0200
ENDCHAR
STARTCHAR c117
ENCODING -1 117
SWIDTH 225 0
DWIDTH 7 0
BBX 6 9 0 -4
BITMAP
F0
10
10
10
10
10
54
38
10
ENDCHAR
STARTCHAR c118
ENCODING -1 118
SWIDTH 258 0
DWIDTH 8 0
BBX 6 13 1 -3
BITMAP
7C
80
80
40
70
8C
84
C4
38
08
04
04
F8
ENDCHAR
STARTCHAR c119
ENCODING -1 119
SWIDTH 354 0
DWIDTH 11 0
BBX 9 10 1 -1
BITMAP
1000
2000
4000
FF80
0000
0000
FF80
0100
0200
0400
ENDCHAR
STARTCHAR c120
ENCODING -1 120
SWIDTH 161 0
DWIDTH 5 0
BBX 5 16 0 -4
BITMAP
18
20
20
20
20
20
20
20
20
20
20
20
20
20
20
C0
ENDCHAR
STARTCHAR c121
ENCODING -1 121
SWIDTH 193 0
DWIDTH 6 0
BBX 5 16 1 -4
BITMAP
18
20
20
20
20
20
70
A8
A8
70
20
20
20
20
20
C0
ENDCHAR
STARTCHAR c122
ENCODING -1 122
SWIDTH 225 0
DWIDTH 7 0
BBX 5 6 1 0
BITMAP
88
88
00
00
20
20
ENDCHAR
STARTCHAR c123
ENCODING -1 123
SWIDTH 290 0
DWIDTH 9 0
BBX 7 6 1 2
BITMAP
10
10
00
FE
00
FE
ENDCHAR
STARTCHAR c124
ENCODING -1 124
SWIDTH 96 0
DWIDTH 3 0
BBX 1 2 1 7
BITMAP
80
80
ENDCHAR
STARTCHAR c125
ENCODING -1 125
SWIDTH 258 0
DWIDTH 8 0
BBX 7 12 1 -2
BITMAP
10
10
10
FE
10
10
10
10
10
10
10
10
ENDCHAR
STARTCHAR c126
ENCODING -1 126
SWIDTH 225 0
DWIDTH 7 0
BBX 5 11 1 -2
BITMAP
10
10
38
50
90
A0
A0
A8
70
20
20
ENDCHAR
ENDFONT
