STARTFONT 2.1
COMMENT converted Oberon font (using FontToBDF by R.Crelier 10.1.91)
FONT Syntax24m.Scn.Fnt
SIZE 24 75 75
FONTBOUNDINGBOX  26 27 0 -6
STARTPROPERTIES 3
FONT_ASCENT 21
FONT_DESCENT 6
DEFAULT_CHAR 0
ENDPROPERTIES
CHARS 121
STARTCHAR c0
ENCODING -1 0
SWIDTH 0 0
DWIDTH 0 0
BBX 0 0 0 0
BITMAP
ENDCHAR
STARTCHAR c9
ENCODING -1 9
SWIDTH 774 0
DWIDTH 24 0
BBX 0 0 0 0
BITMAP
ENDCHAR
STARTCHAR c32
ENCODING -1 32
SWIDTH 193 0
DWIDTH 6 0
BBX 0 0 0 0
BITMAP
ENDCHAR
STARTCHAR c33
ENCODING -1 33
SWIDTH 258 0
DWIDTH 8 0
BBX 3 18 3 0
BITMAP
E0
E0
E0
E0
E0
E0
E0
E0
E0
E0
C0
C0
00
00
00
E0
E0
E0
ENDCHAR
STARTCHAR c34
ENCODING -1 34
SWIDTH 322 0
DWIDTH 10 0
BBX 7 6 2 12
BITMAP
EE
EE
CC
CC
88
88
ENDCHAR
STARTCHAR c35
ENCODING -1 35
SWIDTH 548 0
DWIDTH 17 0
BBX 13 18 2 0
BITMAP
18C0
18C0
18C0
18C0
18C0
FFF8
FFF8
18C0
18C0
18C0
FFF8
FFF8
18C0
18C0
18C0
18C0
18C0
18C0
ENDCHAR
STARTCHAR c36
ENCODING -1 36
SWIDTH 451 0
DWIDTH 14 0
BBX 11 22 2 -2
BITMAP
0400
0400
1F80
7FE0
74E0
E400
E400
E400
F400
7C00
7F00
1FC0
07C0
05E0
04E0
04E0
04E0
E5C0
FFC0
3F00
0400
0400
ENDCHAR
STARTCHAR c37
ENCODING -1 37
SWIDTH 645 0
DWIDTH 20 0
BBX 18 19 1 -1
BITMAP
000400
3C0600
7E0C00
E70C00
C31800
C31000
C33000
E76000
7E6000
3CCF00
009F80
01B9C0
0330C0
0330C0
0630C0
0439C0
0C1F80
180F00
080000
ENDCHAR
STARTCHAR c38
ENCODING -1 38
SWIDTH 548 0
DWIDTH 17 0
BBX 15 18 2 0
BITMAP
0F80
1FC0
38C0
38C0
38C0
1D80
0F00
0718
1F98
3BD8
71F8
60F8
E070
E078
E03C
F07E
7FEE
3F8E
ENDCHAR
STARTCHAR c39
ENCODING -1 39
SWIDTH 193 0
DWIDTH 6 0
BBX 3 6 2 12
BITMAP
E0
E0
C0
C0
80
80
ENDCHAR
STARTCHAR c40
ENCODING -1 40
SWIDTH 322 0
DWIDTH 10 0
BBX 7 24 1 -5
BITMAP
06
0C
18
30
30
60
60
60
C0
C0
C0
C0
C0
C0
C0
C0
60
60
60
30
30
18
0C
06
ENDCHAR
STARTCHAR c41
ENCODING -1 41
SWIDTH 322 0
DWIDTH 10 0
BBX 7 24 2 -5
BITMAP
C0
60
30
18
18
0C
0C
0C
06
06
06
06
06
06
06
06
0C
0C
0C
18
18
30
60
C0
ENDCHAR
STARTCHAR c42
ENCODING -1 42
SWIDTH 483 0
DWIDTH 15 0
BBX 13 14 1 0
BITMAP
3060
38E0
18C0
1DC0
0D80
0700
FF78
F7F8
0700
0D80
1DC0
18C0
38E0
3060
ENDCHAR
STARTCHAR c43
ENCODING -1 43
SWIDTH 483 0
DWIDTH 15 0
BBX 14 16 0 -1
BITMAP
0300
0300
0300
0300
0300
0300
0300
FFFC
FFFC
0300
0300
0300
0300
0300
0300
0300
ENDCHAR
STARTCHAR c44
ENCODING -1 44
SWIDTH 225 0
DWIDTH 7 0
BBX 3 7 2 -4
BITMAP
E0
E0
E0
C0
C0
80
80
ENDCHAR
STARTCHAR c45
ENCODING -1 45
SWIDTH 483 0
DWIDTH 15 0
BBX 13 2 1 6
BITMAP
FFF8
FFF8
ENDCHAR
STARTCHAR c46
ENCODING -1 46
SWIDTH 258 0
DWIDTH 8 0
BBX 3 3 3 0
BITMAP
E0
E0
E0
ENDCHAR
STARTCHAR c47
ENCODING -1 47
SWIDTH 451 0
DWIDTH 14 0
BBX 13 20 1 -1
BITMAP
0018
0018
0030
0060
0060
00C0
00C0
0180
0300
0300
0600
0600
0C00
1800
1800
3000
3000
6000
C000
C000
ENDCHAR
STARTCHAR c48
ENCODING -1 48
SWIDTH 451 0
DWIDTH 14 0
BBX 12 18 1 0
BITMAP
1F80
3FC0
70E0
70E0
E070
E070
E070
E070
E070
E070
E070
E070
E070
E070
70E0
70E0
3FC0
1F80
ENDCHAR
STARTCHAR c49
ENCODING -1 49
SWIDTH 451 0
DWIDTH 14 0
BBX 8 18 1 0
BITMAP
07
0F
1F
3F
77
E7
47
07
07
07
07
07
07
07
07
07
07
07
ENDCHAR
STARTCHAR c50
ENCODING -1 50
SWIDTH 451 0
DWIDTH 14 0
BBX 12 18 0 0
BITMAP
1F00
7FC0
61C0
00E0
00E0
00E0
00E0
00E0
01C0
01C0
0380
0780
0E00
1E00
3800
7000
FFF0
FFF0
ENDCHAR
STARTCHAR c51
ENCODING -1 51
SWIDTH 451 0
DWIDTH 14 0
BBX 10 18 1 0
BITMAP
1F00
7F80
63C0
01C0
01C0
01C0
0180
0380
7E00
7F80
0380
01C0
01C0
01C0
01C0
C380
FF80
3E00
ENDCHAR
STARTCHAR c52
ENCODING -1 52
SWIDTH 451 0
DWIDTH 14 0
BBX 14 18 0 0
BITMAP
01E0
03E0
07E0
06E0
0EE0
1CE0
18E0
38E0
70E0
E0E0
FFFC
FFFC
00E0
00E0
00E0
00E0
00E0
00E0
ENDCHAR
STARTCHAR c53
ENCODING -1 53
SWIDTH 451 0
DWIDTH 14 0
BBX 11 18 1 0
BITMAP
3FE0
3FE0
7000
7000
7000
6000
E000
FF80
FFC0
E1E0
00E0
00E0
00E0
00E0
01C0
03C0
7F80
7E00
ENDCHAR
STARTCHAR c54
ENCODING -1 54
SWIDTH 451 0
DWIDTH 14 0
BBX 12 18 1 0
BITMAP
01F0
0FF0
1E00
3800
3000
7000
6000
E780
EFE0
F8E0
F070
E070
E070
E070
6070
70E0
3FE0
1F80
ENDCHAR
STARTCHAR c55
ENCODING -1 55
SWIDTH 451 0
DWIDTH 14 0
BBX 12 18 1 0
BITMAP
FFF0
FFF0
0070
00E0
00E0
01C0
01C0
0380
0700
0700
0E00
0E00
1C00
1C00
3800
3800
7000
7000
ENDCHAR
STARTCHAR c56
ENCODING -1 56
SWIDTH 451 0
DWIDTH 14 0
BBX 12 18 1 0
BITMAP
1FC0
7FE0
70F0
E070
E070
E070
F0E0
7DC0
3F00
0FC0
3DE0
70F0
E070
E070
E070
F0E0
7FE0
3F80
ENDCHAR
STARTCHAR c57
ENCODING -1 57
SWIDTH 451 0
DWIDTH 14 0
BBX 12 18 1 0
BITMAP
1F80
7FC0
70E0
E060
E070
E070
E070
E0F0
71F0
7F70
1E70
0060
00E0
00C0
01C0
0780
FF00
F800
ENDCHAR
STARTCHAR c58
ENCODING -1 58
SWIDTH 258 0
DWIDTH 8 0
BBX 3 13 3 0
BITMAP
E0
E0
E0
00
00
00
00
00
00
00
E0
E0
E0
ENDCHAR
STARTCHAR c59
ENCODING -1 59
SWIDTH 258 0
DWIDTH 8 0
BBX 3 17 3 -4
BITMAP
E0
E0
E0
00
00
00
00
00
00
00
E0
E0
E0
C0
C0
80
80
ENDCHAR
STARTCHAR c60
ENCODING -1 60
SWIDTH 483 0
DWIDTH 15 0
BBX 14 14 0 0
BITMAP
000C
003C
00F0
03C0
0F00
3C00
F000
F000
3C00
0F00
03C0
00F0
003C
000C
ENDCHAR
STARTCHAR c61
ENCODING -1 61
SWIDTH 483 0
DWIDTH 15 0
BBX 13 6 1 4
BITMAP
FFF8
FFF8
0000
0000
FFF8
FFF8
ENDCHAR
STARTCHAR c62
ENCODING -1 62
SWIDTH 483 0
DWIDTH 15 0
BBX 14 14 1 0
BITMAP
C000
F000
3C00
0F00
03C0
00F0
003C
003C
00F0
03C0
0F00
3C00
F000
C000
ENDCHAR
STARTCHAR c63
ENCODING -1 63
SWIDTH 354 0
DWIDTH 11 0
BBX 10 18 1 0
BITMAP
3F00
FF80
E3C0
01C0
01C0
01C0
01C0
0380
0700
0E00
1C00
1C00
1C00
0000
0000
1C00
1C00
1C00
ENDCHAR
STARTCHAR c64
ENCODING -1 64
SWIDTH 709 0
DWIDTH 22 0
BBX 19 20 2 -2
BITMAP
01FC00
07FF00
1E0380
3800C0
3000C0
607C60
61FC60
C39C60
C31C60
C71C60
C71C60
C71C60
C73C60
C7FC40
C7DCC0
639F80
600E00
700000
3F8000
0F8000
ENDCHAR
STARTCHAR c65
ENCODING -1 65
SWIDTH 516 0
DWIDTH 16 0
BBX 15 18 1 0
BITMAP
03C0
03C0
07C0
06E0
06E0
0EE0
0C70
1C70
1C70
3838
3FF8
3FF8
703C
701C
701C
E01E
E00E
E00E
ENDCHAR
STARTCHAR c66
ENCODING -1 66
SWIDTH 516 0
DWIDTH 16 0
BBX 11 18 3 0
BITMAP
FF00
FFC0
E1E0
E0E0
E0E0
E0E0
E1E0
FFC0
FF00
E1C0
E0E0
E0E0
E0E0
E0E0
E0E0
E1E0
FFC0
FF00
ENDCHAR
STARTCHAR c67
ENCODING -1 67
SWIDTH 483 0
DWIDTH 15 0
BBX 13 18 2 0
BITMAP
07E0
1FF8
3E38
7800
7000
7000
E000
E000
E000
E000
E000
E000
7000
7000
7800
3C38
1FF8
07E0
ENDCHAR
STARTCHAR c68
ENCODING -1 68
SWIDTH 612 0
DWIDTH 19 0
BBX 15 18 3 0
BITMAP
FFC0
FFF0
E0F8
E03C
E01C
E01E
E00E
E00E
E00E
E00E
E00E
E00E
E01E
E01C
E03C
E0F8
FFF0
FFC0
ENDCHAR
STARTCHAR c69
ENCODING -1 69
SWIDTH 451 0
DWIDTH 14 0
BBX 10 18 3 0
BITMAP
FFC0
FFC0
E000
E000
E000
E000
E000
FFC0
FFC0
E000
E000
E000
E000
E000
E000
E000
FFC0
FFC0
ENDCHAR
STARTCHAR c70
ENCODING -1 70
SWIDTH 419 0
DWIDTH 13 0
BBX 10 18 3 0
BITMAP
FFC0
FFC0
E000
E000
E000
E000
E000
FFC0
FFC0
E000
E000
E000
E000
E000
E000
E000
E000
E000
ENDCHAR
STARTCHAR c71
ENCODING -1 71
SWIDTH 548 0
DWIDTH 17 0
BBX 14 18 2 0
BITMAP
07E0
1FF8
3E38
7800
7000
7000
E000
E000
E000
E01C
E01C
E01C
701C
701C
781C
3C1C
1FFC
07E0
ENDCHAR
STARTCHAR c72
ENCODING -1 72
SWIDTH 580 0
DWIDTH 18 0
BBX 13 18 3 0
BITMAP
E038
E038
E038
E038
E038
E038
E038
FFF8
FFF8
FFF8
E038
E038
E038
E038
E038
E038
E038
E038
ENDCHAR
STARTCHAR c73
ENCODING -1 73
SWIDTH 258 0
DWIDTH 8 0
BBX 3 18 3 0
BITMAP
E0
E0
E0
E0
E0
E0
E0
E0
E0
E0
E0
E0
E0
E0
E0
E0
E0
E0
ENDCHAR
STARTCHAR c74
ENCODING -1 74
SWIDTH 290 0
DWIDTH 9 0
BBX 7 18 0 0
BITMAP
0E
0E
0E
0E
0E
0E
0E
0E
0E
0E
0E
0E
0E
0E
1E
FC
FC
F0
ENDCHAR
STARTCHAR c75
ENCODING -1 75
SWIDTH 516 0
DWIDTH 16 0
BBX 13 18 3 0
BITMAP
E038
E070
E0E0
E1C0
E1C0
E380
E700
EE00
EF00
EF00
E780
E3C0
E3C0
E1E0
E0F0
E0F0
E078
E038
ENDCHAR
STARTCHAR c76
ENCODING -1 76
SWIDTH 387 0
DWIDTH 12 0
BBX 9 18 3 0
BITMAP
E000
E000
E000
E000
E000
E000
E000
E000
E000
E000
E000
E000
E000
E000
E000
E000
FF80
FF80
ENDCHAR
STARTCHAR c77
ENCODING -1 77
SWIDTH 774 0
DWIDTH 24 0
BBX 23 18 1 0
BITMAP
0F00F0
0F00F0
0F01F0
1F01F0
1F81F8
1B83B8
1B83B8
3BC338
39C73C
31C71C
31E61C
70EE1C
70EE1C
70EC1E
60FC0E
E07C0E
E0780E
E0780E
ENDCHAR
STARTCHAR c78
ENCODING -1 78
SWIDTH 612 0
DWIDTH 19 0
BBX 14 18 3 0
BITMAP
F81C
F81C
FC1C
FC1C
FE1C
FE1C
EF1C
EF1C
E79C
E79C
E3DC
E3DC
E1FC
E1FC
E0FC
E0FC
E07C
E07C
ENDCHAR
STARTCHAR c79
ENCODING -1 79
SWIDTH 612 0
DWIDTH 19 0
BBX 16 18 2 0
BITMAP
07E0
1FF8
3C3C
781E
700E
700E
E007
E007
E007
E007
E007
E007
700E
700E
781E
3C3C
1FF8
07E0
ENDCHAR
STARTCHAR c80
ENCODING -1 80
SWIDTH 451 0
DWIDTH 14 0
BBX 11 18 3 0
BITMAP
FF00
FFC0
E1E0
E0E0
E0E0
E0E0
E0E0
E1E0
FFC0
FF00
E000
E000
E000
E000
E000
E000
E000
E000
ENDCHAR
STARTCHAR c81
ENCODING -1 81
SWIDTH 612 0
DWIDTH 19 0
BBX 17 20 2 -2
BITMAP
07E000
1FF800
3C3C00
781E00
700E00
700E00
E00700
E00700
E00700
E00700
E00700
E00700
700E00
700E00
781E00
3C3C00
1FF800
07FC00
001F80
000780
ENDCHAR
STARTCHAR c82
ENCODING -1 82
SWIDTH 483 0
DWIDTH 15 0
BBX 12 18 3 0
BITMAP
FF00
FFC0
E1E0
E0E0
E0E0
E0E0
E0E0
E1E0
FFC0
FF00
E700
E380
E3C0
E3C0
E1E0
E1E0
E0F0
E0F0
ENDCHAR
STARTCHAR c83
ENCODING -1 83
SWIDTH 451 0
DWIDTH 14 0
BBX 11 18 2 0
BITMAP
1F80
7FE0
70E0
E000
E000
E000
F800
7E00
7F80
1FC0
07C0
01E0
00E0
00E0
00E0
E1C0
FFC0
3F00
ENDCHAR
STARTCHAR c84
ENCODING -1 84
SWIDTH 387 0
DWIDTH 12 0
BBX 11 18 1 0
BITMAP
FFE0
FFE0
0E00
0E00
0E00
0E00
0E00
0E00
0E00
0E00
0E00
0E00
0E00
0E00
0E00
0E00
0E00
0E00
ENDCHAR
STARTCHAR c85
ENCODING -1 85
SWIDTH 580 0
DWIDTH 18 0
BBX 13 18 3 0
BITMAP
E038
E038
E038
E038
E038
E038
E038
E038
E038
E038
E038
E038
E038
E038
7070
78F0
3FE0
1F80
ENDCHAR
STARTCHAR c86
ENCODING -1 86
SWIDTH 516 0
DWIDTH 16 0
BBX 15 18 1 0
BITMAP
E00E
E00E
F00E
701C
701C
781C
3838
3838
3C38
1C70
1C70
1E60
0EE0
0EC0
0FC0
07C0
0780
0780
ENDCHAR
STARTCHAR c87
ENCODING -1 87
SWIDTH 838 0
DWIDTH 26 0
BBX 25 18 1 0
BITMAP
F01E0380
F01E0380
701E0380
701E0300
783F0700
38370700
38370600
3C778E00
1C638E00
1C638C00
1C638C00
1EE3DC00
0EC1D800
0EC1D800
0FC1F800
0780F000
0780F000
0780F000
ENDCHAR
STARTCHAR c88
ENCODING -1 88
SWIDTH 483 0
DWIDTH 15 0
BBX 14 18 1 0
BITMAP
F01C
F81C
7838
3C30
3C70
1EE0
0EC0
0FC0
0780
0780
0FC0
0DC0
1DE0
38F0
3070
7078
E03C
E03C
ENDCHAR
STARTCHAR c89
ENCODING -1 89
SWIDTH 451 0
DWIDTH 14 0
BBX 14 18 0 0
BITMAP
F00C
F01C
781C
7838
3C30
1C70
1EE0
0EC0
07C0
0780
0380
0380
0380
0380
0380
0380
0380
0380
ENDCHAR
STARTCHAR c90
ENCODING -1 90
SWIDTH 451 0
DWIDTH 14 0
BBX 13 18 1 0
BITMAP
FFF8
FFF8
0078
00F0
00F0
01E0
03C0
0380
0780
0F00
0E00
1E00
3C00
3800
7800
F000
FFF0
FFF0
ENDCHAR
STARTCHAR c91
ENCODING -1 91
SWIDTH 322 0
DWIDTH 10 0
BBX 5 22 2 -4
BITMAP
F8
E8
C0
C0
C0
C0
C0
C0
C0
C0
C0
C0
C0
C0
C0
C0
C0
C0
C0
C0
D0
F8
ENDCHAR
STARTCHAR c92
ENCODING -1 92
SWIDTH 451 0
DWIDTH 14 0
BBX 13 20 0 -1
BITMAP
C000
C000
6000
3000
3000
1800
1800
0C00
0600
0600
0300
0300
0180
00C0
00C0
0060
0060
0030
0018
0018
ENDCHAR
STARTCHAR c93
ENCODING -1 93
SWIDTH 322 0
DWIDTH 10 0
BBX 5 22 3 -4
BITMAP
F8
F8
18
18
18
18
18
18
18
18
18
18
18
18
18
18
18
18
18
18
F8
F8
ENDCHAR
STARTCHAR c94
ENCODING -1 94
SWIDTH 483 0
DWIDTH 15 0
BBX 12 14 2 0
BITMAP
0600
0F00
1F80
36C0
6660
E670
4620
0600
0600
0600
0600
0600
0600
0600
ENDCHAR
STARTCHAR c95
ENCODING -1 95
SWIDTH 290 0
DWIDTH 9 0
BBX 7 2 1 5
BITMAP
FE
FE
ENDCHAR
STARTCHAR c96
ENCODING -1 96
SWIDTH 419 0
DWIDTH 13 0
BBX 5 5 3 15
BITMAP
E0
E0
70
30
18
ENDCHAR
STARTCHAR c97
ENCODING -1 97
SWIDTH 419 0
DWIDTH 13 0
BBX 12 13 1 0
BITMAP
1F80
3FC0
71C0
61C0
01C0
1FC0
7FC0
71C0
E1C0
E1C0
E3C0
FDF0
78F0
ENDCHAR
STARTCHAR c98
ENCODING -1 98
SWIDTH 451 0
DWIDTH 14 0
BBX 11 19 2 0
BITMAP
E000
E000
E000
E000
E000
E000
E780
EFC0
FDE0
F0E0
E0E0
E0E0
E0E0
E0E0
E0E0
E1C0
E3C0
FF80
FE00
ENDCHAR
STARTCHAR c99
ENCODING -1 99
SWIDTH 354 0
DWIDTH 11 0
BBX 10 13 1 0
BITMAP
0FC0
3FC0
7000
7000
E000
E000
E000
E000
E000
7000
70C0
3FC0
0F00
ENDCHAR
STARTCHAR c100
ENCODING -1 100
SWIDTH 451 0
DWIDTH 14 0
BBX 11 19 1 0
BITMAP
00E0
00E0
00E0
00E0
00E0
00E0
0FE0
3FE0
78E0
70E0
E0E0
E0E0
E0E0
E0E0
E0E0
E1E0
F7E0
7EE0
3CE0
ENDCHAR
STARTCHAR c101
ENCODING -1 101
SWIDTH 419 0
DWIDTH 13 0
BBX 11 13 1 0
BITMAP
0F00
3FC0
71C0
70E0
E0E0
FFE0
FFE0
E000
E000
E000
70C0
7FC0
1F00
ENDCHAR
STARTCHAR c102
ENCODING -1 102
SWIDTH 258 0
DWIDTH 8 0
BBX 8 20 0 0
BITMAP
0F
1F
3C
38
38
38
38
FF
FF
38
38
38
38
38
38
38
38
38
38
38
ENDCHAR
STARTCHAR c103
ENCODING -1 103
SWIDTH 387 0
DWIDTH 12 0
BBX 12 19 0 -6
BITMAP
1FF0
3FF0
71C0
60C0
60C0
71C0
3F80
1F00
0800
3800
3F00
1FC0
71E0
E0E0
C0E0
C0E0
E1C0
FFC0
7F00
ENDCHAR
STARTCHAR c104
ENCODING -1 104
SWIDTH 483 0
DWIDTH 15 0
BBX 11 19 2 0
BITMAP
E000
E000
E000
E000
E000
E000
E7C0
EFE0
FDE0
F0E0
E0E0
E0E0
E0E0
E0E0
E0E0
E0E0
E0E0
E0E0
E0E0
ENDCHAR
STARTCHAR c105
ENCODING -1 105
SWIDTH 225 0
DWIDTH 7 0
BBX 3 18 2 0
BITMAP
E0
E0
E0
00
00
E0
E0
E0
E0
E0
E0
E0
E0
E0
E0
E0
E0
E0
ENDCHAR
STARTCHAR c106
ENCODING -1 106
SWIDTH 258 0
DWIDTH 8 0
BBX 6 24 0 -6
BITMAP
1C
1C
1C
00
00
1C
1C
1C
1C
1C
1C
1C
1C
1C
1C
1C
1C
1C
1C
1C
1C
F8
F8
E0
ENDCHAR
STARTCHAR c107
ENCODING -1 107
SWIDTH 419 0
DWIDTH 13 0
BBX 11 19 2 0
BITMAP
E000
E000
E000
E000
E000
E000
E0E0
E0E0
E3C0
E380
E700
EE00
FC00
FE00
EF00
E780
E3C0
E1E0
E0E0
ENDCHAR
STARTCHAR c108
ENCODING -1 108
SWIDTH 225 0
DWIDTH 7 0
BBX 3 19 2 0
BITMAP
E0
E0
E0
E0
E0
E0
E0
E0
E0
E0
E0
E0
E0
E0
E0
E0
E0
E0
E0
ENDCHAR
STARTCHAR c109
ENCODING -1 109
SWIDTH 741 0
DWIDTH 23 0
BBX 19 13 2 0
BITMAP
E7C7C0
EFEFE0
FDFDE0
F0F0E0
E0E0E0
E0E0E0
E0E0E0
E0E0E0
E0E0E0
E0E0E0
E0E0E0
E0E0E0
E0E0E0
ENDCHAR
STARTCHAR c110
ENCODING -1 110
SWIDTH 483 0
DWIDTH 15 0
BBX 11 13 2 0
BITMAP
E7C0
EFE0
FDE0
F0E0
E0E0
E0E0
E0E0
E0E0
E0E0
E0E0
E0E0
E0E0
E0E0
ENDCHAR
STARTCHAR c111
ENCODING -1 111
SWIDTH 451 0
DWIDTH 14 0
BBX 12 13 1 0
BITMAP
0F00
3FC0
70E0
70E0
E070
E070
E070
E070
E070
70E0
70E0
3FC0
0F00
ENDCHAR
STARTCHAR c112
ENCODING -1 112
SWIDTH 451 0
DWIDTH 14 0
BBX 11 19 2 -6
BITMAP
E780
EFC0
FDE0
F0E0
E0E0
E0E0
E0E0
E0E0
E0E0
E1C0
E3C0
FF80
FE00
E000
E000
E000
E000
E000
E000
ENDCHAR
STARTCHAR c113
ENCODING -1 113
SWIDTH 451 0
DWIDTH 14 0
BBX 11 19 1 -6
BITMAP
0FE0
3FE0
78E0
70E0
E0E0
E0E0
E0E0
E0E0
E0E0
E1E0
F7E0
7EE0
3CE0
00E0
00E0
00E0
00E0
00E0
00E0
ENDCHAR
STARTCHAR c114
ENCODING -1 114
SWIDTH 290 0
DWIDTH 9 0
BBX 7 13 2 0
BITMAP
E6
EE
EE
FE
F0
E0
E0
E0
E0
E0
E0
E0
E0
ENDCHAR
STARTCHAR c115
ENCODING -1 115
SWIDTH 354 0
DWIDTH 11 0
BBX 9 13 1 0
BITMAP
1F80
7F80
E000
E000
F000
FC00
7F00
1F80
0780
0380
0380
FF00
FC00
ENDCHAR
STARTCHAR c116
ENCODING -1 116
SWIDTH 290 0
DWIDTH 9 0
BBX 9 16 0 0
BITMAP
3800
3800
3800
FF80
FF80
3800
3800
3800
3800
3800
3800
3800
3800
3980
3F80
1E00
ENDCHAR
STARTCHAR c117
ENCODING -1 117
SWIDTH 483 0
DWIDTH 15 0
BBX 11 13 2 0
BITMAP
E0E0
E0E0
E0E0
E0E0
E0E0
E0E0
E0E0
E0E0
E0E0
E1E0
F7E0
FEE0
7CE0
ENDCHAR
STARTCHAR c118
ENCODING -1 118
SWIDTH 387 0
DWIDTH 12 0
BBX 12 13 0 0
BITMAP
E070
E070
F070
70E0
70E0
79C0
39C0
3980
1F80
1F00
1F00
0E00
0E00
ENDCHAR
STARTCHAR c119
ENCODING -1 119
SWIDTH 645 0
DWIDTH 20 0
BBX 20 13 0 0
BITMAP
E0F070
E0F070
E0F060
71B8E0
71B8C0
71B8C0
3BBDC0
3B1D80
3B1D80
3F1F80
1E0F00
1E0F00
1E0E00
ENDCHAR
STARTCHAR c120
ENCODING -1 120
SWIDTH 419 0
DWIDTH 13 0
BBX 11 13 1 0
BITMAP
F0E0
F0E0
79C0
3980
3B80
1F00
0E00
1F00
3B80
3380
73C0
E1E0
E1E0
ENDCHAR
STARTCHAR c121
ENCODING -1 121
SWIDTH 387 0
DWIDTH 12 0
BBX 12 19 0 -6
BITMAP
E070
E070
F070
70E0
70E0
79C0
39C0
3980
1F80
1F00
1F00
0E00
0E00
0C00
1C00
1C00
3800
F800
E000
ENDCHAR
STARTCHAR c122
ENCODING -1 122
SWIDTH 354 0
DWIDTH 11 0
BBX 9 13 1 0
BITMAP
FF80
FF80
0700
0700
0E00
0E00
1C00
3800
3800
7000
7000
FF80
FF80
ENDCHAR
STARTCHAR c123
ENCODING -1 123
SWIDTH 322 0
DWIDTH 10 0
BBX 8 24 0 -5
BITMAP
07
0F
1C
18
18
18
18
18
18
18
30
E0
E0
30
18
18
18
18
18
18
18
1C
0F
07
ENDCHAR
STARTCHAR c124
ENCODING -1 124
SWIDTH 322 0
DWIDTH 10 0
BBX 2 24 4 -5
BITMAP
C0
C0
C0
C0
C0
C0
C0
C0
C0
C0
C0
C0
C0
C0
C0
C0
C0
C0
C0
C0
C0
C0
C0
C0
ENDCHAR
STARTCHAR c125
ENCODING -1 125
SWIDTH 322 0
DWIDTH 10 0
BBX 8 24 2 -5
BITMAP
E0
F0
38
18
18
18
18
18
18
18
0C
07
07
0C
18
18
18
18
18
18
18
38
F0
E0
ENDCHAR
STARTCHAR c126
ENCODING -1 126
SWIDTH 548 0
DWIDTH 17 0
BBX 15 5 1 4
BITMAP
3E06
7F06
C386
C1FC
C0F8
ENDCHAR
STARTCHAR c128
ENCODING -1 128
SWIDTH 516 0
DWIDTH 16 0
BBX 16 20 0 0
BITMAP
0E70
0E70
0000
03C0
03C0
03E0
07E0
0660
0E70
0C70
0C30
1C38
1FF8
1FF8
381C
301C
701E
700E
600E
E00F
ENDCHAR
STARTCHAR c129
ENCODING -1 129
SWIDTH 612 0
DWIDTH 19 0
BBX 16 21 2 0
BITMAP
0E70
0E70
0000
07E0
1FF8
3C3C
781E
700E
700E
E007
E007
E007
E007
E007
E007
700E
700E
781E
3C3C
1FF8
07E0
ENDCHAR
STARTCHAR c130
ENCODING -1 130
SWIDTH 580 0
DWIDTH 18 0
BBX 13 21 3 0
BITMAP
38E0
38E0
0000
E038
E038
E038
E038
E038
E038
E038
E038
E038
E038
E038
E038
E038
E038
7070
78F0
3FE0
1F80
ENDCHAR
STARTCHAR c131
ENCODING -1 131
SWIDTH 419 0
DWIDTH 13 0
BBX 12 18 1 0
BITMAP
39C0
39C0
39C0
0000
0000
1F80
3FC0
71C0
61C0
01C0
1FC0
7FC0
71C0
E1C0
E1C0
E3C0
FDF0
78F0
ENDCHAR
STARTCHAR c132
ENCODING -1 132
SWIDTH 451 0
DWIDTH 14 0
BBX 12 18 1 0
BITMAP
39C0
39C0
39C0
0000
0000
0F00
3FC0
70E0
70E0
E070
E070
E070
E070
E070
70E0
70E0
3FC0
0F00
ENDCHAR
STARTCHAR c133
ENCODING -1 133
SWIDTH 483 0
DWIDTH 15 0
BBX 11 18 2 0
BITMAP
71C0
71C0
71C0
0000
0000
E0E0
E0E0
E0E0
E0E0
E0E0
E0E0
E0E0
E0E0
E0E0
E1E0
F7E0
FEE0
7CE0
ENDCHAR
STARTCHAR c134
ENCODING -1 134
SWIDTH 419 0
DWIDTH 13 0
BBX 12 20 1 0
BITMAP
0F00
0F00
1980
1980
30C0
2040
0000
1F80
3FC0
71C0
61C0
01C0
1FC0
7FC0
71C0
E1C0
E1C0
E3C0
FDF0
78F0
ENDCHAR
STARTCHAR c135
ENCODING -1 135
SWIDTH 387 0
DWIDTH 12 0
BBX 11 20 1 0
BITMAP
0F00
0F00
1980
1980
30C0
2040
0000
0F00
3FC0
71C0
70E0
E0E0
FFE0
FFE0
E000
E000
E000
70C0
7FC0
1F00
ENDCHAR
STARTCHAR c136
ENCODING -1 136
SWIDTH 225 0
DWIDTH 7 0
BBX 7 20 0 0
BITMAP
38
7C
6C
C6
82
00
00
38
38
38
38
38
38
38
38
38
38
38
38
38
ENDCHAR
STARTCHAR c137
ENCODING -1 137
SWIDTH 451 0
DWIDTH 14 0
BBX 12 20 1 0
BITMAP
0F00
0F00
1980
1980
30C0
2040
0000
0F00
3FC0
70E0
70E0
E070
E070
E070
E070
E070
70E0
70E0
3FC0
0F00
ENDCHAR
STARTCHAR c138
ENCODING -1 138
SWIDTH 483 0
DWIDTH 15 0
BBX 11 20 2 0
BITMAP
0F00
0F00
1980
1980
30C0
2040
0000
E0E0
E0E0
E0E0
E0E0
E0E0
E0E0
E0E0
E0E0
E0E0
E1E0
F7E0
FEE0
7CE0
ENDCHAR
STARTCHAR c139
ENCODING -1 139
SWIDTH 419 0
DWIDTH 13 0
BBX 12 20 1 0
BITMAP
3800
3800
1C00
0C00
0600
0000
0000
1F80
3FC0
71C0
61C0
01C0
1FC0
7FC0
71C0
E1C0
E1C0
E3C0
FDF0
78F0
ENDCHAR
STARTCHAR c140
ENCODING -1 140
SWIDTH 387 0
DWIDTH 12 0
BBX 11 20 1 0
BITMAP
3800
3800
1C00
0C00
0600
0000
0000
0F00
3FC0
71C0
70E0
E0E0
FFE0
FFE0
E000
E000
E000
70C0
7FC0
1F00
ENDCHAR
STARTCHAR c141
ENCODING -1 141
SWIDTH 225 0
DWIDTH 7 0
BBX 5 20 1 0
BITMAP
E0
E0
70
30
18
00
00
70
70
70
70
70
70
70
70
70
70
70
70
70
ENDCHAR
STARTCHAR c142
ENCODING -1 142
SWIDTH 451 0
DWIDTH 14 0
BBX 12 20 1 0
BITMAP
1C00
1C00
0E00
0600
0300
0000
0000
0F00
3FC0
70E0
70E0
E070
E070
E070
E070
E070
70E0
70E0
3FC0
0F00
ENDCHAR
STARTCHAR c143
ENCODING -1 143
SWIDTH 483 0
DWIDTH 15 0
BBX 11 20 2 0
BITMAP
3800
3800
1C00
0C00
0600
0000
0000
E0E0
E0E0
E0E0
E0E0
E0E0
E0E0
E0E0
E0E0
E0E0
E1E0
F7E0
FEE0
7CE0
ENDCHAR
STARTCHAR c144
ENCODING -1 144
SWIDTH 387 0
DWIDTH 12 0
BBX 11 20 1 0
BITMAP
01C0
01C0
0380
0300
0600
0000
0000
0F00
3FC0
71C0
70E0
E0E0
FFE0
FFE0
E000
E000
E000
70C0
7FC0
1F00
ENDCHAR
STARTCHAR c145
ENCODING -1 145
SWIDTH 387 0
DWIDTH 12 0
BBX 11 18 1 0
BITMAP
39C0
39C0
39C0
0000
0000
0F00
3FC0
71C0
70E0
E0E0
FFE0
FFE0
E000
E000
E000
70C0
7FC0
1F00
ENDCHAR
STARTCHAR c146
ENCODING -1 146
SWIDTH 225 0
DWIDTH 7 0
BBX 7 18 0 0
BITMAP
C6
C6
C6
00
00
38
38
38
38
38
38
38
38
38
38
38
38
38
ENDCHAR
STARTCHAR c147
ENCODING -1 147
SWIDTH 354 0
DWIDTH 11 0
BBX 10 19 1 -6
BITMAP
0FC0
3FC0
7000
7000
E000
E000
E000
E000
E000
7000
70C0
3FC0
0F00
0000
0E00
0E00
0600
0400
0800
ENDCHAR
STARTCHAR c148
ENCODING -1 148
SWIDTH 419 0
DWIDTH 13 0
BBX 12 20 1 0
BITMAP
01C0
01C0
0380
0300
0600
0000
0000
1F80
3FC0
71C0
61C0
01C0
1FC0
7FC0
71C0
E1C0
E1C0
E3C0
FDF0
78F0
ENDCHAR
STARTCHAR c149
ENCODING -1 149
SWIDTH 483 0
DWIDTH 15 0
BBX 11 19 2 0
BITMAP
3C60
7E60
C7C0
C380
0000
0000
E7C0
EFE0
FDE0
F0E0
E0E0
E0E0
E0E0
E0E0
E0E0
E0E0
E0E0
E0E0
E0E0
ENDCHAR
STARTCHAR c155
ENCODING -1 155
SWIDTH 483 0
DWIDTH 15 0
BBX 15 2 0 6
BITMAP
FFFE
FFFE
ENDCHAR
STARTCHAR c159
ENCODING -1 159
SWIDTH 451 0
DWIDTH 14 0
BBX 0 0 0 0
BITMAP
ENDCHAR
ENDFONT
