STARTFONT 2.1
COMMENT converted Oberon font (using FontToBDF by R.Crelier 10.1.91)
FONT LetterHead.Scn.Fnt
SIZE 1 75 75
FONTBOUNDINGBOX  208 42 0 -4
STARTPROPERTIES 3
FONT_ASCENT 38
FONT_DESCENT 4
DEFAULT_CHAR 0
ENDPROPERTIES
CHARS 20
STARTCHAR c0
ENCODING -1 0
SWIDTH 0 0
DWIDTH 0 0
BBX 0 0 0 0
BITMAP
ENDCHAR
STARTCHAR c49
ENCODING -1 49
SWIDTH 3483 0
DWIDTH 108 0
BBX 106 37 1 0
BITMAP
007FFFFFFFFFFFFFFFFFFC0FFFC0
007FFFFFFFFFFFFFFFFFFC1FFFC0
007FFFFFFFFFFFFFFFFFFC1FFF80
007FFFFFFFFFFFFFFFFFF81FFF80
00FFFFFFFFFFFFFFFFFFF81FFF80
00FFFFFFFFFFFFFFFFFFF83FFF80
00FFFFFFFFFFFFFFFFFFF83FFF00
00FFFFFFFFFFFFFFFFFFF03FFF09
01FFFFFFFFFFFFFFFFFFF03FFF12
01FFFFFFFFFFFFFFFFFFF07FFF00
01FFF8000001FFF807FFE07FFE06
01FFF8000001FFF807FFE07FFE00
03FFF0000003FFF807FFE07FFE00
03FFF0000003FFF007FFE0FFFE00
03FFFFFFC003FFF00FFFFFFFFC00
03FFFFFFC003FFF00FFFFFFFFC00
07FFFFFFC007FFF00FFFFFFFFC00
07FFFFFF8007FFE00FFFFFFFFC00
07FFFFFF8007FFE01FFFFFFFF811
07FFFFFF8007FFE01FFFFFFFF809
0FFFFFFF800FFFE01FFFFFFFF810
0FFFFFFF000FFFC01FFFFFFFF800
0FFFFFFF000FFFC03FFFFFFFF00E
0FFFC000000FFFC03FFF83FFF022
1FFFC000001FFFC03FFF03FFF000
1FFF8000001FFF803FFF03FFF000
1FFF8000001FFF803FFF07FFE000
1FFFFFFFC01FFF807FFF07FFE000
3FFFFFFF803FFF807FFE07FFE000
3FFFFFFF803FFF007FFE07FFE004
3FFFFFFF803FFF007FFE0FFFC02C
3FFFFFFF003FFF00FFFE0FFFC012
7FFFFFFF007FFF00FFFC0FFFC000
7FFFFFFF007FFE00FFFC1FFFC000
7FFFFFFF007FFE00FFFC1FFF800E
7FFFFFFE007FFE01FFFC1FFF8009
FFFFFFFE00FFFE01FFF81FFF8000
ENDCHAR
STARTCHAR c50
ENCODING -1 50
SWIDTH 4160 0
DWIDTH 129 0
BBX 129 38 0 0
BITMAP
003030000036001800600000000000007F
3F3030000036001800600000000000007F
3F0030000000000000600000000000007F
6063E3CE6E3CF7B3CEDC7000000000007F
7E6666DB766D8C361EECD800000000007F
7E6C66FB66CDCE3730CDD8000000000001
60CCC73E66CCC66330CDF000000000007F
C0CCC230CCCCE763B19980000000000007
FCCD4C3ECCD86361BD99F0000000000003
FCC6CF9ECCF1CE671D98F000000000007F
0000058000000000000000000000000000
000009800000000000000000000000007F
00000E0000000000000000000000000060
0000000000000000000000000000000000
000018001800600000000180006000607F
FC00180018006000318001800060006070
FC0018000000600031800180006000607F
30E3B73733CEDC70639E3B73CEDCCCC77F
31B7BB3B361EECD87F367BB61EECCCCD80
33BC33333730CDD87F66C33730CCCCDD9F
63EC33336330CDF06366C33330CD98DF7F
630C666663B199806366C663B19999987F
63EF666661BD99F0C66CF661BD99B99F3F
61E76666671D98F0C67876671D99D98F7F
000000000000000000000000000000000E
000000000000000000000000000000001F
0000000000000000000000000000000001
0000000000000000000000000000000000
0036030180000000000000000000000000
7E36030180000000000000000000000000
7E00000180000000000000000000000000
0CCCD63B70000000000000000000000000
18CCF67BB000000000000000000000004B
38CCC6C330000000000000000000000000
31998CC330000000000000000000000020
61998CC660000000000000000000000026
FDB98CF660000000000000000000000000
FDD98C7660000000000000000000000000
ENDCHAR
STARTCHAR c51
ENCODING -1 51
SWIDTH 6740 0
DWIDTH 209 0
BBX 208 42 0 -4
BITMAP
0000100000200000400400001841080040010000002020000000
3C0010000020100040000000108110004001003C000020000000
2000100000201000400000001001000040010004000020000000
20C723858E48F9CCB2C8E48E39CE3A9C8E0E3809254658000000
410924869248A250D349249212524B2492124809264868000000
7909250492492290924924941292520494125011244848000000
42112E08A2492720924A49381722E234B822E022445048000000
82124809248A4421249249202424844920248022489090000000
82524909248A44A52492CB2424AC9449242C9042C89290000000
FB9C4E0E388C773924934D382734E4693834E0FB489C90000000
0000000800080000000080002000000000000000000000000000
0000000800080000000080002000000000000000000000000000
0000000800100000000080002000000000000000000000000000
0000000000100000000000002000000000000000000000000000
00024000008000C0080002000900000400000000000000000000
3802080000000080080002000807800000000000000000000000
2402080000000080080002000800800000000000000000000000
24E4BCE65918E1CE71D4E470720124A8F3800000000000000000
492491286921209292592490920124C924800000000000000000
7124914849212094929024A09202248924800000000000000000
42249390494220B91711A5C11204488928800000000000000000
82492210924241212422490124044910C9000000000000000000
82492252924A412564A249216408591089000000000000000000
83893B9C92738139A72349C1A41F69108E000000000000000000
0000000000000100000000000000000140000000000000000000
0000000000000100000000000000000220000000000000000000
0000000000000100000000000000000220000000000000000000
00000000000001000000000000000003C0000000000000000000
00004000000400010000020000000C0000100004000000000404
38000001E0040001040020401000083E00100004000007800004
4000000100040001040020401000080800100004000000800004
42228CC10738EA720563F5E979C1DC08732CB1C8E3D10124A8CB
6222910209492C9209A44489224248109434D24924910124C90D
22649103CA4948120924448922824810A4249249249202248909
32A899821C8B88D20926449227044811C824944A249204488A09
12A9088410921124124289124404902108492492431404491212
1331088412B25124124289164484902129492492421408591252
E22133041CD391A4124CE9DA77071021CE49271382181F691392
0000000000000000000000000000100000000000051000000000
0000000000000000000000000000100000000000089000000000
000000000000000000000000000010000000000008A000000000
00000000000000000000000000001000000000000F2000000000
ENDCHAR
STARTCHAR c65
ENCODING -1 65
SWIDTH 1032 0
DWIDTH 32 0
BBX 31 37 1 0
BITMAP
007FFFFE
007FFFFE
007FFFFF
007FFFFF
00FFFFFE
00FFFFFE
00FFFFFE
00FFFFFE
01FFFFFE
01FFFFFE
01FFF800
01FFF800
03FFF000
03FFF000
03FFFFFE
03FFFFFF
07FFFFFF
07FFFFFE
07FFFFFE
07FFFFFE
0FFFFFFE
0FFFFFFF
0FFFFFFE
0FFFC000
1FFFC000
1FFF8001
1FFF8000
1FFFFFFE
3FFFFFFE
3FFFFFFE
3FFFFFFF
3FFFFFFE
7FFFFFFF
7FFFFFFE
7FFFFFFF
7FFFFFFE
FFFFFFFE
ENDCHAR
STARTCHAR c66
ENCODING -1 66
SWIDTH 1032 0
DWIDTH 32 0
BBX 32 37 0 0
BITMAP
FFFFFFFF
FFFFFFFF
FFFFFFFF
FFFFFFFF
FFFFFFFF
FFFFFFFF
FFFFFFFF
FFFFFFFF
FFFFFFFF
FFFFFFFF
0000FFFC
0000FFFC
0001FFFC
0001FFF8
E001FFF8
E001FFF8
E003FFF8
C003FFF0
C003FFF0
C003FFF0
C007FFF0
8007FFE0
8007FFE0
0007FFE0
000FFFE0
000FFFC0
000FFFC0
E00FFFC0
C01FFFC0
C01FFF80
C01FFF80
801FFF80
803FFF80
803FFF00
803FFF00
003FFF00
007FFF00
ENDCHAR
STARTCHAR c67
ENCODING -1 67
SWIDTH 1032 0
DWIDTH 32 0
BBX 32 37 0 0
BITMAP
FFFFFE07
FFFFFE0F
FFFFFE0F
FFFFFC0F
FFFFFC0F
FFFFFC1F
FFFFFC1F
FFFFF81F
FFFFF81F
FFFFF83F
03FFF03F
03FFF03F
03FFF03F
03FFF07F
07FFFFFF
07FFFFFF
07FFFFFF
07FFFFFF
0FFFFFFF
0FFFFFFF
0FFFFFFF
0FFFFFFF
1FFFFFFF
1FFFC1FF
1FFF81FF
1FFF81FF
1FFF83FF
3FFF83FF
3FFF03FF
3FFF03FF
3FFF07FF
7FFF07FF
7FFE07FF
7FFE0FFF
7FFE0FFF
FFFE0FFF
FFFC0FFF
ENDCHAR
STARTCHAR c68
ENCODING -1 68
SWIDTH 387 0
DWIDTH 12 0
BBX 11 37 0 0
BITMAP
FFFE
FFFF
FFDE
FFDF
FFDF
FFDF
FF9F
FF9F
FF9E
FF9F
FF1E
FF1F
FF1E
FF1F
FE1E
FE1F
FE1E
FE1F
FC1E
FC1F
FC00
FC1F
F800
F81F
F800
F81F
F000
F01F
F01E
F01F
E01F
E01F
E01F
E01F
C01E
C01F
C01E
ENDCHAR
STARTCHAR c69
ENCODING -1 69
SWIDTH 1032 0
DWIDTH 32 0
BBX 32 38 0 0
BITMAP
00303000
3F303000
3F003000
6063E3CE
7E6666DB
7E6C66FB
60CCC73E
C0CCC230
FCCD4C3E
FCC6CF9E
00000580
00000980
00000E00
00000000
00001800
FC001800
FC001800
30E3B737
31B7BB3B
33BC3333
63EC3333
630C6666
63EF6666
61E76666
00000000
00000000
00000000
00000000
00360301
7E360301
7E000001
0CCCD63B
18CCF67B
38CCC6C3
31998CC3
61998CC6
FDB98CF6
FDD98C76
ENDCHAR
STARTCHAR c70
ENCODING -1 70
SWIDTH 1032 0
DWIDTH 32 0
BBX 32 38 0 0
BITMAP
00360018
00360018
00000000
6E3CF7B3
766D8C36
66CDCE37
66CCC663
CCCCE763
CCD86361
CCF1CE67
00000000
00000000
00000000
00000000
18006000
18006000
00006000
33CEDC70
361EECD8
3730CDD8
6330CDF0
63B19980
61BD99F0
671D98F0
00000000
00000000
00000000
00000000
80000000
80000000
80000000
70000000
B0000000
30000000
30000000
60000000
60000000
60000000
ENDCHAR
STARTCHAR c71
ENCODING -1 71
SWIDTH 1032 0
DWIDTH 32 0
BBX 32 24 0 14
BITMAP
00600000
00600000
00600000
CEDC7000
1EECD800
30CDD800
30CDF000
B1998000
BD99F000
1D98F000
00000000
00000000
00000000
00000000
00000180
31800180
31800180
639E3B73
7F367BB6
7F66C337
6366C333
6366C663
C66CF661
C6787667
ENDCHAR
STARTCHAR c72
ENCODING -1 72
SWIDTH 1032 0
DWIDTH 32 0
BBX 32 10 0 14
BITMAP
00600060
00600060
00600060
CEDCCCC7
1EECCCCD
30CCCCDD
30CD98DF
B1999998
BD99B99F
1D99D98F
ENDCHAR
STARTCHAR c73
ENCODING -1 73
SWIDTH 32 0
DWIDTH 1 0
BBX 1 2 0 18
BITMAP
80
80
ENDCHAR
STARTCHAR c74
ENCODING -1 74
SWIDTH 1032 0
DWIDTH 32 0
BBX 32 38 0 0
BITMAP
00001000
3C001000
20001000
20C72385
41092486
79092504
42112E08
82124809
82524909
FB9C4E0E
00000008
00000008
00000008
00000000
00024000
38020800
24020800
24E4BCE6
49249128
71249148
42249390
82492210
82492252
83893B9C
00000000
00000000
00000000
00000000
00004000
38000001
40000001
42228CC1
62229102
22649103
32A89982
12A90884
13310884
E2213304
ENDCHAR
STARTCHAR c75
ENCODING -1 75
SWIDTH 1032 0
DWIDTH 32 0
BBX 32 38 0 0
BITMAP
00200000
00201000
00201000
8E48F9CC
9248A250
92492290
A2492720
248A4421
248A44A5
388C7739
00080000
00080000
00100000
00100000
008000C0
00000080
00000080
5918E1CE
69212092
49212094
494220B9
92424121
924A4125
92738139
00000100
00000100
00000100
00000100
00040001
E0040001
00040001
0738EA72
09492C92
CA494812
1C8B88D2
10921124
12B25124
1CD391A4
ENDCHAR
STARTCHAR c76
ENCODING -1 76
SWIDTH 1032 0
DWIDTH 32 0
BBX 32 38 0 0
BITMAP
40040000
40000000
40000000
B2C8E48E
D3492492
92492494
924A4938
24924920
2492CB24
24934D38
00008000
00008000
00008000
00000000
08000200
08000200
08000200
71D4E470
92592490
929024A0
1711A5C1
24224901
64A24921
A72349C1
00000000
00000000
00000000
00000000
00000200
04002040
04002040
0563F5E9
09A44489
09244489
09264492
12428912
12428916
124CE9DA
ENDCHAR
STARTCHAR c77
ENCODING -1 77
SWIDTH 1032 0
DWIDTH 32 0
BBX 32 42 0 -4
BITMAP
18410800
10811000
10010000
39CE3A9C
12524B24
12925204
1722E234
24248449
24AC9449
2734E469
20000000
20000000
20000000
20000000
09000004
08078000
08008000
720124A8
920124C9
92022489
12044889
24044910
64085910
A41F6910
00000001
00000002
00000002
00000003
00000C00
1000083E
10000808
79C1DC08
22424810
22824810
27044811
44049021
44849021
77071021
00001000
00001000
00001000
00001000
ENDCHAR
STARTCHAR c78
ENCODING -1 78
SWIDTH 1032 0
DWIDTH 32 0
BBX 32 38 0 0
BITMAP
40010000
4001003C
40010004
8E0E3809
92124809
94125011
B822E022
20248022
242C9042
3834E0FB
00000000
00000000
00000000
00000000
00000000
00000000
00000000
F3800000
24800000
24800000
28800000
C9000000
89000000
8E000000
40000000
20000000
20000000
C0000000
00100004
00100004
00100004
732CB1C8
9434D249
A4249249
C824944A
08492492
29492492
CE492713
ENDCHAR
STARTCHAR c79
ENCODING -1 79
SWIDTH 1032 0
DWIDTH 32 0
BBX 32 42 0 -4
BITMAP
00202000
00002000
00002000
25465800
26486800
24484800
44504800
48909000
C8929000
489C9000
00000000
00000000
00000000
00000000
00000000
00000000
00000000
00000000
00000000
00000000
00000000
00000000
00000000
00000000
00000000
00000000
00000000
00000000
00000000
00000780
00000080
E3D10124
24910124
24920224
24920448
43140449
42140859
82181F69
05100000
08900000
08A00000
0F200000
ENDCHAR
STARTCHAR c80
ENCODING -1 80
SWIDTH 548 0
DWIDTH 17 0
BBX 16 10 0 0
BITMAP
0404
0004
0004
A8CB
C90D
8909
8A09
1212
1252
1392
ENDCHAR
ENDFONT
