STARTFONT 2.1
COMMENT converted Oberon font (using FontToBDF by R.Crelier 10.1.91)
FONT Syntax20.Scn.Fnt
SIZE 20 75 75
FONTBOUNDINGBOX  20 23 0 -6
STARTPROPERTIES 3
FONT_ASCENT 17
FONT_DESCENT 6
DEFAULT_CHAR 0
ENDPROPERTIES
CHARS 121
STARTCHAR c0
ENCODING -1 0
SWIDTH 0 0
DWIDTH 0 0
BBX 0 0 0 0
BITMAP
ENDCHAR
STARTCHAR c9
ENCODING -1 9
SWIDTH 774 0
DWIDTH 24 0
BBX 0 0 0 0
BITMAP
ENDCHAR
STARTCHAR c32
ENCODING -1 32
SWIDTH 193 0
DWIDTH 6 0
BBX 0 0 0 0
BITMAP
ENDCHAR
STARTCHAR c33
ENCODING -1 33
SWIDTH 193 0
DWIDTH 6 0
BBX 2 15 2 0
BITMAP
C0
C0
C0
C0
C0
C0
C0
C0
C0
C0
C0
00
00
C0
C0
ENDCHAR
STARTCHAR c34
ENCODING -1 34
SWIDTH 225 0
DWIDTH 7 0
BBX 5 6 1 9
BITMAP
D8
D8
D8
90
90
90
ENDCHAR
STARTCHAR c35
ENCODING -1 35
SWIDTH 387 0
DWIDTH 12 0
BBX 10 15 1 0
BITMAP
3300
3300
3300
3300
3300
FFC0
3300
3300
3300
FFC0
3300
3300
3300
3300
3300
ENDCHAR
STARTCHAR c36
ENCODING -1 36
SWIDTH 354 0
DWIDTH 11 0
BBX 9 19 1 -2
BITMAP
0800
0800
3E00
6980
C800
C800
C800
E800
7800
3E00
0F00
0B80
0980
0980
0980
CB00
3E00
0800
0800
ENDCHAR
STARTCHAR c37
ENCODING -1 37
SWIDTH 483 0
DWIDTH 15 0
BBX 15 15 0 0
BITMAP
3818
4410
C620
C660
C640
4480
3980
0100
0338
0244
04C6
0CC6
08C6
1044
3038
ENDCHAR
STARTCHAR c38
ENCODING -1 38
SWIDTH 387 0
DWIDTH 12 0
BBX 11 15 1 0
BITMAP
0E00
1300
3300
3300
3200
1800
1C40
0E40
2640
4340
C380
C180
C1C0
E2C0
7CE0
ENDCHAR
STARTCHAR c39
ENCODING -1 39
SWIDTH 129 0
DWIDTH 4 0
BBX 2 4 1 12
BITMAP
C0
C0
80
80
ENDCHAR
STARTCHAR c40
ENCODING -1 40
SWIDTH 258 0
DWIDTH 8 0
BBX 4 20 2 -4
BITMAP
10
20
20
40
40
40
80
80
80
80
80
80
80
80
40
40
40
20
20
10
ENDCHAR
STARTCHAR c41
ENCODING -1 41
SWIDTH 258 0
DWIDTH 8 0
BBX 4 20 2 -4
BITMAP
80
40
40
20
20
20
10
10
10
10
10
10
10
10
20
20
20
40
40
80
ENDCHAR
STARTCHAR c42
ENCODING -1 42
SWIDTH 387 0
DWIDTH 12 0
BBX 10 11 1 0
BITMAP
2100
2100
1200
1200
0C00
FFC0
0C00
1200
1200
2100
2100
ENDCHAR
STARTCHAR c43
ENCODING -1 43
SWIDTH 387 0
DWIDTH 12 0
BBX 11 11 0 0
BITMAP
0400
0400
0400
0400
0400
FFE0
0400
0400
0400
0400
0400
ENDCHAR
STARTCHAR c44
ENCODING -1 44
SWIDTH 129 0
DWIDTH 4 0
BBX 2 5 1 -3
BITMAP
C0
C0
80
80
80
ENDCHAR
STARTCHAR c45
ENCODING -1 45
SWIDTH 387 0
DWIDTH 12 0
BBX 10 1 1 5
BITMAP
FFC0
ENDCHAR
STARTCHAR c46
ENCODING -1 46
SWIDTH 129 0
DWIDTH 4 0
BBX 2 2 1 0
BITMAP
C0
C0
ENDCHAR
STARTCHAR c47
ENCODING -1 47
SWIDTH 290 0
DWIDTH 9 0
BBX 7 15 1 0
BITMAP
06
04
04
0C
08
08
18
10
30
20
20
60
40
40
C0
ENDCHAR
STARTCHAR c48
ENCODING -1 48
SWIDTH 354 0
DWIDTH 11 0
BBX 9 15 1 0
BITMAP
1C00
6300
4100
C180
C180
C180
C180
C180
C180
C180
C180
C180
4100
6300
1C00
ENDCHAR
STARTCHAR c49
ENCODING -1 49
SWIDTH 354 0
DWIDTH 11 0
BBX 6 15 1 0
BITMAP
0C
1C
6C
CC
0C
0C
0C
0C
0C
0C
0C
0C
0C
0C
0C
ENDCHAR
STARTCHAR c50
ENCODING -1 50
SWIDTH 354 0
DWIDTH 11 0
BBX 10 15 0 0
BITMAP
3E00
0300
0180
0180
0180
0180
0100
0300
0200
0600
0C00
1800
3000
6000
FFC0
ENDCHAR
STARTCHAR c51
ENCODING -1 51
SWIDTH 354 0
DWIDTH 11 0
BBX 7 15 2 0
BITMAP
F8
0C
06
06
06
06
0C
F0
0C
06
06
06
06
0C
F8
ENDCHAR
STARTCHAR c52
ENCODING -1 52
SWIDTH 354 0
DWIDTH 11 0
BBX 11 15 0 0
BITMAP
0300
0700
0700
0B00
1B00
1300
2300
6300
4300
8300
FFE0
0300
0300
0300
0300
ENDCHAR
STARTCHAR c53
ENCODING -1 53
SWIDTH 354 0
DWIDTH 11 0
BBX 8 15 1 0
BITMAP
7F
60
60
40
C0
C0
FC
06
03
03
03
03
06
0C
F0
ENDCHAR
STARTCHAR c54
ENCODING -1 54
SWIDTH 354 0
DWIDTH 11 0
BBX 9 15 1 0
BITMAP
0780
1800
2000
6000
4000
C000
DC00
E300
C100
C180
C180
C180
4100
6300
1C00
ENDCHAR
STARTCHAR c55
ENCODING -1 55
SWIDTH 354 0
DWIDTH 11 0
BBX 9 15 1 0
BITMAP
FF80
0180
0300
0300
0600
0600
0C00
0C00
1800
1800
3000
3000
6000
6000
6000
ENDCHAR
STARTCHAR c56
ENCODING -1 56
SWIDTH 354 0
DWIDTH 11 0
BBX 9 15 1 0
BITMAP
1E00
6300
C180
C180
C100
E200
7800
1C00
0F00
2380
4180
C180
C180
6300
3C00
ENDCHAR
STARTCHAR c57
ENCODING -1 57
SWIDTH 354 0
DWIDTH 11 0
BBX 9 15 1 0
BITMAP
1C00
6300
4100
C180
C180
C180
4180
6380
1D80
0180
0100
0300
0200
0C00
F000
ENDCHAR
STARTCHAR c58
ENCODING -1 58
SWIDTH 161 0
DWIDTH 5 0
BBX 2 11 2 0
BITMAP
C0
C0
00
00
00
00
00
00
00
C0
C0
ENDCHAR
STARTCHAR c59
ENCODING -1 59
SWIDTH 161 0
DWIDTH 5 0
BBX 2 14 2 -3
BITMAP
C0
C0
00
00
00
00
00
00
00
C0
C0
80
80
80
ENDCHAR
STARTCHAR c60
ENCODING -1 60
SWIDTH 387 0
DWIDTH 12 0
BBX 10 9 1 1
BITMAP
00C0
0300
0C00
3000
C000
3000
0C00
0300
00C0
ENDCHAR
STARTCHAR c61
ENCODING -1 61
SWIDTH 387 0
DWIDTH 12 0
BBX 10 5 1 3
BITMAP
FFC0
0000
0000
0000
FFC0
ENDCHAR
STARTCHAR c62
ENCODING -1 62
SWIDTH 387 0
DWIDTH 12 0
BBX 10 9 1 1
BITMAP
C000
3000
0C00
0300
00C0
0300
0C00
3000
C000
ENDCHAR
STARTCHAR c63
ENCODING -1 63
SWIDTH 290 0
DWIDTH 9 0
BBX 7 15 2 0
BITMAP
F8
0C
06
06
06
0C
18
30
60
60
60
00
00
60
60
ENDCHAR
STARTCHAR c64
ENCODING -1 64
SWIDTH 548 0
DWIDTH 17 0
BBX 15 18 1 -3
BITMAP
07E0
1C38
300C
6004
41E6
C662
8462
8C62
8C62
8C62
8C62
8CE2
C764
4064
6038
2000
3800
0F80
ENDCHAR
STARTCHAR c65
ENCODING -1 65
SWIDTH 387 0
DWIDTH 12 0
BBX 11 15 0 0
BITMAP
0600
0600
0600
0B00
0B00
0B00
1180
1180
3F80
20C0
60C0
40C0
4060
C060
8060
ENDCHAR
STARTCHAR c66
ENCODING -1 66
SWIDTH 387 0
DWIDTH 12 0
BBX 9 15 2 0
BITMAP
FE00
C300
C180
C180
C180
C180
C300
FC00
C300
C180
C180
C180
C180
C300
FE00
ENDCHAR
STARTCHAR c67
ENCODING -1 67
SWIDTH 419 0
DWIDTH 13 0
BBX 11 15 1 0
BITMAP
07C0
1800
2000
6000
4000
C000
C000
C000
C000
C000
4000
6000
2000
1860
0F80
ENDCHAR
STARTCHAR c68
ENCODING -1 68
SWIDTH 483 0
DWIDTH 15 0
BBX 12 15 2 0
BITMAP
FE00
C180
C040
C060
C020
C030
C030
C030
C030
C030
C020
C060
C040
C180
FE00
ENDCHAR
STARTCHAR c69
ENCODING -1 69
SWIDTH 354 0
DWIDTH 11 0
BBX 8 15 2 0
BITMAP
FF
C0
C0
C0
C0
C0
C0
FF
C0
C0
C0
C0
C0
C0
FF
ENDCHAR
STARTCHAR c70
ENCODING -1 70
SWIDTH 322 0
DWIDTH 10 0
BBX 8 15 2 0
BITMAP
FF
C0
C0
C0
C0
C0
C0
FF
C0
C0
C0
C0
C0
C0
C0
ENDCHAR
STARTCHAR c71
ENCODING -1 71
SWIDTH 483 0
DWIDTH 15 0
BBX 12 15 1 0
BITMAP
07E0
1800
2000
6000
4000
C000
C000
C030
C030
C030
4030
6030
2030
1870
0F80
ENDCHAR
STARTCHAR c72
ENCODING -1 72
SWIDTH 483 0
DWIDTH 15 0
BBX 11 15 2 0
BITMAP
C060
C060
C060
C060
C060
C060
C060
FFE0
C060
C060
C060
C060
C060
C060
C060
ENDCHAR
STARTCHAR c73
ENCODING -1 73
SWIDTH 193 0
DWIDTH 6 0
BBX 2 15 2 0
BITMAP
C0
C0
C0
C0
C0
C0
C0
C0
C0
C0
C0
C0
C0
C0
C0
ENDCHAR
STARTCHAR c74
ENCODING -1 74
SWIDTH 193 0
DWIDTH 6 0
BBX 4 15 0 0
BITMAP
30
30
30
30
30
30
30
30
30
30
30
30
30
20
C0
ENDCHAR
STARTCHAR c75
ENCODING -1 75
SWIDTH 387 0
DWIDTH 12 0
BBX 10 15 2 0
BITMAP
C0C0
C080
C300
C200
C400
C800
D000
D800
CC00
CE00
C700
C300
C180
C1C0
C0C0
ENDCHAR
STARTCHAR c76
ENCODING -1 76
SWIDTH 290 0
DWIDTH 9 0
BBX 7 15 2 0
BITMAP
C0
C0
C0
C0
C0
C0
C0
C0
C0
C0
C0
C0
C0
C0
FE
ENDCHAR
STARTCHAR c77
ENCODING -1 77
SWIDTH 645 0
DWIDTH 20 0
BBX 19 15 0 0
BITMAP
0C0300
0C0300
0C0300
160580
160580
160980
230980
2318C0
2310C0
6190C0
41A0C0
41A060
C0C060
80C060
80C060
ENDCHAR
STARTCHAR c78
ENCODING -1 78
SWIDTH 483 0
DWIDTH 15 0
BBX 11 15 2 0
BITMAP
C020
E020
E020
B020
B820
9820
8C20
8E20
8620
8320
83A0
81A0
80E0
80E0
8060
ENDCHAR
STARTCHAR c79
ENCODING -1 79
SWIDTH 516 0
DWIDTH 16 0
BBX 14 15 1 0
BITMAP
0780
1860
2010
6018
4008
C00C
C00C
C00C
C00C
C00C
4008
6018
2010
1860
0780
ENDCHAR
STARTCHAR c80
ENCODING -1 80
SWIDTH 322 0
DWIDTH 10 0
BBX 8 15 2 0
BITMAP
FC
C6
C3
C3
C3
C3
C6
FC
C0
C0
C0
C0
C0
C0
C0
ENDCHAR
STARTCHAR c81
ENCODING -1 81
SWIDTH 516 0
DWIDTH 16 0
BBX 14 18 1 -3
BITMAP
0780
1860
2010
6018
4008
C00C
C00C
C00C
C00C
C00C
4008
6018
2010
1860
0780
00C0
0060
0038
ENDCHAR
STARTCHAR c82
ENCODING -1 82
SWIDTH 354 0
DWIDTH 11 0
BBX 9 15 2 0
BITMAP
FC00
C600
C300
C300
C300
C300
C600
F800
CC00
CC00
C600
C700
C300
C180
C180
ENDCHAR
STARTCHAR c83
ENCODING -1 83
SWIDTH 322 0
DWIDTH 10 0
BBX 8 15 1 0
BITMAP
1F
60
C0
C0
C0
E0
70
3C
0E
07
03
03
03
06
F8
ENDCHAR
STARTCHAR c84
ENCODING -1 84
SWIDTH 322 0
DWIDTH 10 0
BBX 10 15 0 0
BITMAP
FFC0
0C00
0C00
0C00
0C00
0C00
0C00
0C00
0C00
0C00
0C00
0C00
0C00
0C00
0C00
ENDCHAR
STARTCHAR c85
ENCODING -1 85
SWIDTH 483 0
DWIDTH 15 0
BBX 11 15 2 0
BITMAP
C020
C020
C020
C020
C020
C020
C020
C020
C020
C020
C020
C020
4040
60C0
1F00
ENDCHAR
STARTCHAR c86
ENCODING -1 86
SWIDTH 387 0
DWIDTH 12 0
BBX 11 15 1 0
BITMAP
C020
C060
C040
6040
60C0
6080
3080
3100
3100
1A00
1A00
1A00
0C00
0C00
0C00
ENDCHAR
STARTCHAR c87
ENCODING -1 87
SWIDTH 645 0
DWIDTH 20 0
BBX 20 15 0 0
BITMAP
C06010
C06010
C06030
607020
60B060
60B040
309840
3118C0
311880
1A0C80
1A0D00
1A0D00
0C0600
0C0600
0C0600
ENDCHAR
STARTCHAR c88
ENCODING -1 88
SWIDTH 387 0
DWIDTH 12 0
BBX 12 15 0 0
BITMAP
6030
7020
3060
1840
1880
0D00
0D00
0600
0B00
0B00
1180
2180
60C0
40E0
C060
ENDCHAR
STARTCHAR c89
ENCODING -1 89
SWIDTH 354 0
DWIDTH 11 0
BBX 11 15 0 0
BITMAP
C060
C040
60C0
6080
3100
3100
1A00
1A00
0C00
0C00
0C00
0C00
0C00
0C00
0C00
ENDCHAR
STARTCHAR c90
ENCODING -1 90
SWIDTH 322 0
DWIDTH 10 0
BBX 10 15 0 0
BITMAP
FFC0
00C0
0180
0380
0300
0600
0600
0C00
1C00
1800
3000
7000
6000
C000
FFC0
ENDCHAR
STARTCHAR c91
ENCODING -1 91
SWIDTH 258 0
DWIDTH 8 0
BBX 4 20 2 -4
BITMAP
F0
80
80
80
80
80
80
80
80
80
80
80
80
80
80
80
80
80
80
F0
ENDCHAR
STARTCHAR c92
ENCODING -1 92
SWIDTH 290 0
DWIDTH 9 0
BBX 7 15 1 0
BITMAP
C0
40
40
60
20
20
30
10
18
08
08
0C
04
04
06
ENDCHAR
STARTCHAR c93
ENCODING -1 93
SWIDTH 258 0
DWIDTH 8 0
BBX 4 20 2 -4
BITMAP
F0
10
10
10
10
10
10
10
10
10
10
10
10
10
10
10
10
10
10
F0
ENDCHAR
STARTCHAR c94
ENCODING -1 94
SWIDTH 354 0
DWIDTH 11 0
BBX 9 12 1 0
BITMAP
0800
1C00
2A00
4900
8880
0800
0800
0800
0800
0800
0800
0800
ENDCHAR
STARTCHAR c95
ENCODING -1 95
SWIDTH 161 0
DWIDTH 5 0
BBX 5 1 0 -1
BITMAP
F8
ENDCHAR
STARTCHAR c96
ENCODING -1 96
SWIDTH 322 0
DWIDTH 10 0
BBX 3 4 3 12
BITMAP
80
80
40
20
ENDCHAR
STARTCHAR c97
ENCODING -1 97
SWIDTH 322 0
DWIDTH 10 0
BBX 8 11 1 0
BITMAP
3C
66
C6
06
06
3E
66
C6
C6
CE
73
ENDCHAR
STARTCHAR c98
ENCODING -1 98
SWIDTH 354 0
DWIDTH 11 0
BBX 8 17 2 0
BITMAP
C0
C0
C0
C0
C0
C0
DC
E6
C3
C3
C3
C3
C3
C3
C2
C6
F8
ENDCHAR
STARTCHAR c99
ENCODING -1 99
SWIDTH 290 0
DWIDTH 9 0
BBX 8 11 1 0
BITMAP
1E
60
40
C0
C0
C0
C0
C0
C1
62
3C
ENDCHAR
STARTCHAR c100
ENCODING -1 100
SWIDTH 354 0
DWIDTH 11 0
BBX 8 17 1 0
BITMAP
03
03
03
03
03
03
1F
63
43
C3
C3
C3
C3
C3
C3
67
3B
ENDCHAR
STARTCHAR c101
ENCODING -1 101
SWIDTH 322 0
DWIDTH 10 0
BBX 8 11 1 0
BITMAP
1C
66
43
C3
FF
C0
C0
C0
C1
62
3C
ENDCHAR
STARTCHAR c102
ENCODING -1 102
SWIDTH 193 0
DWIDTH 6 0
BBX 6 17 0 0
BITMAP
0C
10
30
30
30
30
FC
30
30
30
30
30
30
30
30
30
30
ENDCHAR
STARTCHAR c103
ENCODING -1 103
SWIDTH 290 0
DWIDTH 9 0
BBX 8 16 1 -5
BITMAP
3F
44
C6
C6
C6
44
38
40
C0
FC
3F
43
C3
C3
C6
78
ENDCHAR
STARTCHAR c104
ENCODING -1 104
SWIDTH 387 0
DWIDTH 12 0
BBX 8 17 2 0
BITMAP
C0
C0
C0
C0
C0
C0
CE
D3
E3
C3
C3
C3
C3
C3
C3
C3
C3
ENDCHAR
STARTCHAR c105
ENCODING -1 105
SWIDTH 193 0
DWIDTH 6 0
BBX 2 16 2 0
BITMAP
C0
C0
00
00
00
C0
C0
C0
C0
C0
C0
C0
C0
C0
C0
C0
ENDCHAR
STARTCHAR c106
ENCODING -1 106
SWIDTH 193 0
DWIDTH 6 0
BBX 4 21 0 -5
BITMAP
30
30
00
00
00
30
30
30
30
30
30
30
30
30
30
30
30
30
30
E0
C0
ENDCHAR
STARTCHAR c107
ENCODING -1 107
SWIDTH 322 0
DWIDTH 10 0
BBX 8 17 2 0
BITMAP
C0
C0
C0
C0
C0
C0
C3
C6
C4
D8
D0
E0
D8
DC
CE
C7
C3
ENDCHAR
STARTCHAR c108
ENCODING -1 108
SWIDTH 193 0
DWIDTH 6 0
BBX 2 17 2 0
BITMAP
C0
C0
C0
C0
C0
C0
C0
C0
C0
C0
C0
C0
C0
C0
C0
C0
C0
ENDCHAR
STARTCHAR c109
ENCODING -1 109
SWIDTH 580 0
DWIDTH 18 0
BBX 14 11 2 0
BITMAP
CE38
D34C
E38C
C30C
C30C
C30C
C30C
C30C
C30C
C30C
C30C
ENDCHAR
STARTCHAR c110
ENCODING -1 110
SWIDTH 387 0
DWIDTH 12 0
BBX 8 11 2 0
BITMAP
CE
D3
E3
C3
C3
C3
C3
C3
C3
C3
C3
ENDCHAR
STARTCHAR c111
ENCODING -1 111
SWIDTH 354 0
DWIDTH 11 0
BBX 9 11 1 0
BITMAP
1C00
6300
4100
C180
C180
C180
C180
C180
4100
6300
1C00
ENDCHAR
STARTCHAR c112
ENCODING -1 112
SWIDTH 354 0
DWIDTH 11 0
BBX 8 17 2 -6
BITMAP
DC
E6
C3
C3
C3
C3
C3
C3
C2
C6
F8
C0
C0
C0
C0
C0
C0
ENDCHAR
STARTCHAR c113
ENCODING -1 113
SWIDTH 354 0
DWIDTH 11 0
BBX 8 17 1 -6
BITMAP
1F
63
43
C3
C3
C3
C3
C3
C3
67
3B
03
03
03
03
03
03
ENDCHAR
STARTCHAR c114
ENCODING -1 114
SWIDTH 225 0
DWIDTH 7 0
BBX 5 11 2 0
BITMAP
D8
D8
E0
C0
C0
C0
C0
C0
C0
C0
C0
ENDCHAR
STARTCHAR c115
ENCODING -1 115
SWIDTH 258 0
DWIDTH 8 0
BBX 6 11 1 0
BITMAP
3C
40
C0
C0
E0
78
1C
0C
0C
08
F0
ENDCHAR
STARTCHAR c116
ENCODING -1 116
SWIDTH 193 0
DWIDTH 6 0
BBX 6 15 0 0
BITMAP
30
30
30
30
FC
30
30
30
30
30
30
30
30
30
1C
ENDCHAR
STARTCHAR c117
ENCODING -1 117
SWIDTH 387 0
DWIDTH 12 0
BBX 8 11 2 0
BITMAP
C3
C3
C3
C3
C3
C3
C3
C3
C7
CB
73
ENDCHAR
STARTCHAR c118
ENCODING -1 118
SWIDTH 290 0
DWIDTH 9 0
BBX 9 11 0 0
BITMAP
C180
C100
C100
6300
6200
6200
3400
3400
3400
1800
1800
ENDCHAR
STARTCHAR c119
ENCODING -1 119
SWIDTH 516 0
DWIDTH 16 0
BBX 16 11 0 0
BITMAP
C183
C182
C182
62C6
62C4
62C4
3468
3468
3468
1830
1830
ENDCHAR
STARTCHAR c120
ENCODING -1 120
SWIDTH 290 0
DWIDTH 9 0
BBX 9 11 0 0
BITMAP
6180
6100
3200
3200
1800
1C00
0C00
2600
2600
4300
C300
ENDCHAR
STARTCHAR c121
ENCODING -1 121
SWIDTH 290 0
DWIDTH 9 0
BBX 9 17 0 -6
BITMAP
C180
C100
C100
6300
6200
6200
3400
3400
3400
1800
1800
1000
1000
3000
2000
2000
C000
ENDCHAR
STARTCHAR c122
ENCODING -1 122
SWIDTH 290 0
DWIDTH 9 0
BBX 7 11 1 0
BITMAP
FE
06
0C
0C
18
10
30
60
60
C0
FE
ENDCHAR
STARTCHAR c123
ENCODING -1 123
SWIDTH 258 0
DWIDTH 8 0
BBX 7 20 0 -4
BITMAP
06
08
10
10
10
10
10
10
20
C0
20
10
10
10
10
10
10
10
08
06
ENDCHAR
STARTCHAR c124
ENCODING -1 124
SWIDTH 161 0
DWIDTH 5 0
BBX 1 20 2 -4
BITMAP
80
80
80
80
80
80
80
80
80
80
80
80
80
80
80
80
80
80
80
80
ENDCHAR
STARTCHAR c125
ENCODING -1 125
SWIDTH 258 0
DWIDTH 8 0
BBX 7 20 1 -4
BITMAP
C0
20
10
10
10
10
10
10
08
06
08
10
10
10
10
10
10
10
20
C0
ENDCHAR
STARTCHAR c126
ENCODING -1 126
SWIDTH 419 0
DWIDTH 13 0
BBX 11 4 1 4
BITMAP
7820
8C20
8620
83C0
ENDCHAR
STARTCHAR c128
ENCODING -1 128
SWIDTH 387 0
DWIDTH 12 0
BBX 12 17 0 0
BITMAP
1040
1040
0700
0700
0580
0980
0980
08C0
10C0
10C0
3FE0
2060
2060
6060
4030
C030
C030
ENDCHAR
STARTCHAR c129
ENCODING -1 129
SWIDTH 516 0
DWIDTH 16 0
BBX 14 17 1 0
BITMAP
1020
1020
0780
1860
2010
6018
4008
C00C
C00C
C00C
C00C
C00C
4008
6018
2010
1860
0780
ENDCHAR
STARTCHAR c130
ENCODING -1 130
SWIDTH 483 0
DWIDTH 15 0
BBX 11 17 2 0
BITMAP
1100
1100
C060
C020
C060
C020
C060
C020
C060
C020
C060
C020
C060
C020
4040
60C0
1F00
ENDCHAR
STARTCHAR c131
ENCODING -1 131
SWIDTH 322 0
DWIDTH 10 0
BBX 8 15 1 0
BITMAP
24
24
00
00
3C
66
C6
06
06
3E
66
C6
C6
CE
73
ENDCHAR
STARTCHAR c132
ENCODING -1 132
SWIDTH 354 0
DWIDTH 11 0
BBX 9 15 1 0
BITMAP
2200
2200
0000
0000
1C00
6300
4100
C180
C180
C180
C180
C180
4100
6300
1C00
ENDCHAR
STARTCHAR c133
ENCODING -1 133
SWIDTH 387 0
DWIDTH 12 0
BBX 8 15 2 0
BITMAP
24
24
00
00
C3
C3
C3
C3
C3
C3
C3
C3
C7
CB
73
ENDCHAR
STARTCHAR c134
ENCODING -1 134
SWIDTH 322 0
DWIDTH 10 0
BBX 8 16 1 0
BITMAP
18
24
42
00
00
3C
66
C6
06
06
3E
66
C6
C6
CE
73
ENDCHAR
STARTCHAR c135
ENCODING -1 135
SWIDTH 322 0
DWIDTH 10 0
BBX 8 16 1 0
BITMAP
08
14
22
41
00
1C
66
43
C3
FF
C0
C0
C0
C1
62
3C
ENDCHAR
STARTCHAR c136
ENCODING -1 136
SWIDTH 193 0
DWIDTH 6 0
BBX 6 16 0 0
BITMAP
30
48
84
00
00
30
30
30
30
30
30
30
30
30
30
30
ENDCHAR
STARTCHAR c137
ENCODING -1 137
SWIDTH 354 0
DWIDTH 11 0
BBX 9 16 1 0
BITMAP
0800
1400
2200
4100
0000
1C00
6300
4100
C180
C180
C180
C180
C180
4100
6300
1C00
ENDCHAR
STARTCHAR c138
ENCODING -1 138
SWIDTH 387 0
DWIDTH 12 0
BBX 8 16 2 0
BITMAP
20
20
10
08
00
C3
C3
C3
C3
C3
C3
C3
C3
C7
CB
73
ENDCHAR
STARTCHAR c139
ENCODING -1 139
SWIDTH 322 0
DWIDTH 10 0
BBX 8 16 1 0
BITMAP
20
20
10
08
00
3C
66
C6
06
06
3E
66
C6
C6
CE
73
ENDCHAR
STARTCHAR c140
ENCODING -1 140
SWIDTH 322 0
DWIDTH 10 0
BBX 8 16 1 0
BITMAP
20
20
10
08
00
1C
66
43
C3
FF
C0
C0
C0
C1
62
3C
ENDCHAR
STARTCHAR c141
ENCODING -1 141
SWIDTH 193 0
DWIDTH 6 0
BBX 3 16 1 0
BITMAP
80
80
40
20
00
60
60
60
60
60
60
60
60
60
60
60
ENDCHAR
STARTCHAR c142
ENCODING -1 142
SWIDTH 354 0
DWIDTH 11 0
BBX 9 16 1 0
BITMAP
2000
2000
1000
0800
0000
1C00
6300
4100
C180
C180
C180
C180
C180
4100
6300
1C00
ENDCHAR
STARTCHAR c143
ENCODING -1 143
SWIDTH 387 0
DWIDTH 12 0
BBX 8 16 2 0
BITMAP
20
20
10
08
00
C3
C3
C3
C3
C3
C3
C3
C3
C7
CB
73
ENDCHAR
STARTCHAR c144
ENCODING -1 144
SWIDTH 387 0
DWIDTH 12 0
BBX 8 16 2 0
BITMAP
20
20
10
08
00
C3
C3
C3
C3
C3
C3
C3
C3
C7
CB
73
ENDCHAR
STARTCHAR c145
ENCODING -1 145
SWIDTH 322 0
DWIDTH 10 0
BBX 8 15 1 0
BITMAP
22
22
00
00
1C
66
43
C3
FF
C0
C0
C0
C1
62
3C
ENDCHAR
STARTCHAR c146
ENCODING -1 146
SWIDTH 193 0
DWIDTH 6 0
BBX 4 15 1 0
BITMAP
90
90
00
00
60
60
60
60
60
60
60
60
60
60
60
ENDCHAR
STARTCHAR c147
ENCODING -1 147
SWIDTH 290 0
DWIDTH 9 0
BBX 8 16 1 -5
BITMAP
1E
60
40
C0
C0
C0
C0
C0
C1
62
3C
00
18
08
08
10
ENDCHAR
STARTCHAR c148
ENCODING -1 148
SWIDTH 322 0
DWIDTH 10 0
BBX 8 16 1 0
BITMAP
02
02
04
08
00
3C
66
C6
06
06
3E
66
C6
C6
CE
73
ENDCHAR
STARTCHAR c149
ENCODING -1 149
SWIDTH 387 0
DWIDTH 12 0
BBX 8 16 2 0
BITMAP
31
49
46
00
00
CE
D3
E3
C3
C3
C3
C3
C3
C3
C3
C3
ENDCHAR
STARTCHAR c155
ENCODING -1 155
SWIDTH 387 0
DWIDTH 12 0
BBX 12 1 0 5
BITMAP
FFF0
ENDCHAR
STARTCHAR c159
ENCODING -1 159
SWIDTH 354 0
DWIDTH 11 0
BBX 0 0 0 0
BITMAP
ENDCHAR
ENDFONT
