STARTFONT 2.1
COMMENT  
COMMENT  Public Domain
COMMENT  
COMMENT  WARNING:  This bdf file was generated from a font server using
COMMENT  fstobdf.  The resulting font is subject to the same copyright,
COMMENT  license, and trademark restrictions as the original font.  The
COMMENT  authors and distributors of fstobdf disclaim all liability for
COMMENT  misuse of the program or its output.
COMMENT  
FONT cmr14.Scn.Fnt
SIZE 7 164 164
FONTBOUNDINGBOX 18 15 -1 -4
STARTPROPERTIES 12
COPYRIGHT "Public Domain"
POINT_SIZE 70
FONT "cmr14.Scn.Fnt"
WEIGHT 10
RESOLUTION 226
RESOLUTION_X 164
RESOLUTION_Y 164
X_HEIGHT 0
QUAD_WIDTH 11
DEFAULT_CHAR 0
FONT_ASCENT 11
FONT_DESCENT 6
ENDPROPERTIES
CHARS 128
STARTCHAR C000
ENCODING 0
SWIDTH 689 0
DWIDTH 11 0
BBX 9 10 0 0
BITMAP
ff80
3180
3080
3080
3000
3000
3000
3000
3000
fc00
ENDCHAR
STARTCHAR C001
ENCODING 1
SWIDTH 940 0
DWIDTH 15 0
BBX 12 10 1 0
BITMAP
0600
0600
0b00
1b80
1180
21c0
20c0
4060
7fe0
fff0
ENDCHAR
STARTCHAR C002
ENCODING 2
SWIDTH 878 0
DWIDTH 14 0
BBX 11 10 1 0
BITMAP
1f00
3180
60c0
ca60
ce60
ce60
ca60
60c0
3180
1f00
ENDCHAR
STARTCHAR C003
ENCODING 3
SWIDTH 752 0
DWIDTH 12 0
BBX 11 10 0 0
BITMAP
0400
0e00
0e00
0e00
1f00
1300
1300
3380
2180
f3e0
ENDCHAR
STARTCHAR C004
ENCODING 4
SWIDTH 752 0
DWIDTH 12 0
BBX 9 10 1 0
BITMAP
ff80
ff80
8080
4100
7f00
7f00
4100
8080
ff80
ff80
ENDCHAR
STARTCHAR C005
ENCODING 5
SWIDTH 815 0
DWIDTH 13 0
BBX 12 10 0 0
BITMAP
fff0
30c0
30c0
30c0
30c0
30c0
30c0
30c0
30c0
f9f0
ENDCHAR
STARTCHAR C006
ENCODING 6
SWIDTH 815 0
DWIDTH 13 0
BBX 10 10 1 0
BITMAP
ffc0
e0c0
7040
3840
1c00
0c00
1840
3040
60c0
ffc0
ENDCHAR
STARTCHAR C007
ENCODING 7
SWIDTH 878 0
DWIDTH 14 0
BBX 11 10 1 0
BITMAP
71c0
9b20
0e00
0600
0600
0600
0600
0600
0600
1f80
ENDCHAR
STARTCHAR C010
ENCODING 8
SWIDTH 815 0
DWIDTH 13 0
BBX 10 10 1 0
BITMAP
3f00
0c00
3f00
6d80
ccc0
ccc0
6d80
3f00
0c00
3f00
ENDCHAR
STARTCHAR C011
ENCODING 9
SWIDTH 878 0
DWIDTH 14 0
BBX 11 10 1 0
BITMAP
1f80
0600
e6e0
66c0
66c0
66c0
3780
1f00
0600
1f80
ENDCHAR
STARTCHAR C012
ENCODING 10
SWIDTH 815 0
DWIDTH 13 0
BBX 10 10 1 0
BITMAP
3f00
6180
c0c0
c0c0
c0c0
4080
6180
a140
7380
7380
ENDCHAR
STARTCHAR C013
ENCODING 11
SWIDTH 689 0
DWIDTH 11 0
BBX 12 10 -1 0
BITMAP
07f0
1880
1080
1080
ffe0
1080
1080
1080
1080
30c0
ENDCHAR
STARTCHAR C014
ENCODING 12
SWIDTH 627 0
DWIDTH 10 0
BBX 9 10 -1 0
BITMAP
0f00
1000
1000
1000
ff00
1300
1100
1100
1100
3180
ENDCHAR
STARTCHAR C015
ENCODING 13
SWIDTH 627 0
DWIDTH 10 0
BBX 9 10 -1 0
BITMAP
0f00
1100
1100
1100
ff00
1100
1100
1100
1100
3180
ENDCHAR
STARTCHAR C016
ENCODING 14
SWIDTH 940 0
DWIDTH 15 0
BBX 14 10 -1 0
BITMAP
07f8
1880
1080
1080
fff8
1098
1088
1088
1088
308c
ENDCHAR
STARTCHAR C017
ENCODING 15
SWIDTH 940 0
DWIDTH 15 0
BBX 14 10 -1 0
BITMAP
07f8
1888
1088
1088
fff8
1088
1088
1088
1088
39dc
ENDCHAR
STARTCHAR C020
ENCODING 16
SWIDTH 313 0
DWIDTH 5 0
BBX 3 6 1 0
BITMAP
c0
40
40
40
40
e0
ENDCHAR
STARTCHAR C021
ENCODING 17
SWIDTH 376 0
DWIDTH 6 0
BBX 4 9 -1 -3
BITMAP
30
10
10
10
10
10
10
10
e0
ENDCHAR
STARTCHAR C022
ENCODING 18
SWIDTH 564 0
DWIDTH 9 0
BBX 3 3 2 7
BITMAP
80
40
20
ENDCHAR
STARTCHAR C023
ENCODING 19
SWIDTH 564 0
DWIDTH 9 0
BBX 3 3 3 7
BITMAP
20
40
80
ENDCHAR
STARTCHAR C024
ENCODING 20
SWIDTH 564 0
DWIDTH 9 0
BBX 4 1 2 8
BITMAP
f0
ENDCHAR
STARTCHAR C025
ENCODING 21
SWIDTH 564 0
DWIDTH 9 0
BBX 6 3 1 7
BITMAP
84
cc
78
ENDCHAR
STARTCHAR C026
ENCODING 22
SWIDTH 564 0
DWIDTH 9 0
BBX 6 1 1 8
BITMAP
fc
ENDCHAR
STARTCHAR C027
ENCODING 23
SWIDTH 815 0
DWIDTH 13 0
BBX 4 3 4 7
BITMAP
60
90
60
ENDCHAR
STARTCHAR C030
ENCODING 24
SWIDTH 501 0
DWIDTH 8 0
BBX 4 3 2 -3
BITMAP
60
10
f0
ENDCHAR
STARTCHAR C031
ENCODING 25
SWIDTH 564 0
DWIDTH 9 0
BBX 7 10 1 0
BITMAP
38
44
44
44
d8
44
42
42
42
dc
ENDCHAR
STARTCHAR C032
ENCODING 26
SWIDTH 815 0
DWIDTH 13 0
BBX 11 6 1 0
BITMAP
7bc0
3fe0
4400
8400
8620
79c0
ENDCHAR
STARTCHAR C033
ENCODING 27
SWIDTH 878 0
DWIDTH 14 0
BBX 12 6 1 0
BITMAP
31e0
cff0
8400
8400
ce10
79e0
ENDCHAR
STARTCHAR C034
ENCODING 28
SWIDTH 564 0
DWIDTH 9 0
BBX 6 9 1 -1
BITMAP
04
08
78
94
b4
a4
c4
78
80
ENDCHAR
STARTCHAR C035
ENCODING 29
SWIDTH 1003 0
DWIDTH 16 0
BBX 15 10 0 0
BITMAP
0ffc
058c
0584
0994
0990
1ff0
1192
1192
2184
f3fc
ENDCHAR
STARTCHAR C036
ENCODING 30
SWIDTH 1128 0
DWIDTH 18 0
BBX 16 10 1 0
BITMAP
1ffe
31c6
61ca
c0ca
c0f8
c0c8
c0c9
61c1
31c2
1ffe
ENDCHAR
STARTCHAR C037
ENCODING 31
SWIDTH 878 0
DWIDTH 14 0
BBX 11 12 1 -1
BITMAP
0080
1f80
2180
4340
c260
c460
c460
c860
5840
3080
3f00
2000
ENDCHAR
STARTCHAR space
ENCODING 32
SWIDTH 313 0
DWIDTH 5 0
BBX 4 1 0 4
BITMAP
f0
ENDCHAR
STARTCHAR exclam
ENCODING 33
SWIDTH 313 0
DWIDTH 5 0
BBX 2 10 1 0
BITMAP
c0
c0
c0
c0
c0
00
00
00
c0
c0
ENDCHAR
STARTCHAR quotedbl
ENCODING 34
SWIDTH 564 0
DWIDTH 9 0
BBX 5 5 1 5
BITMAP
d8
d8
48
48
90
ENDCHAR
STARTCHAR numbersign
ENCODING 35
SWIDTH 940 0
DWIDTH 15 0
BBX 12 13 1 -3
BITMAP
0440
0440
0440
0880
fff0
1100
1100
0880
fff0
1100
2200
2200
2200
ENDCHAR
STARTCHAR dollar
ENCODING 36
SWIDTH 564 0
DWIDTH 9 0
BBX 6 12 1 -1
BITMAP
20
78
a4
a4
e0
78
3c
24
a4
a0
70
20
ENDCHAR
STARTCHAR percent
ENCODING 37
SWIDTH 940 0
DWIDTH 15 0
BBX 12 12 1 -1
BITMAP
7020
8cc0
8b80
8880
8900
7200
04e0
0910
1110
1110
2110
40e0
ENDCHAR
STARTCHAR ampersand
ENCODING 38
SWIDTH 878 0
DWIDTH 14 0
BBX 11 10 1 0
BITMAP
1800
2400
2400
2c00
39e0
7080
d100
8a00
c620
7bc0
ENDCHAR
STARTCHAR apostrophe
ENCODING 39
SWIDTH 313 0
DWIDTH 5 0
BBX 2 5 1 5
BITMAP
c0
c0
40
40
80
ENDCHAR
STARTCHAR parenleft
ENCODING 40
SWIDTH 439 0
DWIDTH 7 0
BBX 4 15 1 -4
BITMAP
10
20
40
40
80
80
80
80
80
80
80
40
40
20
10
ENDCHAR
STARTCHAR parenright
ENCODING 41
SWIDTH 439 0
DWIDTH 7 0
BBX 4 15 1 -4
BITMAP
80
40
20
20
10
10
10
10
10
10
10
20
20
40
80
ENDCHAR
STARTCHAR asterisk
ENCODING 42
SWIDTH 564 0
DWIDTH 9 0
BBX 6 6 1 5
BITMAP
10
94
78
78
94
10
ENDCHAR
STARTCHAR plus
ENCODING 43
SWIDTH 878 0
DWIDTH 14 0
BBX 11 11 1 -2
BITMAP
0400
0400
0400
0400
0400
ffe0
0400
0400
0400
0400
0400
ENDCHAR
STARTCHAR comma
ENCODING 44
SWIDTH 313 0
DWIDTH 5 0
BBX 2 5 1 -3
BITMAP
c0
c0
40
40
80
ENDCHAR
STARTCHAR minus
ENCODING 45
SWIDTH 376 0
DWIDTH 6 0
BBX 4 1 0 2
BITMAP
f0
ENDCHAR
STARTCHAR period
ENCODING 46
SWIDTH 313 0
DWIDTH 5 0
BBX 2 2 1 0
BITMAP
c0
c0
ENDCHAR
STARTCHAR slash
ENCODING 47
SWIDTH 564 0
DWIDTH 9 0
BBX 6 15 1 -4
BITMAP
04
04
08
08
08
10
10
10
20
20
40
40
40
80
80
ENDCHAR
STARTCHAR 0
ENCODING 48
SWIDTH 564 0
DWIDTH 9 0
BBX 6 10 1 0
BITMAP
78
48
84
84
84
84
84
84
48
78
ENDCHAR
STARTCHAR 1
ENCODING 49
SWIDTH 564 0
DWIDTH 9 0
BBX 5 10 1 0
BITMAP
20
e0
20
20
20
20
20
20
20
f8
ENDCHAR
STARTCHAR 2
ENCODING 50
SWIDTH 564 0
DWIDTH 9 0
BBX 6 10 1 0
BITMAP
70
8c
c4
04
0c
08
10
20
44
fc
ENDCHAR
STARTCHAR 3
ENCODING 51
SWIDTH 564 0
DWIDTH 9 0
BBX 6 10 1 0
BITMAP
78
8c
0c
0c
38
08
0c
cc
c8
70
ENDCHAR
STARTCHAR 4
ENCODING 52
SWIDTH 564 0
DWIDTH 9 0
BBX 8 10 0 0
BITMAP
0c
1c
34
64
c4
ff
04
04
04
1f
ENDCHAR
STARTCHAR 5
ENCODING 53
SWIDTH 564 0
DWIDTH 9 0
BBX 6 10 1 0
BITMAP
48
78
60
40
78
4c
0c
8c
88
70
ENDCHAR
STARTCHAR 6
ENCODING 54
SWIDTH 564 0
DWIDTH 9 0
BBX 6 10 1 0
BITMAP
38
44
44
80
b8
c4
84
84
4c
38
ENDCHAR
STARTCHAR 7
ENCODING 55
SWIDTH 564 0
DWIDTH 9 0
BBX 7 10 1 0
BITMAP
fe
82
04
08
10
10
20
20
20
20
ENDCHAR
STARTCHAR 8
ENCODING 56
SWIDTH 564 0
DWIDTH 9 0
BBX 6 10 1 0
BITMAP
78
84
84
e8
78
5c
8c
84
80
70
ENDCHAR
STARTCHAR 9
ENCODING 57
SWIDTH 564 0
DWIDTH 9 0
BBX 6 10 1 0
BITMAP
30
48
84
84
8c
74
04
88
88
70
ENDCHAR
STARTCHAR colon
ENCODING 58
SWIDTH 313 0
DWIDTH 5 0
BBX 2 6 1 0
BITMAP
c0
c0
00
00
c0
c0
ENDCHAR
STARTCHAR semicolon
ENCODING 59
SWIDTH 313 0
DWIDTH 5 0
BBX 2 9 1 -3
BITMAP
c0
c0
00
00
c0
c0
40
40
80
ENDCHAR
STARTCHAR less
ENCODING 60
SWIDTH 313 0
DWIDTH 5 0
BBX 2 11 1 -3
BITMAP
c0
c0
00
00
00
c0
c0
c0
c0
c0
c0
ENDCHAR
STARTCHAR equal
ENCODING 61
SWIDTH 878 0
DWIDTH 14 0
BBX 11 5 1 1
BITMAP
ffe0
0000
0000
0000
ffe0
ENDCHAR
STARTCHAR greater
ENCODING 62
SWIDTH 564 0
DWIDTH 9 0
BBX 6 11 1 -3
BITMAP
30
30
00
00
00
20
20
40
80
84
78
ENDCHAR
STARTCHAR question
ENCODING 63
SWIDTH 564 0
DWIDTH 9 0
BBX 6 10 1 0
BITMAP
78
84
0c
10
10
00
00
00
30
30
ENDCHAR
STARTCHAR at
ENCODING 64
SWIDTH 878 0
DWIDTH 14 0
BBX 11 10 1 0
BITMAP
1f00
2080
4e40
91a0
a0a0
a0a0
91a0
4ec0
2000
1fe0
ENDCHAR
STARTCHAR A
ENCODING 65
SWIDTH 815 0
DWIDTH 13 0
BBX 12 10 0 0
BITMAP
0600
0600
0600
0b00
0b00
1b80
1180
1f80
20c0
f1f0
ENDCHAR
STARTCHAR B
ENCODING 66
SWIDTH 815 0
DWIDTH 13 0
BBX 11 10 0 0
BITMAP
ff80
30e0
3060
3060
3fc0
30c0
3060
3060
30e0
ff80
ENDCHAR
STARTCHAR C
ENCODING 67
SWIDTH 815 0
DWIDTH 13 0
BBX 10 10 1 0
BITMAP
1f40
30c0
6040
c040
c000
c000
c040
6040
3080
1f00
ENDCHAR
STARTCHAR D
ENCODING 68
SWIDTH 878 0
DWIDTH 14 0
BBX 12 10 0 0
BITMAP
ff80
30c0
3020
3030
3030
3030
3030
3020
30e0
ff80
ENDCHAR
STARTCHAR E
ENCODING 69
SWIDTH 752 0
DWIDTH 12 0
BBX 11 10 0 0
BITMAP
ffc0
30c0
3240
3240
3e00
3200
3220
3020
3040
ffc0
ENDCHAR
STARTCHAR F
ENCODING 70
SWIDTH 752 0
DWIDTH 12 0
BBX 10 10 0 0
BITMAP
ffc0
30c0
3140
3140
3f00
3100
3100
3000
3000
fc00
ENDCHAR
STARTCHAR G
ENCODING 71
SWIDTH 878 0
DWIDTH 14 0
BBX 11 10 1 0
BITMAP
1f40
30c0
6040
c040
c000
c3e0
c0c0
60c0
30c0
1f40
ENDCHAR
STARTCHAR H
ENCODING 72
SWIDTH 815 0
DWIDTH 13 0
BBX 12 10 0 0
BITMAP
f9f0
30c0
30c0
30c0
3fc0
30c0
30c0
30c0
30c0
f9f0
ENDCHAR
STARTCHAR I
ENCODING 73
SWIDTH 439 0
DWIDTH 7 0
BBX 6 10 0 0
BITMAP
fc
30
30
30
30
30
30
30
30
fc
ENDCHAR
STARTCHAR J
ENCODING 74
SWIDTH 564 0
DWIDTH 9 0
BBX 6 10 1 0
BITMAP
7c
18
18
18
18
18
18
d8
d8
70
ENDCHAR
STARTCHAR K
ENCODING 75
SWIDTH 878 0
DWIDTH 14 0
BBX 12 10 0 0
BITMAP
fcf0
3080
3100
3200
3600
3b00
3380
3180
30c0
fdf0
ENDCHAR
STARTCHAR L
ENCODING 76
SWIDTH 689 0
DWIDTH 11 0
BBX 9 10 0 0
BITMAP
fc00
3000
3000
3000
3000
3000
3080
3080
3180
ff80
ENDCHAR
STARTCHAR M
ENCODING 77
SWIDTH 1003 0
DWIDTH 16 0
BBX 15 10 0 0
BITMAP
f83e
3838
2858
2c58
2c58
2698
2698
2318
2318
fb7e
ENDCHAR
STARTCHAR N
ENCODING 78
SWIDTH 815 0
DWIDTH 13 0
BBX 12 10 0 0
BITMAP
f9f0
3840
2c40
2e40
2640
2340
21c0
21c0
20c0
f840
ENDCHAR
STARTCHAR O
ENCODING 79
SWIDTH 878 0
DWIDTH 14 0
BBX 11 10 1 0
BITMAP
1f00
3180
60c0
c060
c060
c060
c060
60c0
3180
1f00
ENDCHAR
STARTCHAR P
ENCODING 80
SWIDTH 752 0
DWIDTH 12 0
BBX 10 10 0 0
BITMAP
ff00
3080
30c0
30c0
3080
3f00
3000
3000
3000
fc00
ENDCHAR
STARTCHAR Q
ENCODING 81
SWIDTH 878 0
DWIDTH 14 0
BBX 11 13 1 -3
BITMAP
1f00
3180
60c0
c060
c060
c060
c060
60c0
3f80
1f00
0100
01e0
00c0
ENDCHAR
STARTCHAR R
ENCODING 82
SWIDTH 815 0
DWIDTH 13 0
BBX 12 10 0 0
BITMAP
ff00
30c0
30c0
30c0
3f00
3180
3180
3180
3180
fcf0
ENDCHAR
STARTCHAR S
ENCODING 83
SWIDTH 627 0
DWIDTH 10 0
BBX 7 10 1 0
BITMAP
7e
82
80
c0
78
3c
02
02
80
f8
ENDCHAR
STARTCHAR T
ENCODING 84
SWIDTH 815 0
DWIDTH 13 0
BBX 10 10 1 0
BITMAP
ffc0
8c40
8c40
8c40
0c00
0c00
0c00
0c00
0c00
3f00
ENDCHAR
STARTCHAR U
ENCODING 85
SWIDTH 815 0
DWIDTH 13 0
BBX 12 10 0 0
BITMAP
fdf0
3040
3040
3040
3040
3040
3040
3040
1080
0f00
ENDCHAR
STARTCHAR V
ENCODING 86
SWIDTH 815 0
DWIDTH 13 0
BBX 12 10 0 0
BITMAP
f8f0
3040
38c0
1880
1880
0d00
0d00
0f00
0600
0600
ENDCHAR
STARTCHAR W
ENCODING 87
SWIDTH 1128 0
DWIDTH 18 0
BBX 17 10 0 0
BITMAP
fbe780
30c200
30c200
196400
196400
1b7400
0e3800
0e3800
0c1800
041000
ENDCHAR
STARTCHAR X
ENCODING 88
SWIDTH 815 0
DWIDTH 13 0
BBX 12 10 0 0
BITMAP
f9e0
1980
1d00
0e00
0600
0700
0b00
1980
11c0
f9f0
ENDCHAR
STARTCHAR Y
ENCODING 89
SWIDTH 815 0
DWIDTH 13 0
BBX 12 10 0 0
BITMAP
f8f0
3040
1880
1d80
0d00
0600
0600
0600
0600
1f80
ENDCHAR
STARTCHAR Z
ENCODING 90
SWIDTH 689 0
DWIDTH 11 0
BBX 8 10 1 0
BITMAP
ff
c6
86
8c
18
19
31
61
63
ff
ENDCHAR
STARTCHAR bracketleft
ENCODING 91
SWIDTH 313 0
DWIDTH 5 0
BBX 3 15 1 -4
BITMAP
e0
80
80
80
80
80
80
80
80
80
80
80
80
80
e0
ENDCHAR
STARTCHAR backslash
ENCODING 92
SWIDTH 564 0
DWIDTH 9 0
BBX 5 5 2 5
BITMAP
48
90
90
d8
d8
ENDCHAR
STARTCHAR bracketright
ENCODING 93
SWIDTH 313 0
DWIDTH 5 0
BBX 3 15 0 -4
BITMAP
e0
20
20
20
20
20
20
20
20
20
20
20
20
20
e0
ENDCHAR
STARTCHAR asciicircum
ENCODING 94
SWIDTH 564 0
DWIDTH 9 0
BBX 4 2 2 8
BITMAP
60
90
ENDCHAR
STARTCHAR underscore
ENCODING 95
SWIDTH 313 0
DWIDTH 5 0
BBX 2 2 1 9
BITMAP
c0
c0
ENDCHAR
STARTCHAR grave
ENCODING 96
SWIDTH 313 0
DWIDTH 5 0
BBX 2 5 1 5
BITMAP
40
80
80
c0
c0
ENDCHAR
STARTCHAR a
ENCODING 97
SWIDTH 564 0
DWIDTH 9 0
BBX 7 6 1 0
BITMAP
70
18
68
88
8a
7c
ENDCHAR
STARTCHAR b
ENCODING 98
SWIDTH 627 0
DWIDTH 10 0
BBX 7 10 1 0
BITMAP
c0
40
40
40
7c
46
42
42
44
78
ENDCHAR
STARTCHAR c
ENCODING 99
SWIDTH 501 0
DWIDTH 8 0
BBX 6 6 1 0
BITMAP
78
c0
80
80
c4
78
ENDCHAR
STARTCHAR d
ENCODING 100
SWIDTH 627 0
DWIDTH 10 0
BBX 7 10 1 0
BITMAP
0c
04
04
04
3c
44
84
84
c4
7e
ENDCHAR
STARTCHAR e
ENCODING 101
SWIDTH 501 0
DWIDTH 8 0
BBX 5 6 1 0
BITMAP
70
f8
80
80
c8
70
ENDCHAR
STARTCHAR f
ENCODING 102
SWIDTH 376 0
DWIDTH 6 0
BBX 7 10 -1 0
BITMAP
0e
10
10
10
fc
10
10
10
10
38
ENDCHAR
STARTCHAR g
ENCODING 103
SWIDTH 564 0
DWIDTH 9 0
BBX 8 10 0 -4
BITMAP
3f
44
44
78
40
7e
81
81
42
3c
ENDCHAR
STARTCHAR h
ENCODING 104
SWIDTH 627 0
DWIDTH 10 0
BBX 7 10 1 0
BITMAP
c0
40
40
40
78
44
44
44
44
e6
ENDCHAR
STARTCHAR i
ENCODING 105
SWIDTH 313 0
DWIDTH 5 0
BBX 3 11 1 0
BITMAP
c0
c0
00
00
00
c0
40
40
40
40
e0
ENDCHAR
STARTCHAR j
ENCODING 106
SWIDTH 376 0
DWIDTH 6 0
BBX 4 14 -1 -3
BITMAP
30
30
00
00
00
30
10
10
10
10
10
10
10
e0
ENDCHAR
STARTCHAR k
ENCODING 107
SWIDTH 627 0
DWIDTH 10 0
BBX 8 10 1 0
BITMAP
c0
40
40
40
4f
58
70
48
44
e7
ENDCHAR
STARTCHAR l
ENCODING 108
SWIDTH 313 0
DWIDTH 5 0
BBX 3 10 1 0
BITMAP
c0
40
40
40
40
40
40
40
40
e0
ENDCHAR
STARTCHAR m
ENCODING 109
SWIDTH 940 0
DWIDTH 15 0
BBX 13 6 1 0
BITMAP
fde0
4210
4210
4210
4210
e738
ENDCHAR
STARTCHAR n
ENCODING 110
SWIDTH 627 0
DWIDTH 10 0
BBX 7 6 1 0
BITMAP
f8
44
44
44
44
e6
ENDCHAR
STARTCHAR o
ENCODING 111
SWIDTH 564 0
DWIDTH 9 0
BBX 6 6 1 0
BITMAP
78
84
84
84
84
78
ENDCHAR
STARTCHAR p
ENCODING 112
SWIDTH 627 0
DWIDTH 10 0
BBX 7 9 1 -3
BITMAP
fc
46
42
42
44
78
40
40
e0
ENDCHAR
STARTCHAR q
ENCODING 113
SWIDTH 627 0
DWIDTH 10 0
BBX 7 9 1 -3
BITMAP
3c
44
84
84
cc
74
04
04
0e
ENDCHAR
STARTCHAR r
ENCODING 114
SWIDTH 439 0
DWIDTH 7 0
BBX 5 6 1 0
BITMAP
f8
40
40
40
40
e0
ENDCHAR
STARTCHAR s
ENCODING 115
SWIDTH 439 0
DWIDTH 7 0
BBX 4 6 1 0
BITMAP
70
90
e0
10
90
e0
ENDCHAR
STARTCHAR t
ENCODING 116
SWIDTH 439 0
DWIDTH 7 0
BBX 5 9 0 0
BITMAP
20
20
60
f8
20
20
28
28
10
ENDCHAR
STARTCHAR u
ENCODING 117
SWIDTH 627 0
DWIDTH 10 0
BBX 7 6 1 0
BITMAP
cc
44
44
44
44
3e
ENDCHAR
STARTCHAR v
ENCODING 118
SWIDTH 627 0
DWIDTH 10 0
BBX 9 6 0 0
BITMAP
e380
2200
2200
1400
1400
0800
ENDCHAR
STARTCHAR w
ENCODING 119
SWIDTH 815 0
DWIDTH 13 0
BBX 12 6 0 0
BITMAP
e770
2640
2940
2940
1980
1080
ENDCHAR
STARTCHAR x
ENCODING 120
SWIDTH 627 0
DWIDTH 10 0
BBX 9 6 0 0
BITMAP
e380
1400
0800
1400
2200
e380
ENDCHAR
STARTCHAR y
ENCODING 121
SWIDTH 627 0
DWIDTH 10 0
BBX 9 9 0 -3
BITMAP
e380
2200
2200
1400
1400
0800
0800
1000
e000
ENDCHAR
STARTCHAR z
ENCODING 122
SWIDTH 501 0
DWIDTH 8 0
BBX 6 6 0 0
BITMAP
7c
48
50
24
44
fc
ENDCHAR
STARTCHAR braceleft
ENCODING 123
SWIDTH 564 0
DWIDTH 9 0
BBX 8 1 0 3
BITMAP
ff
ENDCHAR
STARTCHAR bar
ENCODING 124
SWIDTH 1128 0
DWIDTH 18 0
BBX 17 1 0 3
BITMAP
ffff80
ENDCHAR
STARTCHAR braceright
ENCODING 125
SWIDTH 564 0
DWIDTH 9 0
BBX 5 3 2 7
BITMAP
48
d8
90
ENDCHAR
STARTCHAR asciitilde
ENCODING 126
SWIDTH 564 0
DWIDTH 9 0
BBX 6 2 1 8
BITMAP
64
98
ENDCHAR
STARTCHAR C177
ENCODING 127
SWIDTH 564 0
DWIDTH 9 0
BBX 4 2 2 9
BITMAP
f0
f0
ENDCHAR
ENDFONT
