STARTFONT 2.1
COMMENT converted Oberon font (using FontToBDF by R.Crelier 10.1.91)
FONT Syntax14b.Scn.Fnt
SIZE 14 75 75
FONTBOUNDINGBOX  16 16 0 -4
STARTPROPERTIES 3
FONT_ASCENT 12
FONT_DESCENT 4
DEFAULT_CHAR 0
ENDPROPERTIES
CHARS 122
STARTCHAR c0
ENCODING -1 0
SWIDTH 0 0
DWIDTH 0 0
BBX 0 0 0 0
BITMAP
ENDCHAR
STARTCHAR c9
ENCODING -1 9
SWIDTH 387 0
DWIDTH 12 0
BBX 0 0 0 0
BITMAP
ENDCHAR
STARTCHAR c32
ENCODING -1 32
SWIDTH 96 0
DWIDTH 3 0
BBX 0 0 0 0
BITMAP
ENDCHAR
STARTCHAR c33
ENCODING -1 33
SWIDTH 161 0
DWIDTH 5 0
BBX 2 11 2 0
BITMAP
C0
C0
C0
C0
C0
C0
C0
00
00
C0
C0
ENDCHAR
STARTCHAR c34
ENCODING -1 34
SWIDTH 225 0
DWIDTH 7 0
BBX 5 3 1 8
BITMAP
D8
90
90
ENDCHAR
STARTCHAR c35
ENCODING -1 35
SWIDTH 322 0
DWIDTH 10 0
BBX 8 11 1 0
BITMAP
24
24
24
FF
24
24
24
FF
24
24
24
ENDCHAR
STARTCHAR c36
ENCODING -1 36
SWIDTH 290 0
DWIDTH 9 0
BBX 7 13 1 -1
BITMAP
10
7E
D0
D0
D0
F0
7C
1E
16
16
16
FC
10
ENDCHAR
STARTCHAR c37
ENCODING -1 37
SWIDTH 419 0
DWIDTH 13 0
BBX 11 11 1 0
BITMAP
7080
D880
D900
DA00
7200
0400
09C0
0B60
1360
2360
21C0
ENDCHAR
STARTCHAR c38
ENCODING -1 38
SWIDTH 322 0
DWIDTH 10 0
BBX 9 11 1 0
BITMAP
3800
6400
6400
6800
3000
3900
5D00
CE00
C700
CB80
7180
ENDCHAR
STARTCHAR c39
ENCODING -1 39
SWIDTH 129 0
DWIDTH 4 0
BBX 2 3 1 8
BITMAP
C0
80
80
ENDCHAR
STARTCHAR c40
ENCODING -1 40
SWIDTH 193 0
DWIDTH 6 0
BBX 4 15 1 -3
BITMAP
10
20
40
40
80
80
80
80
80
80
80
40
40
20
10
ENDCHAR
STARTCHAR c41
ENCODING -1 41
SWIDTH 193 0
DWIDTH 6 0
BBX 4 15 1 -3
BITMAP
80
40
20
20
10
10
10
10
10
10
10
20
20
40
80
ENDCHAR
STARTCHAR c42
ENCODING -1 42
SWIDTH 290 0
DWIDTH 9 0
BBX 7 7 1 1
BITMAP
44
28
10
FE
10
28
44
ENDCHAR
STARTCHAR c43
ENCODING -1 43
SWIDTH 290 0
DWIDTH 9 0
BBX 7 7 1 1
BITMAP
10
10
10
FE
10
10
10
ENDCHAR
STARTCHAR c44
ENCODING -1 44
SWIDTH 129 0
DWIDTH 4 0
BBX 2 4 1 -2
BITMAP
C0
C0
80
80
ENDCHAR
STARTCHAR c45
ENCODING -1 45
SWIDTH 290 0
DWIDTH 9 0
BBX 7 1 1 4
BITMAP
FE
ENDCHAR
STARTCHAR c46
ENCODING -1 46
SWIDTH 129 0
DWIDTH 4 0
BBX 2 2 1 0
BITMAP
C0
C0
ENDCHAR
STARTCHAR c47
ENCODING -1 47
SWIDTH 258 0
DWIDTH 8 0
BBX 7 11 1 0
BITMAP
02
02
04
08
08
10
20
20
40
80
80
ENDCHAR
STARTCHAR c48
ENCODING -1 48
SWIDTH 290 0
DWIDTH 9 0
BBX 8 11 1 0
BITMAP
3C
66
42
C3
C3
C3
C3
C3
42
66
3C
ENDCHAR
STARTCHAR c49
ENCODING -1 49
SWIDTH 290 0
DWIDTH 9 0
BBX 6 11 1 0
BITMAP
1C
34
6C
CC
8C
0C
0C
0C
0C
0C
0C
ENDCHAR
STARTCHAR c50
ENCODING -1 50
SWIDTH 290 0
DWIDTH 9 0
BBX 7 11 1 0
BITMAP
F8
1C
0C
0C
0C
18
18
30
60
C0
FE
ENDCHAR
STARTCHAR c51
ENCODING -1 51
SWIDTH 290 0
DWIDTH 9 0
BBX 6 11 2 0
BITMAP
F8
0C
0C
0C
08
F0
0C
0C
0C
18
F0
ENDCHAR
STARTCHAR c52
ENCODING -1 52
SWIDTH 290 0
DWIDTH 9 0
BBX 8 11 1 0
BITMAP
1C
1C
2C
6C
4C
CC
8C
FF
0C
0C
0C
ENDCHAR
STARTCHAR c53
ENCODING -1 53
SWIDTH 290 0
DWIDTH 9 0
BBX 6 11 2 0
BITMAP
FC
C0
C0
C0
F8
1C
0C
0C
0C
18
F0
ENDCHAR
STARTCHAR c54
ENCODING -1 54
SWIDTH 290 0
DWIDTH 9 0
BBX 7 11 1 0
BITMAP
0E
30
60
60
C0
DC
E6
C6
C6
64
38
ENDCHAR
STARTCHAR c55
ENCODING -1 55
SWIDTH 290 0
DWIDTH 9 0
BBX 7 11 1 0
BITMAP
FE
06
0C
0C
18
18
30
30
60
60
60
ENDCHAR
STARTCHAR c56
ENCODING -1 56
SWIDTH 290 0
DWIDTH 9 0
BBX 7 11 1 0
BITMAP
7C
C6
C2
C2
64
38
4C
86
86
C6
7C
ENDCHAR
STARTCHAR c57
ENCODING -1 57
SWIDTH 290 0
DWIDTH 9 0
BBX 7 11 1 0
BITMAP
38
4C
C6
C6
CE
76
06
0C
0C
18
E0
ENDCHAR
STARTCHAR c58
ENCODING -1 58
SWIDTH 161 0
DWIDTH 5 0
BBX 2 7 2 0
BITMAP
C0
C0
00
00
00
C0
C0
ENDCHAR
STARTCHAR c59
ENCODING -1 59
SWIDTH 161 0
DWIDTH 5 0
BBX 2 9 2 -2
BITMAP
C0
C0
00
00
00
C0
C0
80
80
ENDCHAR
STARTCHAR c60
ENCODING -1 60
SWIDTH 290 0
DWIDTH 9 0
BBX 8 8 0 0
BITMAP
03
0C
30
C0
C0
30
0C
03
ENDCHAR
STARTCHAR c61
ENCODING -1 61
SWIDTH 290 0
DWIDTH 9 0
BBX 7 4 1 2
BITMAP
FE
00
00
FE
ENDCHAR
STARTCHAR c62
ENCODING -1 62
SWIDTH 290 0
DWIDTH 9 0
BBX 8 8 1 0
BITMAP
C0
30
0C
03
03
0C
30
C0
ENDCHAR
STARTCHAR c63
ENCODING -1 63
SWIDTH 225 0
DWIDTH 7 0
BBX 6 11 1 0
BITMAP
F8
0C
0C
0C
18
30
60
60
00
60
60
ENDCHAR
STARTCHAR c64
ENCODING -1 64
SWIDTH 451 0
DWIDTH 14 0
BBX 14 12 0 -1
BITMAP
0FE0
3838
6008
43CC
C4CC
CCCC
CCCC
CD4C
CEC8
40D8
7060
1E00
ENDCHAR
STARTCHAR c65
ENCODING -1 65
SWIDTH 322 0
DWIDTH 10 0
BBX 9 11 1 0
BITMAP
1C00
1C00
1600
3600
3600
2300
6300
7F00
6380
C180
C180
ENDCHAR
STARTCHAR c66
ENCODING -1 66
SWIDTH 322 0
DWIDTH 10 0
BBX 7 11 2 0
BITMAP
FC
C6
C6
C6
C4
F8
C4
C6
C6
C6
FC
ENDCHAR
STARTCHAR c67
ENCODING -1 67
SWIDTH 290 0
DWIDTH 9 0
BBX 8 11 1 0
BITMAP
1F
70
60
C0
C0
C0
C0
C0
60
70
1F
ENDCHAR
STARTCHAR c68
ENCODING -1 68
SWIDTH 387 0
DWIDTH 12 0
BBX 9 11 2 0
BITMAP
FC00
C300
C300
C180
C180
C180
C180
C180
C300
C300
FC00
ENDCHAR
STARTCHAR c69
ENCODING -1 69
SWIDTH 290 0
DWIDTH 9 0
BBX 6 11 2 0
BITMAP
FC
C0
C0
C0
C0
FC
C0
C0
C0
C0
FC
ENDCHAR
STARTCHAR c70
ENCODING -1 70
SWIDTH 290 0
DWIDTH 9 0
BBX 6 11 2 0
BITMAP
FC
C0
C0
C0
C0
FC
C0
C0
C0
C0
C0
ENDCHAR
STARTCHAR c71
ENCODING -1 71
SWIDTH 322 0
DWIDTH 10 0
BBX 8 11 1 0
BITMAP
1E
60
60
C0
C0
C3
C3
C3
63
63
1F
ENDCHAR
STARTCHAR c72
ENCODING -1 72
SWIDTH 354 0
DWIDTH 11 0
BBX 8 11 2 0
BITMAP
C3
C3
C3
C3
C3
FF
C3
C3
C3
C3
C3
ENDCHAR
STARTCHAR c73
ENCODING -1 73
SWIDTH 161 0
DWIDTH 5 0
BBX 2 11 2 0
BITMAP
C0
C0
C0
C0
C0
C0
C0
C0
C0
C0
C0
ENDCHAR
STARTCHAR c74
ENCODING -1 74
SWIDTH 161 0
DWIDTH 5 0
BBX 4 11 0 0
BITMAP
30
30
30
30
30
30
30
30
30
60
C0
ENDCHAR
STARTCHAR c75
ENCODING -1 75
SWIDTH 354 0
DWIDTH 11 0
BBX 8 11 2 0
BITMAP
C3
C3
C6
CC
D8
F0
F8
DC
CE
C7
C3
ENDCHAR
STARTCHAR c76
ENCODING -1 76
SWIDTH 258 0
DWIDTH 8 0
BBX 6 11 2 0
BITMAP
C0
C0
C0
C0
C0
C0
C0
C0
C0
C0
FC
ENDCHAR
STARTCHAR c77
ENCODING -1 77
SWIDTH 483 0
DWIDTH 15 0
BBX 13 11 1 0
BITMAP
38E0
38E0
38E0
2CB0
6DB0
6DB0
6DB0
4D38
C718
C718
C718
ENDCHAR
STARTCHAR c78
ENCODING -1 78
SWIDTH 354 0
DWIDTH 11 0
BBX 8 11 2 0
BITMAP
E3
E1
F3
B1
DB
99
DB
8D
CF
87
C7
ENDCHAR
STARTCHAR c79
ENCODING -1 79
SWIDTH 354 0
DWIDTH 11 0
BBX 10 11 1 0
BITMAP
1E00
6180
6180
C0C0
C0C0
C0C0
C0C0
C0C0
6180
6180
1E00
ENDCHAR
STARTCHAR c80
ENCODING -1 80
SWIDTH 290 0
DWIDTH 9 0
BBX 7 11 2 0
BITMAP
FC
C6
C6
C6
C6
FC
C0
C0
C0
C0
C0
ENDCHAR
STARTCHAR c81
ENCODING -1 81
SWIDTH 354 0
DWIDTH 11 0
BBX 10 13 1 -2
BITMAP
1E00
6180
6180
C0C0
C0C0
C0C0
C0C0
C0C0
6180
6180
1E00
0380
01C0
ENDCHAR
STARTCHAR c82
ENCODING -1 82
SWIDTH 322 0
DWIDTH 10 0
BBX 8 11 2 0
BITMAP
FC
C6
C6
C6
C4
D8
CC
CE
C6
C7
C3
ENDCHAR
STARTCHAR c83
ENCODING -1 83
SWIDTH 258 0
DWIDTH 8 0
BBX 7 11 1 0
BITMAP
3E
E0
C0
C0
F0
7C
1E
06
06
0E
F8
ENDCHAR
STARTCHAR c84
ENCODING -1 84
SWIDTH 258 0
DWIDTH 8 0
BBX 8 11 0 0
BITMAP
FF
18
18
18
18
18
18
18
18
18
18
ENDCHAR
STARTCHAR c85
ENCODING -1 85
SWIDTH 354 0
DWIDTH 11 0
BBX 8 11 2 0
BITMAP
C3
C1
C3
C1
C3
C1
C3
C1
C3
66
3C
ENDCHAR
STARTCHAR c86
ENCODING -1 86
SWIDTH 322 0
DWIDTH 10 0
BBX 9 11 1 0
BITMAP
C180
C180
E100
6300
6300
6200
3600
3600
3400
1C00
1C00
ENDCHAR
STARTCHAR c87
ENCODING -1 87
SWIDTH 516 0
DWIDTH 16 0
BBX 15 11 1 0
BITMAP
C306
C306
C304
618C
638C
6388
36D8
36D8
34D0
1C70
1C70
ENDCHAR
STARTCHAR c88
ENCODING -1 88
SWIDTH 290 0
DWIDTH 9 0
BBX 8 11 1 0
BITMAP
C3
E3
62
74
34
18
2C
2E
46
C7
C3
ENDCHAR
STARTCHAR c89
ENCODING -1 89
SWIDTH 258 0
DWIDTH 8 0
BBX 8 11 0 0
BITMAP
C3
C3
62
66
34
34
18
18
18
18
18
ENDCHAR
STARTCHAR c90
ENCODING -1 90
SWIDTH 290 0
DWIDTH 9 0
BBX 8 11 1 0
BITMAP
FF
03
06
0E
0C
18
30
70
60
C0
FF
ENDCHAR
STARTCHAR c91
ENCODING -1 91
SWIDTH 193 0
DWIDTH 6 0
BBX 3 15 2 -3
BITMAP
E0
80
80
80
80
80
80
80
80
80
80
80
80
80
E0
ENDCHAR
STARTCHAR c92
ENCODING -1 92
SWIDTH 258 0
DWIDTH 8 0
BBX 7 11 1 0
BITMAP
80
80
40
20
20
10
08
08
04
02
02
ENDCHAR
STARTCHAR c93
ENCODING -1 93
SWIDTH 193 0
DWIDTH 6 0
BBX 3 15 1 -3
BITMAP
E0
20
20
20
20
20
20
20
20
20
20
20
20
20
E0
ENDCHAR
STARTCHAR c94
ENCODING -1 94
SWIDTH 322 0
DWIDTH 10 0
BBX 7 9 2 0
BITMAP
10
38
54
92
10
10
10
10
10
ENDCHAR
STARTCHAR c95
ENCODING -1 95
SWIDTH 129 0
DWIDTH 4 0
BBX 4 1 0 4
BITMAP
F0
ENDCHAR
STARTCHAR c96
ENCODING -1 96
SWIDTH 258 0
DWIDTH 8 0
BBX 3 3 2 9
BITMAP
C0
40
20
ENDCHAR
STARTCHAR c97
ENCODING -1 97
SWIDTH 258 0
DWIDTH 8 0
BBX 7 8 1 0
BITMAP
78
CC
0C
7C
CC
CC
DC
EE
ENDCHAR
STARTCHAR c98
ENCODING -1 98
SWIDTH 290 0
DWIDTH 9 0
BBX 7 12 1 0
BITMAP
C0
C0
C0
C0
DC
E6
C6
C6
C6
C6
CC
F8
ENDCHAR
STARTCHAR c99
ENCODING -1 99
SWIDTH 225 0
DWIDTH 7 0
BBX 6 8 1 0
BITMAP
3C
60
C0
C0
C0
C0
CC
78
ENDCHAR
STARTCHAR c100
ENCODING -1 100
SWIDTH 290 0
DWIDTH 9 0
BBX 7 12 1 0
BITMAP
06
06
06
06
3E
66
C6
C6
C6
C6
CE
76
ENDCHAR
STARTCHAR c101
ENCODING -1 101
SWIDTH 258 0
DWIDTH 8 0
BBX 6 8 1 0
BITMAP
38
4C
C4
FC
C0
C0
CC
78
ENDCHAR
STARTCHAR c102
ENCODING -1 102
SWIDTH 161 0
DWIDTH 5 0
BBX 5 12 0 0
BITMAP
38
60
60
60
F8
60
60
60
60
60
60
60
ENDCHAR
STARTCHAR c103
ENCODING -1 103
SWIDTH 258 0
DWIDTH 8 0
BBX 7 12 1 -4
BITMAP
7E
CC
CC
CC
78
80
80
FC
7E
C6
C6
7C
ENDCHAR
STARTCHAR c104
ENCODING -1 104
SWIDTH 290 0
DWIDTH 9 0
BBX 7 12 1 0
BITMAP
C0
C0
C0
C0
DC
E6
C6
C6
C6
C6
C6
C6
ENDCHAR
STARTCHAR c105
ENCODING -1 105
SWIDTH 129 0
DWIDTH 4 0
BBX 2 11 1 0
BITMAP
C0
C0
00
C0
C0
C0
C0
C0
C0
C0
C0
ENDCHAR
STARTCHAR c106
ENCODING -1 106
SWIDTH 129 0
DWIDTH 4 0
BBX 3 16 0 -4
BITMAP
60
60
00
00
60
60
60
60
60
60
60
60
60
60
60
C0
ENDCHAR
STARTCHAR c107
ENCODING -1 107
SWIDTH 290 0
DWIDTH 9 0
BBX 8 12 1 0
BITMAP
C0
C0
C0
C0
C3
C6
CC
D8
DC
CE
C7
C3
ENDCHAR
STARTCHAR c108
ENCODING -1 108
SWIDTH 129 0
DWIDTH 4 0
BBX 2 12 1 0
BITMAP
C0
C0
C0
C0
C0
C0
C0
C0
C0
C0
C0
C0
ENDCHAR
STARTCHAR c109
ENCODING -1 109
SWIDTH 451 0
DWIDTH 14 0
BBX 12 8 1 0
BITMAP
DCE0
E730
C630
C630
C630
C630
C630
C630
ENDCHAR
STARTCHAR c110
ENCODING -1 110
SWIDTH 290 0
DWIDTH 9 0
BBX 7 8 1 0
BITMAP
DC
E6
C6
C6
C6
C6
C6
C6
ENDCHAR
STARTCHAR c111
ENCODING -1 111
SWIDTH 290 0
DWIDTH 9 0
BBX 7 8 1 0
BITMAP
3C
66
C6
C6
C6
C6
CC
78
ENDCHAR
STARTCHAR c112
ENCODING -1 112
SWIDTH 290 0
DWIDTH 9 0
BBX 7 12 1 -4
BITMAP
DC
E6
C6
C6
C6
C6
CC
F8
C0
C0
C0
C0
ENDCHAR
STARTCHAR c113
ENCODING -1 113
SWIDTH 290 0
DWIDTH 9 0
BBX 7 12 1 -4
BITMAP
3E
66
C6
C6
C6
C6
CE
76
06
06
06
06
ENDCHAR
STARTCHAR c114
ENCODING -1 114
SWIDTH 193 0
DWIDTH 6 0
BBX 5 8 1 0
BITMAP
D8
D8
E0
C0
C0
C0
C0
C0
ENDCHAR
STARTCHAR c115
ENCODING -1 115
SWIDTH 225 0
DWIDTH 7 0
BBX 5 8 1 0
BITMAP
78
C0
C0
F0
78
18
18
F0
ENDCHAR
STARTCHAR c116
ENCODING -1 116
SWIDTH 193 0
DWIDTH 6 0
BBX 6 11 0 0
BITMAP
60
60
60
FC
60
60
60
60
60
6C
38
ENDCHAR
STARTCHAR c117
ENCODING -1 117
SWIDTH 290 0
DWIDTH 9 0
BBX 7 8 1 0
BITMAP
C6
C6
C6
C6
C6
C6
CE
76
ENDCHAR
STARTCHAR c118
ENCODING -1 118
SWIDTH 258 0
DWIDTH 8 0
BBX 7 8 1 0
BITMAP
C6
C6
C4
6C
68
68
30
30
ENDCHAR
STARTCHAR c119
ENCODING -1 119
SWIDTH 387 0
DWIDTH 12 0
BBX 11 8 1 0
BITMAP
CC60
CC60
CC40
66C0
6E80
6E80
3300
3300
ENDCHAR
STARTCHAR c120
ENCODING -1 120
SWIDTH 258 0
DWIDTH 8 0
BBX 6 8 1 0
BITMAP
C4
CC
68
30
30
58
CC
8C
ENDCHAR
STARTCHAR c121
ENCODING -1 121
SWIDTH 258 0
DWIDTH 8 0
BBX 7 12 1 -4
BITMAP
C6
C6
C4
6C
68
68
30
30
30
20
60
C0
ENDCHAR
STARTCHAR c122
ENCODING -1 122
SWIDTH 225 0
DWIDTH 7 0
BBX 5 8 1 0
BITMAP
F8
18
30
30
60
60
C0
F8
ENDCHAR
STARTCHAR c123
ENCODING -1 123
SWIDTH 225 0
DWIDTH 7 0
BBX 6 15 0 -3
BITMAP
0C
10
10
10
10
10
20
C0
20
10
10
10
10
10
0C
ENDCHAR
STARTCHAR c124
ENCODING -1 124
SWIDTH 258 0
DWIDTH 8 0
BBX 1 15 4 -3
BITMAP
80
80
80
80
80
80
80
80
80
80
80
80
80
80
80
ENDCHAR
STARTCHAR c125
ENCODING -1 125
SWIDTH 225 0
DWIDTH 7 0
BBX 6 15 1 -3
BITMAP
C0
20
20
20
20
20
10
0C
10
20
20
20
20
20
C0
ENDCHAR
STARTCHAR c126
ENCODING -1 126
SWIDTH 322 0
DWIDTH 10 0
BBX 8 4 1 2
BITMAP
71
99
99
8E
ENDCHAR
STARTCHAR c128
ENCODING -1 128
SWIDTH 322 0
DWIDTH 10 0
BBX 9 12 1 0
BITMAP
C180
DD80
1C00
1600
3600
3600
2300
6300
7F00
6380
C180
C180
ENDCHAR
STARTCHAR c129
ENCODING -1 129
SWIDTH 354 0
DWIDTH 11 0
BBX 10 12 1 0
BITMAP
C0C0
DEC0
6180
6180
C0C0
C0C0
C0C0
C0C0
C0C0
6180
6180
1E00
ENDCHAR
STARTCHAR c130
ENCODING -1 130
SWIDTH 354 0
DWIDTH 11 0
BBX 8 12 2 0
BITMAP
18
DB
C1
C3
C1
C3
C1
C3
C1
C3
66
3C
ENDCHAR
STARTCHAR c131
ENCODING -1 131
SWIDTH 258 0
DWIDTH 8 0
BBX 7 11 1 0
BITMAP
6C
6C
00
78
CC
0C
7C
CC
CC
DC
EE
ENDCHAR
STARTCHAR c132
ENCODING -1 132
SWIDTH 290 0
DWIDTH 9 0
BBX 7 11 1 0
BITMAP
66
66
00
3C
66
C6
C6
C6
C6
CC
78
ENDCHAR
STARTCHAR c133
ENCODING -1 133
SWIDTH 290 0
DWIDTH 9 0
BBX 7 11 1 0
BITMAP
6C
6C
00
C6
C6
C6
C6
C6
C6
CE
76
ENDCHAR
STARTCHAR c134
ENCODING -1 134
SWIDTH 258 0
DWIDTH 8 0
BBX 7 12 1 0
BITMAP
30
48
84
00
78
CC
0C
7C
CC
CC
DC
EE
ENDCHAR
STARTCHAR c135
ENCODING -1 135
SWIDTH 258 0
DWIDTH 8 0
BBX 7 12 1 0
BITMAP
18
24
42
00
38
4C
C4
FC
C0
C0
CC
78
ENDCHAR
STARTCHAR c136
ENCODING -1 136
SWIDTH 129 0
DWIDTH 4 0
BBX 4 12 0 0
BITMAP
60
90
00
00
60
60
60
60
60
60
60
60
ENDCHAR
STARTCHAR c137
ENCODING -1 137
SWIDTH 290 0
DWIDTH 9 0
BBX 7 12 1 0
BITMAP
18
24
42
00
3C
66
C6
C6
C6
C6
CC
78
ENDCHAR
STARTCHAR c138
ENCODING -1 138
SWIDTH 290 0
DWIDTH 9 0
BBX 7 12 1 0
BITMAP
18
24
42
00
C6
C6
C6
C6
C6
C6
CE
76
ENDCHAR
STARTCHAR c139
ENCODING -1 139
SWIDTH 258 0
DWIDTH 8 0
BBX 7 12 1 0
BITMAP
60
20
10
00
78
CC
0C
7C
CC
CC
DC
EE
ENDCHAR
STARTCHAR c140
ENCODING -1 140
SWIDTH 258 0
DWIDTH 8 0
BBX 6 12 1 0
BITMAP
60
30
08
00
38
4C
C4
FC
C0
C0
CC
78
ENDCHAR
STARTCHAR c141
ENCODING -1 141
SWIDTH 129 0
DWIDTH 4 0
BBX 4 12 0 0
BITMAP
C0
60
10
00
60
60
60
60
60
60
60
60
ENDCHAR
STARTCHAR c142
ENCODING -1 142
SWIDTH 290 0
DWIDTH 9 0
BBX 7 12 1 0
BITMAP
60
30
08
00
3C
66
C6
C6
C6
C6
CC
78
ENDCHAR
STARTCHAR c143
ENCODING -1 143
SWIDTH 290 0
DWIDTH 9 0
BBX 7 12 1 0
BITMAP
60
30
08
00
C6
C6
C6
C6
C6
C6
CE
76
ENDCHAR
STARTCHAR c144
ENCODING -1 144
SWIDTH 258 0
DWIDTH 8 0
BBX 6 12 1 0
BITMAP
0C
18
20
00
38
4C
C4
FC
C0
C0
CC
78
ENDCHAR
STARTCHAR c145
ENCODING -1 145
SWIDTH 258 0
DWIDTH 8 0
BBX 6 11 1 0
BITMAP
6C
6C
00
38
4C
C4
FC
C0
C0
CC
78
ENDCHAR
STARTCHAR c146
ENCODING -1 146
SWIDTH 129 0
DWIDTH 4 0
BBX 4 11 0 0
BITMAP
90
90
00
60
60
60
60
60
60
60
60
ENDCHAR
STARTCHAR c147
ENCODING -1 147
SWIDTH 225 0
DWIDTH 7 0
BBX 6 12 1 -4
BITMAP
3C
60
C0
C0
C0
C0
CC
78
00
30
10
20
ENDCHAR
STARTCHAR c148
ENCODING -1 148
SWIDTH 258 0
DWIDTH 8 0
BBX 7 12 1 0
BITMAP
0C
18
20
00
78
CC
0C
7C
CC
CC
DC
EE
ENDCHAR
STARTCHAR c149
ENCODING -1 149
SWIDTH 290 0
DWIDTH 9 0
BBX 7 12 1 0
BITMAP
72
9C
00
00
DC
E6
C6
C6
C6
C6
C6
C6
ENDCHAR
STARTCHAR c155
ENCODING -1 155
SWIDTH 290 0
DWIDTH 9 0
BBX 9 1 0 4
BITMAP
FF80
ENDCHAR
STARTCHAR c159
ENCODING -1 159
SWIDTH 290 0
DWIDTH 9 0
BBX 0 0 0 0
BITMAP
ENDCHAR
STARTCHAR c171
ENCODING -1 171
SWIDTH 290 0
DWIDTH 9 0
BBX 8 12 1 0
BITMAP
3C
66
C6
C4
C8
DC
CE
C7
C3
C3
C6
DC
ENDCHAR
ENDFONT
