STARTFONT 2.1
COMMENT converted Oberon font (using FontToBDF by R.Crelier 10.1.91)
FONT Syntax24.Scn.Fnt
SIZE 24 75 75
FONTBOUNDINGBOX  25 28 0 -7
STARTPROPERTIES 3
FONT_ASCENT 21
FONT_DESCENT 7
DEFAULT_CHAR 0
ENDPROPERTIES
CHARS 122
STARTCHAR c0
ENCODING -1 0
SWIDTH 0 0
DWIDTH 0 0
BBX 0 0 0 0
BITMAP
ENDCHAR
STARTCHAR c9
ENCODING -1 9
SWIDTH 903 0
DWIDTH 28 0
BBX 0 0 0 0
BITMAP
ENDCHAR
STARTCHAR c32
ENCODING -1 32
SWIDTH 225 0
DWIDTH 7 0
BBX 0 0 0 0
BITMAP
ENDCHAR
STARTCHAR c33
ENCODING -1 33
SWIDTH 225 0
DWIDTH 7 0
BBX 2 18 3 0
BITMAP
C0
C0
C0
C0
C0
C0
C0
C0
C0
C0
C0
C0
C0
00
00
00
C0
C0
ENDCHAR
STARTCHAR c34
ENCODING -1 34
SWIDTH 258 0
DWIDTH 8 0
BBX 5 6 2 12
BITMAP
D8
D8
D8
90
90
90
ENDCHAR
STARTCHAR c35
ENCODING -1 35
SWIDTH 451 0
DWIDTH 14 0
BBX 13 18 0 0
BITMAP
18C0
18C0
18C0
18C0
18C0
18C0
FFF8
18C0
18C0
18C0
18C0
FFF8
18C0
18C0
18C0
18C0
18C0
18C0
ENDCHAR
STARTCHAR c36
ENCODING -1 36
SWIDTH 419 0
DWIDTH 13 0
BBX 11 22 1 -2
BITMAP
0400
0400
1F80
6460
4400
C400
C400
C400
C400
6400
3C00
0780
04C0
0460
0460
0460
0460
0440
C4C0
3F00
0400
0400
ENDCHAR
STARTCHAR c37
ENCODING -1 37
SWIDTH 580 0
DWIDTH 18 0
BBX 16 18 1 0
BITMAP
3C04
660C
C318
C310
C330
C360
6640
3CC0
0180
0100
033C
0666
04C3
0CC3
18C3
10C3
3066
203C
ENDCHAR
STARTCHAR c38
ENCODING -1 38
SWIDTH 451 0
DWIDTH 14 0
BBX 13 18 1 0
BITMAP
0F00
1980
3080
3080
3180
1900
1A00
0C00
0E30
1630
2310
4190
C190
C0E0
C060
C060
61B0
3E38
ENDCHAR
STARTCHAR c39
ENCODING -1 39
SWIDTH 161 0
DWIDTH 5 0
BBX 2 6 2 12
BITMAP
C0
C0
C0
80
80
80
ENDCHAR
STARTCHAR c40
ENCODING -1 40
SWIDTH 290 0
DWIDTH 9 0
BBX 6 23 1 -4
BITMAP
04
08
10
20
20
40
40
40
80
80
80
80
80
80
80
40
40
40
20
20
10
08
04
ENDCHAR
STARTCHAR c41
ENCODING -1 41
SWIDTH 290 0
DWIDTH 9 0
BBX 6 23 2 -4
BITMAP
80
40
20
10
10
08
08
08
04
04
04
04
04
04
04
08
08
08
10
10
20
40
80
ENDCHAR
STARTCHAR c42
ENCODING -1 42
SWIDTH 451 0
DWIDTH 14 0
BBX 13 13 0 0
BITMAP
3060
1040
18C0
0880
0500
0500
FFF8
0500
0500
0880
18C0
1040
3060
ENDCHAR
STARTCHAR c43
ENCODING -1 43
SWIDTH 451 0
DWIDTH 14 0
BBX 13 13 0 0
BITMAP
0200
0200
0200
0200
0200
0200
FFF8
0200
0200
0200
0200
0200
0200
ENDCHAR
STARTCHAR c44
ENCODING -1 44
SWIDTH 161 0
DWIDTH 5 0
BBX 2 6 2 -3
BITMAP
C0
C0
C0
80
80
80
ENDCHAR
STARTCHAR c45
ENCODING -1 45
SWIDTH 451 0
DWIDTH 14 0
BBX 12 1 1 6
BITMAP
FFF0
ENDCHAR
STARTCHAR c46
ENCODING -1 46
SWIDTH 161 0
DWIDTH 5 0
BBX 2 3 2 0
BITMAP
C0
C0
C0
ENDCHAR
STARTCHAR c47
ENCODING -1 47
SWIDTH 354 0
DWIDTH 11 0
BBX 9 18 1 0
BITMAP
0180
0100
0100
0300
0200
0600
0400
0400
0C00
0800
1800
1000
1000
3000
2000
6000
4000
C000
ENDCHAR
STARTCHAR c48
ENCODING -1 48
SWIDTH 419 0
DWIDTH 13 0
BBX 11 18 1 0
BITMAP
0E00
3180
2080
60C0
4040
C060
C060
C060
C060
C060
C060
C060
C060
4040
60C0
2080
3180
0E00
ENDCHAR
STARTCHAR c49
ENCODING -1 49
SWIDTH 419 0
DWIDTH 13 0
BBX 7 18 1 0
BITMAP
06
0E
16
36
66
C6
06
06
06
06
06
06
06
06
06
06
06
06
ENDCHAR
STARTCHAR c50
ENCODING -1 50
SWIDTH 419 0
DWIDTH 13 0
BBX 11 18 1 0
BITMAP
7E00
0380
0180
00C0
00C0
00C0
00C0
0180
0180
0300
0300
0600
0C00
1800
3000
6000
C000
FFE0
ENDCHAR
STARTCHAR c51
ENCODING -1 51
SWIDTH 419 0
DWIDTH 13 0
BBX 9 18 2 0
BITMAP
FC00
0700
0300
0180
0180
0180
0300
0600
7800
0600
0300
0180
0180
0180
0180
0300
0700
FC00
ENDCHAR
STARTCHAR c52
ENCODING -1 52
SWIDTH 419 0
DWIDTH 13 0
BBX 12 18 0 0
BITMAP
0180
0380
0580
0D80
0980
1980
3180
2180
6180
C180
8180
FFF0
0180
0180
0180
0180
0180
0180
ENDCHAR
STARTCHAR c53
ENCODING -1 53
SWIDTH 419 0
DWIDTH 13 0
BBX 9 18 2 0
BITMAP
7F80
6000
6000
4000
C000
C000
FC00
C700
0300
0180
0180
0180
0180
0180
0300
0300
0E00
F800
ENDCHAR
STARTCHAR c54
ENCODING -1 54
SWIDTH 419 0
DWIDTH 13 0
BBX 11 18 1 0
BITMAP
03E0
0E00
0800
3800
2000
6000
6000
C000
CF00
D1C0
E0C0
C060
C060
C060
C060
60C0
71C0
1F00
ENDCHAR
STARTCHAR c55
ENCODING -1 55
SWIDTH 419 0
DWIDTH 13 0
BBX 10 18 1 0
BITMAP
FFC0
00C0
00C0
0180
0180
0300
0300
0600
0600
0C00
0C00
1800
1800
3000
3000
6000
6000
6000
ENDCHAR
STARTCHAR c56
ENCODING -1 56
SWIDTH 419 0
DWIDTH 13 0
BBX 11 18 1 0
BITMAP
1F00
60C0
4040
C060
C060
E040
60C0
3900
0E00
1380
60C0
40C0
C060
C060
C060
4040
60C0
1F00
ENDCHAR
STARTCHAR c57
ENCODING -1 57
SWIDTH 419 0
DWIDTH 13 0
BBX 11 18 1 0
BITMAP
1F00
71C0
60C0
C060
C060
C060
C060
60E0
7160
1E60
0060
00C0
00C0
0080
0380
0200
0E00
F800
ENDCHAR
STARTCHAR c58
ENCODING -1 58
SWIDTH 193 0
DWIDTH 6 0
BBX 2 13 3 0
BITMAP
C0
C0
C0
00
00
00
00
00
00
00
C0
C0
C0
ENDCHAR
STARTCHAR c59
ENCODING -1 59
SWIDTH 193 0
DWIDTH 6 0
BBX 2 16 3 -3
BITMAP
C0
C0
C0
00
00
00
00
00
00
00
C0
C0
C0
80
80
80
ENDCHAR
STARTCHAR c60
ENCODING -1 60
SWIDTH 451 0
DWIDTH 14 0
BBX 13 13 0 0
BITMAP
0008
0038
00E0
0380
0E00
3800
E000
3800
0E00
0380
00E0
0038
0008
ENDCHAR
STARTCHAR c61
ENCODING -1 61
SWIDTH 451 0
DWIDTH 14 0
BBX 12 5 1 4
BITMAP
FFF0
0000
0000
0000
FFF0
ENDCHAR
STARTCHAR c62
ENCODING -1 62
SWIDTH 451 0
DWIDTH 14 0
BBX 13 13 1 0
BITMAP
8000
E000
3800
0E00
0380
00E0
0038
00E0
0380
0E00
3800
E000
8000
ENDCHAR
STARTCHAR c63
ENCODING -1 63
SWIDTH 354 0
DWIDTH 11 0
BBX 9 18 1 0
BITMAP
3E00
C300
0180
0180
0180
0180
0100
0300
0600
0C00
0800
1800
1800
1800
0000
0000
1800
1800
ENDCHAR
STARTCHAR c64
ENCODING -1 64
SWIDTH 709 0
DWIDTH 22 0
BBX 18 19 2 -1
BITMAP
03F800
0E0E00
180300
300180
607980
6198C0
4318C0
C318C0
C618C0
C618C0
C618C0
C618C0
C638C0
465880
639880
601900
300E00
1C0000
078000
ENDCHAR
STARTCHAR c65
ENCODING -1 65
SWIDTH 483 0
DWIDTH 15 0
BBX 14 18 0 0
BITMAP
0300
0300
0580
0580
0580
08C0
08C0
1860
1060
3020
3FF0
2030
6018
4018
4018
C00C
800C
800C
ENDCHAR
STARTCHAR c66
ENCODING -1 66
SWIDTH 451 0
DWIDTH 14 0
BBX 10 18 2 0
BITMAP
FE00
C180
C0C0
C0C0
C0C0
C0C0
C080
C100
FE00
C100
C080
C0C0
C0C0
C0C0
C0C0
C0C0
C180
FE00
ENDCHAR
STARTCHAR c67
ENCODING -1 67
SWIDTH 516 0
DWIDTH 16 0
BBX 14 18 1 0
BITMAP
03F8
0C00
3800
3000
6000
6000
C000
C000
C000
C000
C000
C000
6000
6000
3000
3800
0C0C
03F0
ENDCHAR
STARTCHAR c68
ENCODING -1 68
SWIDTH 580 0
DWIDTH 18 0
BBX 15 18 2 0
BITMAP
FF00
C0E0
C038
C018
C00C
C00C
C006
C006
C006
C006
C006
C006
C00C
C00C
C018
C038
C0E0
FF00
ENDCHAR
STARTCHAR c69
ENCODING -1 69
SWIDTH 419 0
DWIDTH 13 0
BBX 10 18 2 0
BITMAP
FF80
C000
C000
C000
C000
C000
C000
C000
FF80
C000
C000
C000
C000
C000
C000
C000
C000
FFC0
ENDCHAR
STARTCHAR c70
ENCODING -1 70
SWIDTH 387 0
DWIDTH 12 0
BBX 9 18 2 0
BITMAP
FF80
C000
C000
C000
C000
C000
C000
C000
FF80
C000
C000
C000
C000
C000
C000
C000
C000
C000
ENDCHAR
STARTCHAR c71
ENCODING -1 71
SWIDTH 548 0
DWIDTH 17 0
BBX 15 18 1 0
BITMAP
03F8
0C00
3800
3000
6000
6000
C000
C000
C006
C006
C006
C006
6006
6006
3006
3806
0C0E
03F0
ENDCHAR
STARTCHAR c72
ENCODING -1 72
SWIDTH 548 0
DWIDTH 17 0
BBX 13 18 2 0
BITMAP
C018
C018
C018
C018
C018
C018
C018
C018
FFF8
C018
C018
C018
C018
C018
C018
C018
C018
C018
ENDCHAR
STARTCHAR c73
ENCODING -1 73
SWIDTH 193 0
DWIDTH 6 0
BBX 2 18 2 0
BITMAP
C0
C0
C0
C0
C0
C0
C0
C0
C0
C0
C0
C0
C0
C0
C0
C0
C0
C0
ENDCHAR
STARTCHAR c74
ENCODING -1 74
SWIDTH 225 0
DWIDTH 7 0
BBX 5 18 0 0
BITMAP
18
18
18
18
18
18
18
18
18
18
18
18
18
18
18
10
30
C0
ENDCHAR
STARTCHAR c75
ENCODING -1 75
SWIDTH 451 0
DWIDTH 14 0
BBX 12 18 2 0
BITMAP
C030
C060
C040
C180
C100
C600
C400
C800
D800
DC00
CE00
C700
C300
C1C0
C1C0
C060
C070
C030
ENDCHAR
STARTCHAR c76
ENCODING -1 76
SWIDTH 354 0
DWIDTH 11 0
BBX 9 18 2 0
BITMAP
C000
C000
C000
C000
C000
C000
C000
C000
C000
C000
C000
C000
C000
C000
C000
C000
C000
FF80
ENDCHAR
STARTCHAR c77
ENCODING -1 77
SWIDTH 741 0
DWIDTH 23 0
BBX 23 18 0 0
BITMAP
060060
060060
060060
0B00B0
0B00B0
0901B0
198130
118118
118318
30C218
20C60C
20C40C
60440C
606C0C
406806
402806
C03006
C03006
ENDCHAR
STARTCHAR c78
ENCODING -1 78
SWIDTH 580 0
DWIDTH 18 0
BBX 14 18 2 0
BITMAP
E004
E004
B004
B804
9804
9C04
8E04
8604
8704
8384
8184
81C4
80E4
8064
8074
8034
801C
801C
ENDCHAR
STARTCHAR c79
ENCODING -1 79
SWIDTH 612 0
DWIDTH 19 0
BBX 17 18 1 0
BITMAP
03E000
0C1800
380E00
300600
600300
600300
C00180
C00180
C00180
C00180
C00180
C00180
600300
600300
300600
380E00
0C1800
03E000
ENDCHAR
STARTCHAR c80
ENCODING -1 80
SWIDTH 387 0
DWIDTH 12 0
BBX 10 18 2 0
BITMAP
FE00
C180
C0C0
C0C0
C0C0
C0C0
C0C0
C180
FE00
C000
C000
C000
C000
C000
C000
C000
C000
C000
ENDCHAR
STARTCHAR c81
ENCODING -1 81
SWIDTH 612 0
DWIDTH 19 0
BBX 17 22 1 -4
BITMAP
03E000
0C1800
380E00
300600
600300
600300
C00180
C00180
C00180
C00180
C00180
C00180
600300
600300
300600
380E00
0C1800
03E000
003800
001C00
000E00
000700
ENDCHAR
STARTCHAR c82
ENCODING -1 82
SWIDTH 419 0
DWIDTH 13 0
BBX 11 18 2 0
BITMAP
FE00
C180
C0C0
C0C0
C0C0
C0C0
C080
C300
FC00
CC00
C600
C600
C300
C180
C180
C0C0
C060
C060
ENDCHAR
STARTCHAR c83
ENCODING -1 83
SWIDTH 419 0
DWIDTH 13 0
BBX 9 18 2 0
BITMAP
1F80
6000
C000
C000
C000
C000
6000
7800
1C00
0F00
0300
0180
0180
0180
0180
0300
0700
FC00
ENDCHAR
STARTCHAR c84
ENCODING -1 84
SWIDTH 387 0
DWIDTH 12 0
BBX 12 18 0 0
BITMAP
FFF0
0600
0600
0600
0600
0600
0600
0600
0600
0600
0600
0600
0600
0600
0600
0600
0600
0600
ENDCHAR
STARTCHAR c85
ENCODING -1 85
SWIDTH 548 0
DWIDTH 17 0
BBX 13 18 2 0
BITMAP
C008
C008
C008
C008
C008
C008
C008
C008
C008
C008
C008
C008
C008
C008
6010
6010
3060
0F80
ENDCHAR
STARTCHAR c86
ENCODING -1 86
SWIDTH 483 0
DWIDTH 15 0
BBX 14 18 1 0
BITMAP
C004
C004
C00C
6008
6008
6018
3010
3010
1030
1820
1860
0C40
0C40
0680
0680
0680
0300
0300
ENDCHAR
STARTCHAR c87
ENCODING -1 87
SWIDTH 806 0
DWIDTH 25 0
BBX 25 18 0 0
BITMAP
C00C0180
C00C0100
C00C0100
60160300
60160200
60260200
30230600
30630400
30430400
18418C00
18C18800
18818800
0C80C800
0D00D000
0D00D000
06006000
06006000
06006000
ENDCHAR
STARTCHAR c88
ENCODING -1 88
SWIDTH 451 0
DWIDTH 14 0
BBX 14 18 0 0
BITMAP
6008
6018
3010
3020
1860
0C40
0C80
0700
0300
0380
04C0
08C0
1860
1030
2030
4018
C00C
800C
ENDCHAR
STARTCHAR c89
ENCODING -1 89
SWIDTH 387 0
DWIDTH 12 0
BBX 12 18 0 0
BITMAP
C030
C020
6020
6040
3040
3080
1880
1900
0D00
0E00
0600
0600
0600
0600
0600
0600
0600
0600
ENDCHAR
STARTCHAR c90
ENCODING -1 90
SWIDTH 387 0
DWIDTH 12 0
BBX 12 18 0 0
BITMAP
FFF0
0030
0060
00E0
00C0
0180
0380
0300
0600
0E00
0C00
1800
3800
3000
6000
6000
C000
FFF0
ENDCHAR
STARTCHAR c91
ENCODING -1 91
SWIDTH 290 0
DWIDTH 9 0
BBX 5 23 2 -4
BITMAP
F8
80
80
80
80
80
80
80
80
80
80
80
80
80
80
80
80
80
80
80
80
80
F8
ENDCHAR
STARTCHAR c92
ENCODING -1 92
SWIDTH 354 0
DWIDTH 11 0
BBX 9 18 1 0
BITMAP
C000
4000
4000
6000
2000
3000
1000
1000
1800
0800
0C00
0400
0400
0600
0200
0300
0100
0180
ENDCHAR
STARTCHAR c93
ENCODING -1 93
SWIDTH 290 0
DWIDTH 9 0
BBX 5 23 2 -4
BITMAP
F8
08
08
08
08
08
08
08
08
08
08
08
08
08
08
08
08
08
08
08
08
08
F8
ENDCHAR
STARTCHAR c94
ENCODING -1 94
SWIDTH 419 0
DWIDTH 13 0
BBX 11 14 1 0
BITMAP
0400
0E00
1500
2480
4440
8420
0400
0400
0400
0400
0400
0400
0400
0400
ENDCHAR
STARTCHAR c95
ENCODING -1 95
SWIDTH 225 0
DWIDTH 7 0
BBX 7 1 0 6
BITMAP
FE
ENDCHAR
STARTCHAR c96
ENCODING -1 96
SWIDTH 387 0
DWIDTH 12 0
BBX 5 5 2 15
BITMAP
C0
60
30
10
08
ENDCHAR
STARTCHAR c97
ENCODING -1 97
SWIDTH 387 0
DWIDTH 12 0
BBX 11 13 1 0
BITMAP
1F00
6380
4180
0180
0180
0780
3980
6180
C180
C180
C380
C580
78E0
ENDCHAR
STARTCHAR c98
ENCODING -1 98
SWIDTH 451 0
DWIDTH 14 0
BBX 11 20 2 0
BITMAP
C000
C000
C000
C000
C000
C000
C000
CF00
D1C0
E0C0
C060
C060
C060
C060
C060
C060
C040
C0C0
C380
FE00
ENDCHAR
STARTCHAR c99
ENCODING -1 99
SWIDTH 354 0
DWIDTH 11 0
BBX 10 13 1 0
BITMAP
0F80
3000
6000
4000
C000
C000
C000
C000
C000
C000
6000
70C0
1F00
ENDCHAR
STARTCHAR c100
ENCODING -1 100
SWIDTH 451 0
DWIDTH 14 0
BBX 11 20 1 0
BITMAP
0060
0060
0060
0060
0060
0060
0060
0FE0
3860
6060
4060
C060
C060
C060
C060
C060
C060
60E0
7160
1E60
ENDCHAR
STARTCHAR c101
ENCODING -1 101
SWIDTH 387 0
DWIDTH 12 0
BBX 10 13 1 0
BITMAP
0F00
3180
60C0
40C0
C0C0
FFC0
C000
C000
C000
C000
6000
70C0
1F00
ENDCHAR
STARTCHAR c102
ENCODING -1 102
SWIDTH 225 0
DWIDTH 7 0
BBX 7 20 0 0
BITMAP
06
18
10
30
30
30
30
FE
30
30
30
30
30
30
30
30
30
30
30
30
ENDCHAR
STARTCHAR c103
ENCODING -1 103
SWIDTH 387 0
DWIDTH 12 0
BBX 12 20 0 -7
BITMAP
1FF0
3180
60C0
60C0
60C0
60C0
3180
1F00
1800
2000
6000
3E00
17C0
60E0
4060
C060
C060
C0C0
6180
1E00
ENDCHAR
STARTCHAR c104
ENCODING -1 104
SWIDTH 451 0
DWIDTH 14 0
BBX 10 20 2 0
BITMAP
C000
C000
C000
C000
C000
C000
C000
CF80
D180
E0C0
C0C0
C0C0
C0C0
C0C0
C0C0
C0C0
C0C0
C0C0
C0C0
C0C0
ENDCHAR
STARTCHAR c105
ENCODING -1 105
SWIDTH 193 0
DWIDTH 6 0
BBX 2 18 2 0
BITMAP
C0
C0
00
00
00
C0
C0
C0
C0
C0
C0
C0
C0
C0
C0
C0
C0
C0
ENDCHAR
STARTCHAR c106
ENCODING -1 106
SWIDTH 193 0
DWIDTH 6 0
BBX 4 25 0 -7
BITMAP
30
30
00
00
00
30
30
30
30
30
30
30
30
30
30
30
30
30
30
30
30
30
30
20
C0
ENDCHAR
STARTCHAR c107
ENCODING -1 107
SWIDTH 387 0
DWIDTH 12 0
BBX 10 20 2 0
BITMAP
C000
C000
C000
C000
C000
C000
C000
C0C0
C180
C300
C400
CC00
D000
F000
DC00
CC00
C700
C380
C1C0
C0C0
ENDCHAR
STARTCHAR c108
ENCODING -1 108
SWIDTH 193 0
DWIDTH 6 0
BBX 2 20 2 0
BITMAP
C0
C0
C0
C0
C0
C0
C0
C0
C0
C0
C0
C0
C0
C0
C0
C0
C0
C0
C0
C0
ENDCHAR
STARTCHAR c109
ENCODING -1 109
SWIDTH 709 0
DWIDTH 22 0
BBX 18 13 2 0
BITMAP
CF0F00
D19180
E0E0C0
C0C0C0
C0C0C0
C0C0C0
C0C0C0
C0C0C0
C0C0C0
C0C0C0
C0C0C0
C0C0C0
C0C0C0
ENDCHAR
STARTCHAR c110
ENCODING -1 110
SWIDTH 451 0
DWIDTH 14 0
BBX 10 13 2 0
BITMAP
CF80
D1C0
E0C0
C0C0
C0C0
C0C0
C0C0
C0C0
C0C0
C0C0
C0C0
C0C0
C0C0
ENDCHAR
STARTCHAR c111
ENCODING -1 111
SWIDTH 451 0
DWIDTH 14 0
BBX 12 13 1 0
BITMAP
0F00
30C0
6060
4020
C030
C030
C030
C030
C030
4020
6060
30C0
0F00
ENDCHAR
STARTCHAR c112
ENCODING -1 112
SWIDTH 451 0
DWIDTH 14 0
BBX 11 20 2 -7
BITMAP
CF00
D1C0
E0C0
C060
C060
C060
C060
C060
C060
C040
C0C0
C380
FE00
C000
C000
C000
C000
C000
C000
C000
ENDCHAR
STARTCHAR c113
ENCODING -1 113
SWIDTH 451 0
DWIDTH 14 0
BBX 11 20 1 -7
BITMAP
0FE0
3860
6060
4060
C060
C060
C060
C060
C060
C060
60E0
7160
1E60
0060
0060
0060
0060
0060
0060
0060
ENDCHAR
STARTCHAR c114
ENCODING -1 114
SWIDTH 258 0
DWIDTH 8 0
BBX 6 13 2 0
BITMAP
CC
DC
D0
E0
C0
C0
C0
C0
C0
C0
C0
C0
C0
ENDCHAR
STARTCHAR c115
ENCODING -1 115
SWIDTH 322 0
DWIDTH 10 0
BBX 8 13 1 0
BITMAP
1F
60
C0
C0
C0
F0
7E
0F
03
03
03
06
F8
ENDCHAR
STARTCHAR c116
ENCODING -1 116
SWIDTH 258 0
DWIDTH 8 0
BBX 8 17 0 0
BITMAP
30
30
30
30
FF
30
30
30
30
30
30
30
30
30
30
33
1C
ENDCHAR
STARTCHAR c117
ENCODING -1 117
SWIDTH 451 0
DWIDTH 14 0
BBX 10 13 2 0
BITMAP
C0C0
C0C0
C0C0
C0C0
C0C0
C0C0
C0C0
C0C0
C0C0
C0C0
C1C0
E2C0
7CC0
ENDCHAR
STARTCHAR c118
ENCODING -1 118
SWIDTH 322 0
DWIDTH 10 0
BBX 10 13 0 0
BITMAP
C040
C040
60C0
6080
6080
3100
3100
3100
1A00
1A00
0C00
0C00
0C00
ENDCHAR
STARTCHAR c119
ENCODING -1 119
SWIDTH 580 0
DWIDTH 18 0
BBX 18 13 0 0
BITMAP
C0C040
C0C040
60C0C0
606080
60E080
313100
313100
313100
1A1A00
1A1A00
0C0C00
0C0C00
0C0C00
ENDCHAR
STARTCHAR c120
ENCODING -1 120
SWIDTH 387 0
DWIDTH 12 0
BBX 10 13 1 0
BITMAP
60C0
6080
3100
3100
1A00
0C00
0C00
1600
1300
2300
4180
C0C0
80C0
ENDCHAR
STARTCHAR c121
ENCODING -1 121
SWIDTH 322 0
DWIDTH 10 0
BBX 10 20 0 -7
BITMAP
C040
C040
60C0
6080
6080
3100
3100
3100
1A00
1A00
0C00
0C00
0C00
0400
0800
0800
0800
1000
1000
E000
ENDCHAR
STARTCHAR c122
ENCODING -1 122
SWIDTH 322 0
DWIDTH 10 0
BBX 8 13 1 0
BITMAP
FF
03
06
06
0C
0C
18
30
30
60
60
C0
FF
ENDCHAR
STARTCHAR c123
ENCODING -1 123
SWIDTH 290 0
DWIDTH 9 0
BBX 7 23 0 -4
BITMAP
06
08
10
10
10
10
10
10
10
10
20
C0
20
10
10
10
10
10
10
10
10
08
06
ENDCHAR
STARTCHAR c124
ENCODING -1 124
SWIDTH 225 0
DWIDTH 7 0
BBX 1 23 3 -4
BITMAP
80
80
80
80
80
80
80
80
80
80
80
80
80
80
80
80
80
80
80
80
80
80
80
ENDCHAR
STARTCHAR c125
ENCODING -1 125
SWIDTH 290 0
DWIDTH 9 0
BBX 7 23 2 -4
BITMAP
C0
20
10
10
10
10
10
10
10
10
08
06
08
10
10
10
10
10
10
10
10
20
C0
ENDCHAR
STARTCHAR c126
ENCODING -1 126
SWIDTH 483 0
DWIDTH 15 0
BBX 13 5 1 4
BITMAP
3808
4408
8208
8110
80E0
ENDCHAR
STARTCHAR c128
ENCODING -1 128
SWIDTH 483 0
DWIDTH 15 0
BBX 14 21 0 0
BITMAP
1860
1860
0000
0300
0300
0580
0580
0580
08C0
08C0
1860
1060
3020
3FF0
2030
6018
4018
4018
C00C
800C
800C
ENDCHAR
STARTCHAR c129
ENCODING -1 129
SWIDTH 612 0
DWIDTH 19 0
BBX 17 21 1 0
BITMAP
0C1800
0C1800
000000
03E000
0C1800
380E00
300600
600300
600300
C00180
C00180
C00180
C00180
C00180
C00180
600300
600300
300600
380E00
0C1800
03E000
ENDCHAR
STARTCHAR c130
ENCODING -1 130
SWIDTH 548 0
DWIDTH 17 0
BBX 13 21 2 0
BITMAP
1860
1860
0000
C008
C008
C008
C008
C008
C008
C008
C008
C008
C008
C008
C008
C008
C008
6010
6010
3060
0F80
ENDCHAR
STARTCHAR c131
ENCODING -1 131
SWIDTH 387 0
DWIDTH 12 0
BBX 11 18 1 0
BITMAP
3180
3180
0000
0000
0000
1F00
6380
4180
0180
0180
0780
3980
6180
C180
C180
C380
C580
78E0
ENDCHAR
STARTCHAR c132
ENCODING -1 132
SWIDTH 451 0
DWIDTH 14 0
BBX 12 18 1 0
BITMAP
30C0
30C0
0000
0000
0000
0F00
30C0
6060
4020
C030
C030
C030
C030
C030
4020
6060
30C0
0F00
ENDCHAR
STARTCHAR c133
ENCODING -1 133
SWIDTH 451 0
DWIDTH 14 0
BBX 10 18 2 0
BITMAP
6180
6180
0000
0000
0000
C0C0
C0C0
C0C0
C0C0
C0C0
C0C0
C0C0
C0C0
C0C0
C0C0
C1C0
E2C0
7CC0
ENDCHAR
STARTCHAR c134
ENCODING -1 134
SWIDTH 387 0
DWIDTH 12 0
BBX 11 20 1 0
BITMAP
0C00
1600
2300
4180
0000
0000
0000
1F00
6380
4180
0180
0180
0780
3980
6180
C180
C180
C380
C580
78E0
ENDCHAR
STARTCHAR c135
ENCODING -1 135
SWIDTH 387 0
DWIDTH 12 0
BBX 10 20 1 0
BITMAP
0600
0B00
1180
20C0
0000
0000
0000
0F00
3180
60C0
40C0
C0C0
FFC0
C000
C000
C000
C000
6000
70C0
1F00
ENDCHAR
STARTCHAR c136
ENCODING -1 136
SWIDTH 193 0
DWIDTH 6 0
BBX 6 20 0 0
BITMAP
30
58
8C
00
00
00
00
30
30
30
30
30
30
30
30
30
30
30
30
30
ENDCHAR
STARTCHAR c137
ENCODING -1 137
SWIDTH 451 0
DWIDTH 14 0
BBX 12 20 1 0
BITMAP
0600
0B00
1180
20C0
0000
0000
0000
0F00
30C0
6060
4020
C030
C030
C030
C030
C030
4020
6060
30C0
0F00
ENDCHAR
STARTCHAR c138
ENCODING -1 138
SWIDTH 451 0
DWIDTH 14 0
BBX 10 20 2 0
BITMAP
0C00
1600
2300
4180
0000
0000
0000
C0C0
C0C0
C0C0
C0C0
C0C0
C0C0
C0C0
C0C0
C0C0
C0C0
C1C0
E2C0
7CC0
ENDCHAR
STARTCHAR c139
ENCODING -1 139
SWIDTH 387 0
DWIDTH 12 0
BBX 11 20 1 0
BITMAP
3000
1800
0C00
0400
0200
0000
0000
1F00
6380
4180
0180
0180
0780
3980
6180
C180
C180
C380
C580
78E0
ENDCHAR
STARTCHAR c140
ENCODING -1 140
SWIDTH 387 0
DWIDTH 12 0
BBX 10 20 1 0
BITMAP
3000
1800
0C00
0400
0200
0000
0000
0F00
3180
60C0
40C0
C0C0
FFC0
C000
C000
C000
C000
6000
70C0
1F00
ENDCHAR
STARTCHAR c141
ENCODING -1 141
SWIDTH 193 0
DWIDTH 6 0
BBX 5 20 0 0
BITMAP
C0
60
30
10
08
00
00
30
30
30
30
30
30
30
30
30
30
30
30
30
ENDCHAR
STARTCHAR c142
ENCODING -1 142
SWIDTH 451 0
DWIDTH 14 0
BBX 12 20 1 0
BITMAP
3000
1800
0C00
0400
0200
0000
0000
0F00
30C0
6060
4020
C030
C030
C030
C030
C030
4020
6060
30C0
0F00
ENDCHAR
STARTCHAR c143
ENCODING -1 143
SWIDTH 451 0
DWIDTH 14 0
BBX 10 20 2 0
BITMAP
3000
1800
0C00
0400
0200
0000
0000
C0C0
C0C0
C0C0
C0C0
C0C0
C0C0
C0C0
C0C0
C0C0
C0C0
C1C0
E2C0
7CC0
ENDCHAR
STARTCHAR c144
ENCODING -1 144
SWIDTH 387 0
DWIDTH 12 0
BBX 10 20 1 0
BITMAP
00C0
0180
0300
0200
0400
0000
0000
0F00
3180
60C0
40C0
C0C0
FFC0
C000
C000
C000
C000
6000
70C0
1F00
ENDCHAR
STARTCHAR c145
ENCODING -1 145
SWIDTH 387 0
DWIDTH 12 0
BBX 10 18 1 0
BITMAP
3180
3180
0000
0000
0000
0F00
3180
60C0
40C0
C0C0
FFC0
C000
C000
C000
C000
6000
70C0
1F00
ENDCHAR
STARTCHAR c146
ENCODING -1 146
SWIDTH 193 0
DWIDTH 6 0
BBX 6 18 0 0
BITMAP
CC
CC
00
00
00
30
30
30
30
30
30
30
30
30
30
30
30
30
ENDCHAR
STARTCHAR c147
ENCODING -1 147
SWIDTH 354 0
DWIDTH 11 0
BBX 10 19 1 -6
BITMAP
0F80
3000
6000
4000
C000
C000
C000
C000
C000
C000
6000
70C0
1F00
0000
0E00
0600
0600
0400
0800
ENDCHAR
STARTCHAR c148
ENCODING -1 148
SWIDTH 387 0
DWIDTH 12 0
BBX 11 20 1 0
BITMAP
0180
0300
0600
0400
0800
0000
0000
1F00
6380
4180
0180
0180
0780
3980
6180
C180
C180
C380
C580
78E0
ENDCHAR
STARTCHAR c149
ENCODING -1 149
SWIDTH 451 0
DWIDTH 14 0
BBX 10 19 2 0
BITMAP
3880
4C80
4700
0000
0000
0000
CF80
D1C0
E0C0
C0C0
C0C0
C0C0
C0C0
C0C0
C0C0
C0C0
C0C0
C0C0
C0C0
ENDCHAR
STARTCHAR c155
ENCODING -1 155
SWIDTH 451 0
DWIDTH 14 0
BBX 14 1 0 6
BITMAP
FFFC
ENDCHAR
STARTCHAR c159
ENCODING -1 159
SWIDTH 419 0
DWIDTH 13 0
BBX 0 0 0 0
BITMAP
ENDCHAR
STARTCHAR c171
ENCODING -1 171
SWIDTH 419 0
DWIDTH 13 0
BBX 10 20 2 0
BITMAP
1E00
6300
6180
C180
C180
C300
C600
CC00
CC00
CC00
C600
C300
C180
C0C0
C0C0
C0C0
C0C0
C0C0
C180
CF00
ENDCHAR
ENDFONT
