STARTFONT 2.1
COMMENT converted Oberon font (using FontToBDF by R.Crelier 10.1.91)
FONT GreekSyntax12.Scn.Fnt
SIZE 12 75 75
FONTBOUNDINGBOX  12 13 0 -3
STARTPROPERTIES 3
FONT_ASCENT 10
FONT_DESCENT 3
DEFAULT_CHAR 0
ENDPROPERTIES
CHARS 97
STARTCHAR c0
ENCODING -1 0
SWIDTH 0 0
DWIDTH 0 0
BBX 0 0 0 0
BITMAP
ENDCHAR
STARTCHAR c9
ENCODING -1 9
SWIDTH 516 0
DWIDTH 16 0
BBX 0 0 0 0
BITMAP
ENDCHAR
STARTCHAR c32
ENCODING -1 32
SWIDTH 129 0
DWIDTH 4 0
BBX 0 0 0 0
BITMAP
ENDCHAR
STARTCHAR c33
ENCODING -1 33
SWIDTH 129 0
DWIDTH 4 0
BBX 1 9 2 0
BITMAP
80
80
80
80
80
80
00
00
80
ENDCHAR
STARTCHAR c34
ENCODING -1 34
SWIDTH 225 0
DWIDTH 7 0
BBX 7 9 0 0
BITMAP
C6
28
28
10
10
10
10
10
10
ENDCHAR
STARTCHAR c35
ENCODING -1 35
SWIDTH 258 0
DWIDTH 8 0
BBX 6 9 1 0
BITMAP
48
48
48
FC
48
FC
48
48
48
ENDCHAR
STARTCHAR c36
ENCODING -1 36
SWIDTH 161 0
DWIDTH 5 0
BBX 4 7 1 0
BITMAP
70
80
80
C0
30
10
60
ENDCHAR
STARTCHAR c37
ENCODING -1 37
SWIDTH 354 0
DWIDTH 11 0
BBX 9 9 1 0
BITMAP
6200
9200
9400
6400
0800
1300
1480
2480
2300
ENDCHAR
STARTCHAR c38
ENCODING -1 38
SWIDTH 290 0
DWIDTH 9 0
BBX 8 9 1 0
BITMAP
38
48
48
30
52
8A
84
8C
73
ENDCHAR
STARTCHAR c40
ENCODING -1 40
SWIDTH 161 0
DWIDTH 5 0
BBX 3 11 1 -2
BITMAP
20
40
40
80
80
80
80
80
40
40
20
ENDCHAR
STARTCHAR c41
ENCODING -1 41
SWIDTH 161 0
DWIDTH 5 0
BBX 3 11 1 -2
BITMAP
80
40
40
20
20
20
20
20
40
40
80
ENDCHAR
STARTCHAR c42
ENCODING -1 42
SWIDTH 290 0
DWIDTH 9 0
BBX 7 7 1 0
BITMAP
44
28
10
FE
10
28
44
ENDCHAR
STARTCHAR c43
ENCODING -1 43
SWIDTH 290 0
DWIDTH 9 0
BBX 7 7 1 0
BITMAP
10
10
10
FE
10
10
10
ENDCHAR
STARTCHAR c44
ENCODING -1 44
SWIDTH 96 0
DWIDTH 3 0
BBX 1 4 1 -2
BITMAP
80
80
80
80
ENDCHAR
STARTCHAR c45
ENCODING -1 45
SWIDTH 290 0
DWIDTH 9 0
BBX 7 1 1 3
BITMAP
FE
ENDCHAR
STARTCHAR c46
ENCODING -1 46
SWIDTH 96 0
DWIDTH 3 0
BBX 1 2 1 0
BITMAP
80
80
ENDCHAR
STARTCHAR c47
ENCODING -1 47
SWIDTH 193 0
DWIDTH 6 0
BBX 5 9 1 0
BITMAP
08
08
10
10
20
40
40
80
80
ENDCHAR
STARTCHAR c48
ENCODING -1 48
SWIDTH 225 0
DWIDTH 7 0
BBX 6 9 1 0
BITMAP
38
48
84
84
84
84
84
48
70
ENDCHAR
STARTCHAR c49
ENCODING -1 49
SWIDTH 225 0
DWIDTH 7 0
BBX 4 9 1 0
BITMAP
10
30
50
90
10
10
10
10
10
ENDCHAR
STARTCHAR c50
ENCODING -1 50
SWIDTH 225 0
DWIDTH 7 0
BBX 7 9 0 0
BITMAP
78
04
04
04
08
10
20
40
FE
ENDCHAR
STARTCHAR c51
ENCODING -1 51
SWIDTH 225 0
DWIDTH 7 0
BBX 5 9 1 0
BITMAP
F0
08
08
10
70
08
08
10
F0
ENDCHAR
STARTCHAR c52
ENCODING -1 52
SWIDTH 225 0
DWIDTH 7 0
BBX 7 9 0 0
BITMAP
08
18
28
48
88
FE
08
08
08
ENDCHAR
STARTCHAR c53
ENCODING -1 53
SWIDTH 225 0
DWIDTH 7 0
BBX 5 9 1 0
BITMAP
78
40
80
F0
18
08
08
10
E0
ENDCHAR
STARTCHAR c54
ENCODING -1 54
SWIDTH 225 0
DWIDTH 7 0
BBX 6 9 1 0
BITMAP
1C
60
40
80
B8
C4
84
44
38
ENDCHAR
STARTCHAR c55
ENCODING -1 55
SWIDTH 225 0
DWIDTH 7 0
BBX 6 9 1 0
BITMAP
FC
08
08
10
10
20
20
40
40
ENDCHAR
STARTCHAR c56
ENCODING -1 56
SWIDTH 225 0
DWIDTH 7 0
BBX 6 9 1 0
BITMAP
78
84
84
48
30
48
84
84
78
ENDCHAR
STARTCHAR c57
ENCODING -1 57
SWIDTH 225 0
DWIDTH 7 0
BBX 6 9 1 0
BITMAP
70
88
84
8C
74
04
08
18
E0
ENDCHAR
STARTCHAR c58
ENCODING -1 58
SWIDTH 129 0
DWIDTH 4 0
BBX 1 7 2 0
BITMAP
80
80
00
00
00
80
80
ENDCHAR
STARTCHAR c59
ENCODING -1 59
SWIDTH 129 0
DWIDTH 4 0
BBX 1 9 2 -2
BITMAP
80
80
00
00
00
80
80
80
80
ENDCHAR
STARTCHAR c60
ENCODING -1 60
SWIDTH 322 0
DWIDTH 10 0
BBX 8 7 1 0
BITMAP
03
0C
30
C0
30
0C
03
ENDCHAR
STARTCHAR c61
ENCODING -1 61
SWIDTH 290 0
DWIDTH 9 0
BBX 7 3 1 2
BITMAP
FE
00
FE
ENDCHAR
STARTCHAR c62
ENCODING -1 62
SWIDTH 322 0
DWIDTH 10 0
BBX 8 7 1 0
BITMAP
C0
30
0C
03
0C
30
C0
ENDCHAR
STARTCHAR c63
ENCODING -1 63
SWIDTH 161 0
DWIDTH 5 0
BBX 4 9 1 0
BITMAP
E0
10
10
20
40
40
00
40
40
ENDCHAR
STARTCHAR c64
ENCODING -1 64
SWIDTH 290 0
DWIDTH 9 0
BBX 7 7 1 0
BITMAP
8C
92
62
00
FE
00
FE
ENDCHAR
STARTCHAR c65
ENCODING -1 65
SWIDTH 258 0
DWIDTH 8 0
BBX 7 9 1 0
BITMAP
10
10
28
28
44
7C
44
82
82
ENDCHAR
STARTCHAR c66
ENCODING -1 66
SWIDTH 258 0
DWIDTH 8 0
BBX 5 9 2 0
BITMAP
F0
88
88
88
F0
88
88
88
F0
ENDCHAR
STARTCHAR c67
ENCODING -1 67
SWIDTH 225 0
DWIDTH 7 0
BBX 6 9 1 0
BITMAP
84
84
48
28
30
50
48
84
84
ENDCHAR
STARTCHAR c68
ENCODING -1 68
SWIDTH 258 0
DWIDTH 8 0
BBX 7 9 1 0
BITMAP
10
10
28
28
44
44
82
82
FE
ENDCHAR
STARTCHAR c69
ENCODING -1 69
SWIDTH 225 0
DWIDTH 7 0
BBX 5 9 2 0
BITMAP
F8
80
80
80
F8
80
80
80
F8
ENDCHAR
STARTCHAR c70
ENCODING -1 70
SWIDTH 258 0
DWIDTH 8 0
BBX 7 12 1 -2
BITMAP
10
10
38
54
92
92
92
92
54
38
10
10
ENDCHAR
STARTCHAR c71
ENCODING -1 71
SWIDTH 225 0
DWIDTH 7 0
BBX 5 9 2 0
BITMAP
F8
80
80
80
80
80
80
80
80
ENDCHAR
STARTCHAR c72
ENCODING -1 72
SWIDTH 290 0
DWIDTH 9 0
BBX 6 9 2 0
BITMAP
84
84
84
84
FC
84
84
84
84
ENDCHAR
STARTCHAR c73
ENCODING -1 73
SWIDTH 129 0
DWIDTH 4 0
BBX 1 9 2 0
BITMAP
80
80
80
80
80
80
80
80
80
ENDCHAR
STARTCHAR c74
ENCODING -1 74
SWIDTH 290 0
DWIDTH 9 0
BBX 8 9 1 0
BITMAP
38
44
7F
04
84
84
84
84
78
ENDCHAR
STARTCHAR c75
ENCODING -1 75
SWIDTH 258 0
DWIDTH 8 0
BBX 6 9 2 0
BITMAP
84
88
90
A0
C0
A0
90
88
84
ENDCHAR
STARTCHAR c76
ENCODING -1 76
SWIDTH 258 0
DWIDTH 8 0
BBX 7 9 1 0
BITMAP
10
10
28
28
44
44
44
82
82
ENDCHAR
STARTCHAR c77
ENCODING -1 77
SWIDTH 419 0
DWIDTH 13 0
BBX 11 9 1 0
BITMAP
2080
2080
5140
5140
4A40
4A40
8A20
8420
8420
ENDCHAR
STARTCHAR c78
ENCODING -1 78
SWIDTH 322 0
DWIDTH 10 0
BBX 7 9 2 0
BITMAP
82
C2
A2
A2
92
92
8A
86
82
ENDCHAR
STARTCHAR c79
ENCODING -1 79
SWIDTH 354 0
DWIDTH 11 0
BBX 8 9 2 0
BITMAP
3C
42
81
81
81
81
81
42
3C
ENDCHAR
STARTCHAR c80
ENCODING -1 80
SWIDTH 290 0
DWIDTH 9 0
BBX 6 9 2 0
BITMAP
FC
84
84
84
84
84
84
84
84
ENDCHAR
STARTCHAR c81
ENCODING -1 81
SWIDTH 354 0
DWIDTH 11 0
BBX 8 9 2 0
BITMAP
3C
42
81
81
BD
81
81
42
3C
ENDCHAR
STARTCHAR c82
ENCODING -1 82
SWIDTH 225 0
DWIDTH 7 0
BBX 5 9 2 0
BITMAP
F0
88
88
88
F0
80
80
80
80
ENDCHAR
STARTCHAR c83
ENCODING -1 83
SWIDTH 225 0
DWIDTH 7 0
BBX 6 9 1 0
BITMAP
FC
40
20
10
08
10
20
40
FC
ENDCHAR
STARTCHAR c84
ENCODING -1 84
SWIDTH 258 0
DWIDTH 8 0
BBX 7 9 1 0
BITMAP
FE
10
10
10
10
10
10
10
10
ENDCHAR
STARTCHAR c85
ENCODING -1 85
SWIDTH 258 0
DWIDTH 8 0
BBX 7 9 1 0
BITMAP
82
44
44
28
28
10
10
10
10
ENDCHAR
STARTCHAR c86
ENCODING -1 86
SWIDTH 193 0
DWIDTH 6 0
BBX 5 10 1 -3
BITMAP
78
80
80
80
80
40
30
08
08
70
ENDCHAR
STARTCHAR c87
ENCODING -1 87
SWIDTH 322 0
DWIDTH 10 0
BBX 7 9 2 0
BITMAP
38
44
82
82
82
82
44
28
EE
ENDCHAR
STARTCHAR c88
ENCODING -1 88
SWIDTH 258 0
DWIDTH 8 0
BBX 7 9 1 0
BITMAP
FE
00
00
00
7C
00
00
00
FE
ENDCHAR
STARTCHAR c89
ENCODING -1 89
SWIDTH 387 0
DWIDTH 12 0
BBX 9 9 2 0
BITMAP
8880
8880
8880
8880
4900
3E00
0800
0800
0800
ENDCHAR
STARTCHAR c90
ENCODING -1 90
SWIDTH 225 0
DWIDTH 7 0
BBX 6 9 1 0
BITMAP
FC
08
10
10
20
20
40
40
FC
ENDCHAR
STARTCHAR c91
ENCODING -1 91
SWIDTH 161 0
DWIDTH 5 0
BBX 3 11 1 -2
BITMAP
E0
80
80
80
80
80
80
80
80
80
E0
ENDCHAR
STARTCHAR c92
ENCODING -1 92
SWIDTH 290 0
DWIDTH 9 0
BBX 7 7 1 0
BITMAP
10
10
00
00
00
82
82
ENDCHAR
STARTCHAR c93
ENCODING -1 93
SWIDTH 161 0
DWIDTH 5 0
BBX 3 11 1 -2
BITMAP
E0
20
20
20
20
20
20
20
20
20
E0
ENDCHAR
STARTCHAR c94
ENCODING -1 94
SWIDTH 290 0
DWIDTH 9 0
BBX 7 7 1 0
BITMAP
10
10
10
10
10
10
FE
ENDCHAR
STARTCHAR c95
ENCODING -1 95
SWIDTH 225 0
DWIDTH 7 0
BBX 7 1 0 -3
BITMAP
FE
ENDCHAR
STARTCHAR c96
ENCODING -1 96
SWIDTH 225 0
DWIDTH 7 0
BBX 7 1 0 9
BITMAP
FE
ENDCHAR
STARTCHAR c97
ENCODING -1 97
SWIDTH 258 0
DWIDTH 8 0
BBX 6 7 1 0
BITMAP
64
94
88
88
88
94
64
ENDCHAR
STARTCHAR c98
ENCODING -1 98
SWIDTH 225 0
DWIDTH 7 0
BBX 5 13 1 -3
BITMAP
60
90
90
90
E0
90
88
88
88
B0
80
80
80
ENDCHAR
STARTCHAR c99
ENCODING -1 99
SWIDTH 161 0
DWIDTH 5 0
BBX 5 10 0 -3
BITMAP
C8
48
50
30
20
20
60
50
90
98
ENDCHAR
STARTCHAR c100
ENCODING -1 100
SWIDTH 225 0
DWIDTH 7 0
BBX 5 10 1 0
BITMAP
F0
80
40
20
50
88
88
88
88
70
ENDCHAR
STARTCHAR c101
ENCODING -1 101
SWIDTH 193 0
DWIDTH 6 0
BBX 4 7 1 0
BITMAP
70
80
80
70
80
80
70
ENDCHAR
STARTCHAR c102
ENCODING -1 102
SWIDTH 290 0
DWIDTH 9 0
BBX 7 11 1 -2
BITMAP
10
10
3C
54
92
92
92
54
78
10
10
ENDCHAR
STARTCHAR c103
ENCODING -1 103
SWIDTH 161 0
DWIDTH 5 0
BBX 5 10 0 -3
BITMAP
C8
48
50
30
20
20
50
50
50
20
ENDCHAR
STARTCHAR c104
ENCODING -1 104
SWIDTH 225 0
DWIDTH 7 0
BBX 5 10 1 -3
BITMAP
B0
C8
88
88
88
88
88
08
08
08
ENDCHAR
STARTCHAR c105
ENCODING -1 105
SWIDTH 129 0
DWIDTH 4 0
BBX 3 7 1 0
BITMAP
80
80
80
80
80
A0
C0
ENDCHAR
STARTCHAR c106
ENCODING -1 106
SWIDTH 290 0
DWIDTH 9 0
BBX 7 10 1 -3
BITMAP
4C
92
92
92
92
54
38
10
10
10
ENDCHAR
STARTCHAR c107
ENCODING -1 107
SWIDTH 193 0
DWIDTH 6 0
BBX 5 7 1 0
BITMAP
98
A0
C0
C0
A0
90
88
ENDCHAR
STARTCHAR c108
ENCODING -1 108
SWIDTH 193 0
DWIDTH 6 0
BBX 6 10 0 0
BITMAP
60
20
20
10
10
30
50
48
88
8C
ENDCHAR
STARTCHAR c109
ENCODING -1 109
SWIDTH 225 0
DWIDTH 7 0
BBX 5 10 1 -3
BITMAP
88
88
88
88
88
98
E8
80
80
80
ENDCHAR
STARTCHAR c110
ENCODING -1 110
SWIDTH 225 0
DWIDTH 7 0
BBX 5 7 1 0
BITMAP
90
88
48
48
50
20
20
ENDCHAR
STARTCHAR c111
ENCODING -1 111
SWIDTH 225 0
DWIDTH 7 0
BBX 5 7 1 0
BITMAP
70
88
88
88
88
88
70
ENDCHAR
STARTCHAR c112
ENCODING -1 112
SWIDTH 258 0
DWIDTH 8 0
BBX 8 7 0 0
BITMAP
7F
A4
24
24
24
25
26
ENDCHAR
STARTCHAR c113
ENCODING -1 113
SWIDTH 225 0
DWIDTH 7 0
BBX 5 9 1 0
BITMAP
70
88
88
88
F8
88
88
88
70
ENDCHAR
STARTCHAR c114
ENCODING -1 114
SWIDTH 225 0
DWIDTH 7 0
BBX 5 10 1 -3
BITMAP
70
88
88
88
88
88
B0
80
80
80
ENDCHAR
STARTCHAR c115
ENCODING -1 115
SWIDTH 225 0
DWIDTH 7 0
BBX 6 7 1 0
BITMAP
7C
90
88
88
88
88
70
ENDCHAR
STARTCHAR c116
ENCODING -1 116
SWIDTH 161 0
DWIDTH 5 0
BBX 5 7 0 0
BITMAP
78
A0
20
20
20
28
30
ENDCHAR
STARTCHAR c117
ENCODING -1 117
SWIDTH 225 0
DWIDTH 7 0
BBX 5 7 1 0
BITMAP
90
88
88
88
88
88
70
ENDCHAR
STARTCHAR c118
ENCODING -1 118
SWIDTH 354 0
DWIDTH 11 0
BBX 11 7 0 0
BITMAP
FFE0
2480
4440
4440
4440
4440
3B80
ENDCHAR
STARTCHAR c119
ENCODING -1 119
SWIDTH 354 0
DWIDTH 11 0
BBX 9 7 1 0
BITMAP
4900
8880
8880
8880
8880
8880
7700
ENDCHAR
STARTCHAR c120
ENCODING -1 120
SWIDTH 161 0
DWIDTH 5 0
BBX 5 13 0 -3
BITMAP
F8
20
40
40
38
40
40
40
40
30
08
08
30
ENDCHAR
STARTCHAR c121
ENCODING -1 121
SWIDTH 290 0
DWIDTH 9 0
BBX 7 10 1 -3
BITMAP
92
92
92
92
92
92
7C
10
10
10
ENDCHAR
STARTCHAR c122
ENCODING -1 122
SWIDTH 193 0
DWIDTH 6 0
BBX 5 13 1 -3
BITMAP
F8
20
40
80
80
80
80
80
40
30
08
08
30
ENDCHAR
STARTCHAR c123
ENCODING -1 123
SWIDTH 161 0
DWIDTH 5 0
BBX 4 11 0 -2
BITMAP
30
40
40
40
40
80
40
40
40
40
30
ENDCHAR
STARTCHAR c124
ENCODING -1 124
SWIDTH 161 0
DWIDTH 5 0
BBX 1 13 2 -3
BITMAP
80
80
80
80
80
80
80
80
80
80
80
80
80
ENDCHAR
STARTCHAR c125
ENCODING -1 125
SWIDTH 161 0
DWIDTH 5 0
BBX 4 11 1 -2
BITMAP
C0
20
20
20
20
10
20
20
20
20
C0
ENDCHAR
STARTCHAR c126
ENCODING -1 126
SWIDTH 290 0
DWIDTH 9 0
BBX 7 3 1 2
BITMAP
62
92
8C
ENDCHAR
STARTCHAR c159
ENCODING -1 159
SWIDTH 225 0
DWIDTH 7 0
BBX 0 0 0 0
BITMAP
ENDCHAR
ENDFONT
